<?xml version="1.0" standalone="no"?>
<!DOCTYPE svg PUBLIC "-//W3C//DTD SVG 1.1//EN" "http://www.w3.org/Graphics/SVG/1.1/DTD/svg11.dtd" >
<svg xmlns="http://www.w3.org/2000/svg" xmlns:xlink="http://www.w3.org/1999/xlink" version="1.1">
<metadata>
Created by FontForge 20161116 at Fri Feb  4 17:20:43 2011
 By Jimmy Warting
Copyright (c) 2011 Linotype Corp., www.linotype.com. All rights reserved. This font software may not be reproduced, modified, disclosed or transferred without the express written approval of Linotype Corp. Akko is a trademark of Linotype Corp. and may be registered in certain jurisdictions in the name of Linotype Corp. or its licensee Linotype GmbH. This typeface is original artwork of Akira Kobayashi. The design may be protected in certain jurisdictions.
</metadata>
<defs>
<font id="AkkoPro-Thin" horiz-adv-x="540" >
  <font-face 
    font-family="Akko Pro Thin"
    font-weight="250"
    font-stretch="normal"
    units-per-em="1000"
    panose-1="2 11 4 3 6 3 3 2 3 3"
    ascent="750"
    descent="-250"
    x-height="535"
    cap-height="680"
    bbox="-89.1938 -240 1127 942"
    underline-thickness="50"
    underline-position="-100"
    stemh="37"
    stemv="46"
    unicode-range="U+000D-FB06"
  />
<missing-glyph horiz-adv-x="485" 
d="M263 111h-53v63h53v-63zM257 222h-46v16c0 67 11 91 57 131c40 40 46 57 46 80c0 45 -33 80 -72 80c-38 0 -70 -25 -77 -90l-48 8c9 91 60 130 128 130c69 0 118 -49 118 -124c0 -41 -12 -69 -60 -113c-45 -41 -46 -50 -46 -101v-17zM47 47h391v585h-391v-585zM0 680h485
v-680h-485v680z" />
    <glyph glyph-name="IJ" unicode="IJ" horiz-adv-x="528" 
d="M138 0h-28c-6 0 -10 4 -10 10v660c0 6 4 10 10 10h28c6 0 10 -4 10 -10v-660c0 -6 -4 -10 -10 -10zM384 170v500c0 6 4 10 10 10h28c6 0 10 -4 10 -10v-503c0 -133 -32 -177 -125 -177c-22 0 -52 4 -60 7c-6 2 -8 7 -7 13l3 22c2 7 6 7 12 6c12 -2 32 -5 48 -5
c61 0 81 14 81 137z" />
    <glyph glyph-name="ij" unicode="ij" horiz-adv-x="494" 
d="M143 0h-27c-6 0 -10 4 -10 10v515c0 6 4 10 10 10h27c6 0 10 -4 10 -10v-515c0 -6 -4 -10 -10 -10zM150 659h-40c-6 0 -10 4 -10 10v45c0 6 4 10 10 10h40c6 0 10 -4 10 -10v-45c0 -6 -4 -10 -10 -10zM389 525v-554c0 -119 -42 -151 -123 -151c-29 0 -60 5 -67 7
c-6 2 -8 7 -7 13l2 19c2 7 6 7 12 6c12 -2 34 -5 50 -5c61 0 86 6 86 111v554c0 6 4 10 10 10h27c6 0 10 -4 10 -10zM386 659h-40c-6 0 -10 4 -10 10v45c0 6 4 10 10 10h40c6 0 10 -4 10 -10v-45c0 -6 -4 -10 -10 -10z" />
    <glyph glyph-name="napostrophe" unicode="&#x22;n" horiz-adv-x="556" 
d="M273 545c137 0 193 -38 193 -162v-373c0 -6 -4 -10 -10 -10h-26c-6 0 -10 4 -10 10v366c0 95 -32 130 -149 130c-48 0 -98 -6 -120 -11c-7 -2 -10 -4 -10 -11v-474c0 -6 -4 -10 -10 -10h-26c-6 0 -10 4 -10 10v508c0 6 3 9 9 10c54 12 120 17 169 17zM44 618h-17
c-6 0 -8 4 -7 7l48 192c2 7 8 10 14 10h29c7 0 11 -5 9 -11l-58 -179c-5 -16 -9 -19 -18 -19z" />
    <glyph glyph-name="f_f" unicode="ff" horiz-adv-x="573" 
d="M441 587v-46c0 -4 2 -6 6 -6h91c6 0 10 -4 10 -10v-18c0 -6 -4 -10 -10 -10h-91c-4 0 -6 -2 -6 -6v-481c0 -6 -4 -10 -10 -10h-26c-6 0 -10 4 -10 10v481c0 4 -2 6 -6 6h-213c-4 0 -6 -2 -6 -6v-481c0 -6 -4 -10 -10 -10h-26c-6 0 -10 4 -10 10v481c0 4 -2 6 -6 6h-83
c-6 0 -10 4 -10 10v18c0 6 4 10 10 10h83c4 0 6 2 6 6v49c0 80 15 145 114 145c33 0 60 -5 67 -7c6 -2 8 -7 7 -13l-4 -16c-2 -7 -6 -7 -12 -6c-13 3 -33 6 -58 6c-59 0 -68 -28 -68 -112v-46c0 -4 2 -6 6 -6h213c4 0 6 2 6 6v49c0 80 15 145 114 145c33 0 60 -5 67 -7
c6 -2 8 -7 7 -13l-4 -16c-2 -7 -6 -7 -12 -6c-13 3 -33 6 -58 6c-59 0 -68 -28 -68 -112z" />
    <glyph glyph-name="fi" unicode="fi" horiz-adv-x="541" 
d="M432 0h-27c-6 0 -10 4 -10 10v472c0 12 -2 15 -14 15h-205c-4 0 -6 -2 -6 -6v-481c0 -6 -4 -10 -10 -10h-26c-6 0 -10 4 -10 10v481c0 4 -2 6 -6 6h-83c-6 0 -10 4 -10 10v18c0 6 4 10 10 10h83c4 0 6 2 6 6v49c0 80 41 145 184 145c63 0 110 -5 127 -7c6 -1 8 -7 7 -13
l-2 -16c-2 -7 -6 -7 -12 -6c-38 5 -75 6 -120 6c-93 0 -138 -28 -138 -112v-46c0 -4 2 -6 6 -6h256c6 0 10 -4 10 -10v-515c0 -6 -4 -10 -10 -10z" />
    <glyph glyph-name="fl" unicode="fl" horiz-adv-x="569" 
d="M441 715v-579c0 -93 6 -107 57 -107h39c6 0 8 -1 8 -6v-16c0 -6 -3 -9 -9 -10c-13 -3 -30 -5 -52 -5c-78 0 -89 38 -89 141v546c0 9 -4 11 -10 12c-37 5 -56 8 -97 8c-99 0 -118 -28 -118 -112v-46c0 -4 2 -6 6 -6h91c6 0 10 -4 10 -10v-18c0 -6 -4 -10 -10 -10h-91
c-4 0 -6 -2 -6 -6v-481c0 -6 -4 -10 -10 -10h-26c-6 0 -10 4 -10 10v481c0 4 -2 6 -6 6h-83c-6 0 -10 4 -10 10v18c0 6 4 10 10 10h83c4 0 6 2 6 6v49c0 80 15 145 164 145c33 0 110 -5 143 -10c6 0 10 -4 10 -10z" />
    <glyph glyph-name="f_f_i" unicode="ffi" horiz-adv-x="812" 
d="M703 0h-27c-6 0 -10 4 -10 10v472c0 12 -2 15 -14 15h-205c-4 0 -6 -2 -6 -6v-481c0 -6 -4 -10 -10 -10h-26c-6 0 -10 4 -10 10v481c0 4 -2 6 -6 6h-213c-4 0 -6 -2 -6 -6v-481c0 -6 -4 -10 -10 -10h-26c-6 0 -10 4 -10 10v481c0 4 -2 6 -6 6h-83c-6 0 -10 4 -10 10v18
c0 6 4 10 10 10h83c4 0 6 2 6 6v49c0 80 15 145 114 145c33 0 60 -5 67 -7c6 -2 8 -7 7 -13l-4 -16c-2 -7 -6 -7 -12 -6c-13 3 -33 6 -58 6c-59 0 -68 -28 -68 -112v-46c0 -4 2 -6 6 -6h213c4 0 6 2 6 6v49c0 80 41 145 184 145c63 0 110 -5 127 -7c6 -1 8 -7 7 -13l-2 -16
c-2 -7 -6 -7 -12 -6c-38 5 -75 6 -120 6c-93 0 -138 -28 -138 -112v-46c0 -4 2 -6 6 -6h256c6 0 10 -4 10 -10v-515c0 -6 -4 -10 -10 -10z" />
    <glyph glyph-name="f_f_l" unicode="ffl" horiz-adv-x="840" 
d="M712 715v-579c0 -93 6 -107 57 -107h39c6 0 8 -1 8 -6v-16c0 -6 -3 -9 -9 -10c-13 -3 -30 -5 -52 -5c-78 0 -89 38 -89 141v546c0 9 -4 11 -10 12c-37 5 -56 8 -97 8c-99 0 -118 -28 -118 -112v-46c0 -4 2 -6 6 -6h91c6 0 10 -4 10 -10v-18c0 -6 -4 -10 -10 -10h-91
c-4 0 -6 -2 -6 -6v-481c0 -6 -4 -10 -10 -10h-26c-6 0 -10 4 -10 10v481c0 4 -2 6 -6 6h-213c-4 0 -6 -2 -6 -6v-481c0 -6 -4 -10 -10 -10h-26c-6 0 -10 4 -10 10v481c0 4 -2 6 -6 6h-83c-6 0 -10 4 -10 10v18c0 6 4 10 10 10h83c4 0 6 2 6 6v49c0 80 15 145 114 145
c33 0 60 -5 67 -7c6 -2 8 -7 7 -13l-4 -16c-2 -7 -6 -7 -12 -6c-13 3 -33 6 -58 6c-59 0 -68 -28 -68 -112v-46c0 -4 2 -6 6 -6h213c4 0 6 2 6 6v49c0 80 15 145 164 145c33 0 110 -5 143 -10c6 0 10 -4 10 -10z" />
    <glyph glyph-name=".notdef" horiz-adv-x="485" 
d="M263 111h-53v63h53v-63zM257 222h-46v16c0 67 11 91 57 131c40 40 46 57 46 80c0 45 -33 80 -72 80c-38 0 -70 -25 -77 -90l-48 8c9 91 60 130 128 130c69 0 118 -49 118 -124c0 -41 -12 -69 -60 -113c-45 -41 -46 -50 -46 -101v-17zM47 47h391v585h-391v-585zM0 680h485
v-680h-485v680z" />
    <glyph glyph-name=".null" horiz-adv-x="500" 
 />
    <glyph glyph-name=".null" horiz-adv-x="500" 
 />
    <glyph glyph-name="CR" unicode="&#xd;" horiz-adv-x="0" 
 />
    <glyph glyph-name="space" unicode=" " horiz-adv-x="200" 
 />
    <glyph glyph-name="exclam" unicode="!" horiz-adv-x="280" 
d="M152 195h-14c-6 0 -10 4 -10 10l-11 465c0 6 4 10 10 10h36c6 0 10 -4 10 -10l-11 -465c0 -6 -4 -10 -10 -10zM168 0h-48c-6 0 -10 4 -10 10v57c0 6 4 10 10 10h48c6 0 10 -4 10 -10v-57c0 -6 -4 -10 -10 -10z" />
    <glyph glyph-name="quotedbl" unicode="&#x22;" horiz-adv-x="330" 
d="M107 469h-16c-6 0 -10 4 -10 10l-7 255c0 6 4 10 10 10h32c6 0 10 -4 10 -10l-9 -255c0 -6 -4 -10 -10 -10zM237 469h-16c-6 0 -10 4 -10 10l-7 255c0 6 4 10 10 10h32c6 0 10 -4 10 -10l-9 -255c0 -6 -4 -10 -10 -10z" />
    <glyph glyph-name="numbersign" unicode="#" 
d="M150 243l37 216c1 4 -1 6 -5 6h-67c-6 0 -9 4 -8 10l3 14c1 6 5 10 11 10h67c4 0 7 2 8 6l30 165c1 6 5 10 11 10h18c6 0 10 -4 9 -10l-30 -165c-1 -4 0 -6 4 -6h111c3 0 5 3 6 6l30 165c1 6 5 10 11 10h19c6 0 10 -4 9 -10l-30 -165c-1 -4 0 -6 4 -6h72c6 0 10 -4 9 -10
l-2 -14c-1 -6 -6 -10 -12 -10h-73c-4 0 -6 -2 -7 -6l-37 -216c-1 -4 1 -6 5 -6h72c6 0 9 -4 8 -10l-2 -14c-1 -6 -5 -10 -11 -10h-72c-4 0 -7 -2 -7 -5l-34 -188c-1 -6 -5 -10 -11 -10h-19c-6 0 -10 4 -9 10l33 187c1 4 0 6 -4 6h-109c-4 0 -7 -2 -7 -5l-34 -188
c-1 -6 -5 -10 -11 -10h-18c-6 0 -10 4 -9 10l33 187c1 4 0 6 -4 6h-68c-6 0 -10 4 -9 10l3 14c1 6 6 10 12 10h67c4 0 6 2 7 6zM309 243l37 216c1 4 -1 6 -5 6h-109c-4 0 -6 -2 -7 -6l-37 -216c-1 -4 1 -6 5 -6h111c2 0 4 3 5 6z" />
    <glyph glyph-name="dollar" unicode="$" 
d="M243 2c-44 0 -90 7 -135 18c-4 1 -5 2 -5 8l4 29c0 3 3 5 8 4c49 -10 87 -17 137 -17c79 0 137 29 137 117c0 27 -3 44 -16 66c-15 23 -50 57 -109 99c-55 38 -103 81 -121 112c-18 30 -22 61 -22 88c0 107 63 142 141 149c1 1 2 3 2 6v79c0 6 4 10 10 10h26
c6 0 10 -4 10 -10v-79c0 -2 0 -3 1 -4c39 -1 72 -6 99 -14c4 -1 5 -3 5 -9l-4 -28c-1 -4 -3 -7 -8 -5c-29 9 -76 14 -113 14c-84 0 -121 -32 -121 -106c0 -19 4 -50 16 -68c15 -25 57 -65 117 -107c54 -38 86 -70 108 -102c19 -29 24 -60 24 -91c0 -101 -57 -144 -135 -156
c-3 -1 -4 -4 -4 -7v-85c0 -6 -4 -10 -10 -10h-26c-6 0 -10 4 -10 10v82c0 4 -2 7 -6 7z" />
    <glyph glyph-name="percent" unicode="%" horiz-adv-x="730" 
d="M143 10l388 660c3 5 8 10 14 10h21c6 0 10 -4 9 -10l-388 -660c-3 -5 -8 -10 -14 -10h-21c-6 0 -10 4 -9 10zM117 518c0 -48 8 -105 26 -124c10 -11 20 -12 43 -12s33 1 43 12c18 19 27 76 27 124c0 49 -9 108 -27 127c-10 11 -20 13 -43 13s-33 -2 -43 -13
c-18 -19 -26 -78 -26 -127zM299 518c0 -51 -12 -128 -41 -152c-17 -15 -37 -19 -72 -19s-55 5 -71 20c-30 25 -42 100 -42 151c0 52 12 128 42 154c16 14 36 18 71 18s55 -4 72 -18c29 -26 41 -102 41 -154zM460 161c0 -48 8 -105 26 -124c10 -11 20 -12 43 -12s33 1 43 12
c18 19 27 76 27 124c0 49 -9 108 -27 127c-10 11 -20 13 -43 13s-33 -2 -43 -13c-18 -19 -26 -78 -26 -127zM642 161c0 -51 -12 -128 -41 -152c-17 -15 -37 -19 -72 -19s-55 5 -71 20c-30 25 -42 100 -42 151c0 52 12 128 42 154c16 14 36 18 71 18s55 -4 72 -18
c29 -26 41 -102 41 -154z" />
    <glyph glyph-name="ampersand" unicode="&#x26;" horiz-adv-x="670" 
d="M410 154c0 3 -1 6 -8 12l-162 161c-5 5 -7 6 -11 6s-7 -1 -15 -5c-84 -46 -114 -80 -114 -169c0 -101 28 -130 134 -130c84 0 125 40 167 106c3 5 9 15 9 19zM370 542c0 79 -19 110 -103 110c-91 0 -115 -27 -115 -114c0 -47 5 -68 23 -91c19 -24 58 -63 70 -63
c16 0 80 38 104 68c13 16 21 42 21 90zM618 -6c-28 0 -50 11 -73 33l-95 91c-3 3 -9 4 -12 -1c-54 -85 -102 -127 -203 -127c-137 0 -183 31 -183 170c0 99 36 143 138 198c2 1 7 4 7 8c0 2 -1 3 -3 5c-57 52 -87 86 -87 166c0 120 50 153 154 153c112 0 153 -26 153 -145
c0 -89 -21 -126 -131 -186c-2 -1 -4 -4 -4 -7s1 -5 3 -7l138 -137c5 -5 8 -7 11 -7s5 2 9 9c11 20 55 132 75 197c3 9 6 10 13 10h33c7 0 6 -6 4 -12c-20 -55 -68 -174 -95 -228c-2 -4 -2 -7 -2 -9s1 -5 3 -7c112 -110 132 -125 153 -125c10 0 14 1 23 2c4 0 7 -2 7 -7v-23
c0 -6 -2 -8 -5 -9c-10 -3 -17 -5 -31 -5z" />
    <glyph glyph-name="quotesingle" unicode="'" horiz-adv-x="200" 
d="M107 469h-16c-6 0 -10 4 -10 10l-7 255c0 6 4 10 10 10h32c6 0 10 -4 10 -10l-9 -255c0 -6 -4 -10 -10 -10z" />
    <glyph glyph-name="parenleft" unicode="(" horiz-adv-x="360" 
d="M130 292c0 -270 23 -383 130 -425c3 -1 5 -4 4 -10l-3 -17c-1 -6 -4 -7 -9 -7c-11 0 -26 5 -47 17c-107 61 -121 222 -121 443c0 220 14 381 121 442c21 12 36 17 47 17c5 0 8 -1 9 -7l3 -17c1 -6 -1 -9 -4 -10c-107 -42 -130 -155 -130 -426z" />
    <glyph glyph-name="parenright" unicode=")" horiz-adv-x="360" 
d="M230 292c0 270 -23 383 -130 425c-3 1 -5 4 -4 10l3 17c1 6 4 7 9 7c11 0 26 -5 47 -17c107 -61 121 -222 121 -443c0 -220 -14 -381 -121 -442c-21 -12 -36 -17 -47 -17c-5 0 -8 1 -9 7l-3 17c-1 6 1 9 4 10c107 42 130 155 130 426z" />
    <glyph glyph-name="asterisk" unicode="*" horiz-adv-x="499" 
d="M264 312h-30c-6 0 -10 4 -10 10l5 127c0 6 4 10 10 10h20c6 0 10 -4 10 -10l5 -127c0 -6 -4 -10 -10 -10zM234 745h30c6 0 10 -4 10 -10l-5 -127c0 -6 -4 -10 -10 -10h-20c-6 0 -10 4 -10 10l-5 127c0 6 4 10 10 10zM445 435l-15 -26c-3 -5 -8 -7 -14 -4l-108 67
c-5 3 -7 8 -4 13l10 18c3 5 8 7 14 4l113 -58c5 -3 7 -9 4 -14zM53 621l14 26c3 6 9 7 14 4l108 -66c5 -3 7 -9 4 -14l-10 -17c-3 -6 -8 -7 -14 -4l-113 58c-5 3 -6 8 -3 13zM430 647l15 -26c3 -5 1 -11 -4 -14l-113 -58c-6 -3 -11 -1 -14 4l-10 18c-3 5 -1 10 4 13l108 67
c6 3 11 1 14 -4zM67 409l-14 26c-3 5 -2 10 3 13l113 58c6 3 11 2 14 -4l10 -17c3 -5 1 -11 -4 -14l-108 -66c-5 -3 -11 -2 -14 4z" />
    <glyph glyph-name="plus" unicode="+" 
d="M251 284v158c0 6 4 10 10 10h21c6 0 10 -4 10 -10v-158c0 -4 2 -6 6 -6h162c6 0 10 -4 10 -10v-20c0 -6 -4 -10 -10 -10h-162c-4 0 -6 -2 -6 -6v-177c0 -6 -4 -10 -10 -10h-21c-6 0 -10 4 -10 10v177c0 4 -2 6 -6 6h-165c-6 0 -10 4 -10 10v20c0 6 4 10 10 10h165
c4 0 6 2 6 6z" />
    <glyph glyph-name="comma" unicode="," horiz-adv-x="260" 
d="M99 -142h-15c-6 0 -10 4 -10 10l39 255c0 6 4 10 10 10h28c6 0 10 -4 10 -10l-52 -255c0 -6 -4 -10 -10 -10z" />
    <glyph glyph-name="hyphen" unicode="-" horiz-adv-x="360" 
d="M287 280h-214c-6 0 -10 4 -10 10v21c0 6 4 10 10 10h214c6 0 10 -4 10 -10v-21c0 -6 -4 -10 -10 -10z" />
    <glyph glyph-name="period" unicode="." horiz-adv-x="260" 
d="M154 0h-48c-6 0 -10 4 -10 10v57c0 6 4 10 10 10h48c6 0 10 -4 10 -10v-57c0 -6 -4 -10 -10 -10z" />
    <glyph glyph-name="slash" unicode="/" horiz-adv-x="380" 
d="M33 -99l271 817c2 7 5 11 8 11h30c5 0 7 -4 5 -11l-271 -817c-2 -6 -5 -11 -9 -11h-29c-4 0 -7 4 -5 11z" />
    <glyph glyph-name="zero" unicode="0" 
d="M120 340c0 -105 20 -236 58 -280c19 -22 40 -31 91 -31c53 0 74 9 93 31c38 44 58 175 58 280s-20 236 -58 280c-19 22 -40 31 -93 31c-51 0 -72 -9 -91 -31c-38 -44 -58 -175 -58 -280zM470 340c0 -105 -22 -253 -75 -310c-25 -27 -59 -40 -125 -40s-100 13 -125 40
c-53 57 -75 205 -75 310s22 253 75 310c25 27 59 40 125 40s100 -13 125 -40c53 -57 75 -205 75 -310z" />
    <glyph glyph-name="one" unicode="1" 
d="M265 48v585c-1 3 -3 5 -6 5l-141 -26c-6 0 -10 4 -10 10v22c0 6 4 8 10 10l125 23c6 2 14 3 20 3h40c6 0 10 -4 10 -10v-622c0 -4 2 -6 6 -6h122c6 0 10 -4 10 -10v-22c0 -6 -4 -10 -10 -10h-324c-6 0 -10 4 -10 10v22c0 6 4 10 10 10h142c4 0 6 2 6 6z" />
    <glyph glyph-name="two" unicode="2" 
d="M65 10v42c0 116 75 182 215 272c97 62 129 111 129 193c0 91 -44 130 -152 130c-41 0 -106 -8 -140 -17c-6 0 -9 1 -10 10l-3 21c0 6 4 9 10 10c41 12 104 19 150 19c138 0 195 -51 195 -173c0 -109 -43 -156 -155 -226c-142 -88 -190 -143 -190 -237c0 -7 1 -12 8 -12
h348c6 0 10 -4 10 -10v-22c0 -6 -4 -10 -10 -10h-390c-8 0 -15 2 -15 10z" />
    <glyph glyph-name="three" unicode="3" 
d="M235 32c122 0 161 44 161 163s-43 147 -199 147h-48c-6 0 -10 4 -10 10v20c0 7 2 11 11 19c77 73 194 197 223 232c5 6 6 8 6 11s-3 4 -6 4h-278c-6 0 -9 4 -9 10v22c0 6 4 10 10 10h327c5 0 10 -1 10 -7v-42c0 -6 -2 -10 -13 -22c-45 -50 -144 -153 -210 -217
c-2 -2 -3 -3 -3 -6s1 -4 5 -4c150 0 234 -24 234 -185c0 -179 -99 -207 -208 -207c-44 0 -113 6 -154 16c-4 1 -6 3 -6 8l4 28c0 3 3 7 8 6c33 -8 100 -16 145 -16z" />
    <glyph glyph-name="four" unicode="4" 
d="M57 196v30c0 7 0 14 8 32c18 39 141 277 211 412c4 7 7 10 13 10h33c6 0 10 -3 7 -11c-135 -250 -207 -388 -222 -425c-2 -5 -2 -8 -2 -10c0 -7 2 -8 7 -8h218c4 0 6 2 6 6v233c0 6 4 10 10 10h25c6 0 10 -4 10 -10v-233c0 -4 2 -6 6 -6h107c6 0 10 -4 10 -10v-20
c0 -6 -4 -10 -10 -10h-107c-4 0 -6 -2 -6 -6v-170c0 -6 -4 -10 -10 -10h-25c-6 0 -10 4 -10 10v170c0 4 -2 6 -6 6h-263c-6 0 -10 4 -10 10z" />
    <glyph glyph-name="five" unicode="5" 
d="M401 638h-225c-7 0 -9 -2 -10 -8l-10 -224c0 -5 2 -8 6 -8c196 0 275 -36 275 -183c0 -179 -75 -225 -228 -225c-37 0 -84 3 -125 13c-4 1 -6 3 -6 8l4 28c0 3 3 7 8 6c33 -8 79 -13 114 -13c133 0 184 32 184 178c0 124 -53 147 -236 147h-29c-11 0 -14 6 -14 18l12 292
c0 11 2 13 11 13h269c6 0 10 -4 10 -10v-22c0 -6 -4 -10 -10 -10z" />
    <glyph glyph-name="six" unicode="6" 
d="M417 196c0 148 -40 171 -148 171c-121 0 -149 -27 -149 -171s43 -166 149 -166c116 0 148 22 148 166zM160 398c0 -7 4 -7 8 -7c45 11 77 14 111 14c144 0 187 -53 187 -196c0 -178 -53 -219 -195 -219c-143 0 -200 46 -200 208c0 137 46 260 221 465c12 14 17 17 24 17
h37c5 0 9 -6 2 -13c-70 -69 -156 -185 -191 -257c-2 -4 -4 -9 -4 -12z" />
    <glyph glyph-name="seven" unicode="7" 
d="M435 603c-51 -137 -125 -240 -171 -379c-23 -68 -32 -127 -32 -212c0 -12 -4 -12 -11 -12h-22c-8 0 -15 2 -15 10v19c0 249 208 510 208 603c0 4 -2 6 -6 6h-293c-6 0 -10 4 -10 10v22c0 6 4 10 10 10h338c6 0 10 -4 10 -10v-34c0 -6 -1 -19 -6 -33z" />
    <glyph glyph-name="eight" unicode="8" 
d="M184 364c-52 26 -98 81 -98 162c0 123 56 164 184 164s184 -41 184 -164c0 -79 -44 -131 -96 -157c-2 -1 -5 -3 -5 -9c0 -5 4 -7 6 -8c80 -42 114 -88 114 -182c0 -139 -73 -180 -203 -180s-203 35 -203 174c0 98 37 144 116 183c4 2 6 4 6 9c0 6 -3 7 -5 8zM424 167
c0 124 -77 172 -153 172s-155 -48 -155 -173c0 -105 43 -138 156 -138s152 38 152 139zM405 527c0 90 -32 122 -133 122c-109 0 -137 -31 -137 -122c0 -84 49 -153 135 -153c84 0 135 68 135 153z" />
    <glyph glyph-name="nine" unicode="9" 
d="M119 484c0 -148 40 -171 148 -171c121 0 149 27 149 171s-43 166 -149 166c-116 0 -148 -22 -148 -166zM376 282c0 7 -4 7 -8 7c-45 -11 -77 -14 -111 -14c-144 0 -187 53 -187 196c0 178 53 219 195 219c143 0 200 -46 200 -208c0 -137 -46 -260 -221 -465
c-12 -14 -17 -17 -24 -17h-37c-5 0 -9 6 -2 13c70 69 156 185 191 257c2 4 4 9 4 12z" />
    <glyph glyph-name="colon" unicode=":" horiz-adv-x="300" 
d="M174 0h-48c-6 0 -10 4 -10 10v57c0 6 4 10 10 10h48c6 0 10 -4 10 -10v-57c0 -6 -4 -10 -10 -10zM174 458h-48c-6 0 -10 4 -10 10v57c0 6 4 10 10 10h48c6 0 10 -4 10 -10v-57c0 -6 -4 -10 -10 -10z" />
    <glyph glyph-name="semicolon" unicode=";" horiz-adv-x="300" 
d="M174 458h-48c-6 0 -10 4 -10 10v57c0 6 4 10 10 10h48c6 0 10 -4 10 -10v-57c0 -6 -4 -10 -10 -10zM119 -142h-15c-6 0 -10 4 -10 10l39 255c0 6 4 10 10 10h28c6 0 10 -4 10 -10l-52 -255c0 -6 -4 -10 -10 -10z" />
    <glyph glyph-name="less" unicode="&#x3c;" 
d="M460 425v-14c0 -12 -5 -17 -14 -20l-313 -129c-8 -3 -9 -5 -9 -12c0 -5 1 -7 9 -10l313 -129c8 -3 14 -8 14 -20v-14c0 -6 -4 -10 -10 -10l-360 152c-6 4 -10 9 -10 15v32c0 6 4 11 10 15l360 154c6 0 10 -4 10 -10z" />
    <glyph glyph-name="equal" unicode="=" 
d="M80 348h380c6 0 10 -4 10 -10v-20c0 -6 -4 -10 -10 -10h-380c-6 0 -10 4 -10 10v20c0 6 4 10 10 10zM80 190h380c6 0 10 -4 10 -10v-20c0 -6 -4 -10 -10 -10h-380c-6 0 -10 4 -10 10v20c0 6 4 10 10 10z" />
    <glyph glyph-name="greater" unicode="&#x3e;" 
d="M80 77v14c0 12 5 17 14 20l313 129c8 3 9 5 9 12c0 5 -1 7 -9 10l-313 129c-8 3 -14 8 -14 20v14c0 6 4 10 10 10l360 -152c6 -4 10 -9 10 -15v-32c0 -6 -4 -11 -10 -15l-360 -154c-6 0 -10 4 -10 10z" />
    <glyph glyph-name="question" unicode="?" horiz-adv-x="407" 
d="M66 631c-5 -1 -8 1 -9 8l-3 21c0 6 4 10 10 11c35 11 86 19 132 19c106 0 178 -27 178 -149c0 -103 -41 -130 -123 -173c-77 -40 -81 -60 -81 -160c0 -14 0 -18 -7 -18h-28c-6 0 -8 7 -8 23c0 99 11 142 84 178c100 49 115 75 115 148c0 70 -26 109 -137 109
c-38 0 -82 -5 -123 -17zM176 0h-48c-6 0 -10 4 -10 10v57c0 6 4 10 10 10h48c6 0 10 -4 10 -10v-57c0 -6 -4 -10 -10 -10z" />
    <glyph glyph-name="at" unicode="@" horiz-adv-x="835" 
d="M462 104l62 349c2 12 3 20 3 26c0 9 -14 13 -61 13c-74 0 -114 -27 -147 -208c-5 -26 -9 -64 -9 -87c0 -67 9 -103 109 -103c36 0 42 5 43 10zM765 400c0 -208 -41 -343 -251 -343c-41 0 -45 19 -52 19c-11 0 -21 -19 -69 -19c-94 0 -129 43 -129 139c0 27 4 60 10 95
c36 188 79 236 194 236c59 0 111 -10 111 -25c0 -4 -1 -11 -2 -15l-68 -360c-2 -9 -3 -16 -3 -22c0 -9 6 -11 15 -11c159 0 201 90 201 304c0 189 -67 257 -237 257c-292 0 -359 -192 -359 -437c0 -199 83 -310 334 -310c83 0 141 11 166 18c9 3 12 3 13 -1l3 -27
c1 -4 0 -7 -4 -8c-40 -12 -113 -22 -188 -22c-261 0 -372 118 -372 352c0 243 73 474 409 474c169 0 278 -55 278 -294z" />
    <glyph glyph-name="A" unicode="A" horiz-adv-x="508" 
d="M393 192c-1 5 -3 7 -8 7h-260c-5 0 -8 -1 -10 -7c-14 -46 -38 -132 -51 -182c-3 -8 -7 -10 -13 -10h-30c-6 0 -9 4 -7 10c33 120 154 526 198 660c2 6 6 10 12 10h71c7 0 10 -4 12 -10c44 -149 165 -572 187 -660c2 -6 -1 -10 -7 -10h-34c-5 0 -9 1 -11 10
c-12 50 -35 136 -49 182zM139 239h231c7 0 9 2 9 8c-16 65 -74 279 -104 383c-2 6 -3 7 -17 7c-13 0 -15 -1 -17 -7c-31 -102 -92 -314 -111 -383c0 -6 2 -8 9 -8z" />
    <glyph glyph-name="B" unicode="B" horiz-adv-x="559" 
d="M110 680h165c119 0 192 -49 192 -166c0 -92 -55 -134 -88 -151c-10 -5 -12 -7 -12 -12c0 -4 3 -6 9 -9c42 -19 105 -57 105 -159c0 -132 -100 -183 -197 -183h-174c-6 0 -10 4 -10 10v660c0 6 4 10 10 10zM157 367h93c88 0 169 36 169 146c0 96 -63 125 -152 125h-110
c-6 0 -9 -4 -9 -8v-254c0 -8 3 -9 9 -9zM158 42h117c89 0 157 35 157 143c0 113 -86 143 -178 143h-97c-6 0 -9 -2 -9 -9v-267c0 -7 3 -10 10 -10z" />
    <glyph glyph-name="C" unicode="C" horiz-adv-x="480" 
d="M441 7c-32 -10 -81 -17 -130 -17c-176 0 -238 123 -238 345c0 218 67 355 243 355c58 0 97 -8 122 -17c4 -2 5 -3 5 -9l-3 -29c0 -3 -3 -7 -8 -5c-24 9 -69 17 -110 17c-158 0 -199 -115 -199 -312c0 -189 37 -302 199 -302c35 0 84 7 109 14c5 1 12 2 13 -4l1 -25
c1 -6 -1 -10 -4 -11z" />
    <glyph glyph-name="D" unicode="D" horiz-adv-x="617" 
d="M496 345c0 178 -37 293 -205 293h-137c-4 0 -6 -2 -6 -6v-584c0 -5 1 -6 5 -6h139c162 0 204 121 204 303zM110 680h187c204 0 249 -145 249 -335s-50 -345 -249 -345h-187c-6 0 -10 4 -10 10v660c0 6 4 10 10 10z" />
    <glyph glyph-name="E" unicode="E" horiz-adv-x="465" 
d="M100 10v660c0 6 4 10 10 10h278c6 0 10 -4 10 -10v-22c0 -6 -4 -10 -10 -10h-234c-4 0 -6 -2 -6 -6v-252c0 -4 2 -6 6 -6h221c6 0 10 -4 10 -10v-20c0 -6 -4 -10 -10 -10h-221c-4 0 -6 -2 -6 -6v-280c0 -4 2 -6 6 -6h252c6 0 10 -4 10 -10v-22c0 -6 -4 -10 -10 -10h-296
c-6 0 -10 4 -10 10z" />
    <glyph glyph-name="F" unicode="F" horiz-adv-x="436" 
d="M100 10v660c0 6 4 10 10 10h278c6 0 10 -4 10 -10v-22c0 -6 -4 -10 -10 -10h-234c-4 0 -6 -2 -6 -6v-252c0 -4 2 -6 6 -6h221c6 0 10 -4 10 -10v-20c0 -6 -4 -10 -10 -10h-221c-4 0 -6 -2 -6 -6v-318c0 -6 -4 -10 -10 -10h-28c-6 0 -10 4 -10 10z" />
    <glyph glyph-name="G" unicode="G" horiz-adv-x="573" 
d="M327 31c44 0 82 4 104 12c6 2 6 4 6 8v262c0 4 -2 6 -6 6h-122c-6 0 -10 4 -10 10v20c0 6 4 10 10 10h166c6 0 10 -4 10 -10v-325c0 -5 -1 -8 -6 -10c-29 -13 -74 -24 -153 -24c-203 0 -253 133 -253 345c0 218 73 355 252 355c58 0 111 -8 146 -17c4 -1 5 -3 5 -9
l-4 -29c0 -3 -3 -6 -8 -5c-34 9 -91 17 -132 17c-161 0 -209 -116 -209 -313c0 -185 40 -303 204 -303z" />
    <glyph glyph-name="H" unicode="H" horiz-adv-x="603" 
d="M455 379v291c0 6 4 10 10 10h28c6 0 10 -4 10 -10v-660c0 -6 -4 -10 -10 -10h-28c-6 0 -10 4 -10 10v318c0 4 -2 6 -6 6h-295c-4 0 -6 -2 -6 -6v-318c0 -6 -4 -10 -10 -10h-28c-6 0 -10 4 -10 10v660c0 6 4 10 10 10h28c6 0 10 -4 10 -10v-291c0 -4 2 -6 6 -6h295
c4 0 6 2 6 6z" />
    <glyph glyph-name="I" unicode="I" horiz-adv-x="248" 
d="M138 0h-28c-6 0 -10 4 -10 10v660c0 6 4 10 10 10h28c6 0 10 -4 10 -10v-660c0 -6 -4 -10 -10 -10z" />
    <glyph glyph-name="J" unicode="J" horiz-adv-x="313" 
d="M169 170v500c0 6 4 10 10 10h28c6 0 10 -4 10 -10v-503c0 -133 -32 -177 -125 -177c-22 0 -52 4 -60 7c-6 2 -8 7 -7 13l3 22c2 7 6 7 12 6c12 -2 32 -5 48 -5c61 0 81 14 81 137z" />
    <glyph glyph-name="K" unicode="K" horiz-adv-x="506" 
d="M160 334c-9 0 -12 -2 -12 -6v-318c0 -6 -4 -10 -10 -10h-28c-6 0 -10 4 -10 10v660c0 6 4 10 10 10h28c6 0 10 -4 10 -10v-289c0 -4 3 -6 12 -6c14 0 18 3 22 8c54 65 190 234 229 287c3 4 7 10 14 10h41c7 0 10 -4 6 -10c-47 -58 -184 -223 -239 -289
c-10 -12 -12 -17 -12 -25s5 -14 13 -24c60 -73 217 -268 255 -321c3 -7 -3 -11 -9 -11h-37c-8 0 -14 6 -16 9c-36 52 -160 211 -242 312c-9 12 -13 13 -25 13z" />
    <glyph glyph-name="L" unicode="L" horiz-adv-x="400" 
d="M100 10v660c0 6 4 10 10 10h28c6 0 10 -4 10 -10v-622c0 -4 2 -6 6 -6h212c6 0 10 -4 10 -10v-22c0 -6 -4 -10 -10 -10h-256c-6 0 -10 4 -10 10z" />
    <glyph glyph-name="M" unicode="M" horiz-adv-x="733" 
d="M191 670l175 -451c1 -2 2 -3 4 -3s3 1 4 3l168 451c3 7 8 10 14 10h67c6 0 10 -4 10 -10v-660c0 -6 -4 -10 -10 -10h-28c-6 0 -10 4 -10 10v617c0 9 0 11 -4 11c-5 0 -6 -1 -11 -14l-173 -454c-3 -9 -8 -11 -18 -11h-22c-9 0 -13 3 -17 11l-179 460c-3 7 -4 8 -10 8
c-5 0 -6 -2 -6 -10v-618c0 -6 -4 -10 -10 -10h-25c-6 0 -10 4 -10 10v660c0 6 4 10 10 10h66c7 0 12 -3 15 -10z" />
    <glyph glyph-name="N" unicode="N" horiz-adv-x="619" 
d="M509 0h-69c-9 0 -11 5 -15 15l-261 615c-3 6 -4 8 -10 8c-7 0 -7 -3 -7 -7v-621c0 -6 -4 -10 -10 -10h-27c-6 0 -10 4 -10 10v660c0 6 4 10 10 10h75c7 0 11 -3 14 -12l256 -609c5 -11 6 -12 11 -12s6 2 6 6v617c0 6 4 10 10 10h27c6 0 10 -4 10 -10v-660
c0 -6 -4 -10 -10 -10z" />
    <glyph glyph-name="O" unicode="O" horiz-adv-x="616" 
d="M123 339c0 -119 19 -233 54 -271c26 -28 50 -35 131 -35c83 0 108 7 134 35c35 38 52 152 52 271c0 120 -17 234 -52 272c-26 28 -51 35 -132 35c-83 0 -107 -7 -133 -35c-35 -38 -54 -152 -54 -272zM543 340c0 -127 -17 -240 -58 -292c-40 -50 -86 -58 -177 -58
c-92 0 -135 7 -175 57c-41 52 -60 166 -60 293s19 235 60 287c40 50 86 63 177 63c92 0 136 -13 176 -63c41 -52 57 -160 57 -287z" />
    <glyph glyph-name="P" unicode="P" horiz-adv-x="521" 
d="M110 680h165c120 0 186 -57 186 -190c0 -143 -74 -202 -203 -202h-104c-4 0 -6 -2 -6 -6v-272c0 -6 -4 -10 -10 -10h-28c-6 0 -10 4 -10 10v660c0 6 4 10 10 10zM154 329h102c97 0 156 39 156 159c0 117 -56 152 -156 152h-102c-4 0 -6 -2 -6 -6v-299c0 -4 2 -6 6 -6z
" />
    <glyph glyph-name="Q" unicode="Q" horiz-adv-x="616" 
d="M543 340c0 -127 -17 -240 -58 -292c-36 -45 -77 -56 -150 -58c-8 0 -10 -3 -10 -12c0 -83 17 -119 90 -119h43c5 0 7 -1 7 -7l-3 -21c-1 -4 -5 -7 -11 -8c-9 -2 -38 -3 -61 -3c-97 0 -111 74 -111 158c0 9 -1 12 -11 12c-65 2 -102 15 -135 57c-41 52 -60 166 -60 293
s19 235 60 287c40 50 86 63 177 63c92 0 136 -13 176 -63c41 -52 57 -160 57 -287zM123 339c0 -119 19 -233 54 -271c26 -28 50 -35 131 -35c83 0 108 7 134 35c35 38 52 152 52 271c0 120 -17 234 -52 272c-26 28 -51 35 -132 35c-83 0 -107 -7 -133 -35
c-35 -38 -54 -152 -54 -272z" />
    <glyph glyph-name="R" unicode="R" horiz-adv-x="526" 
d="M451 9l-168 279c-2 3 -5 5 -10 5h-119c-4 0 -6 -2 -6 -6v-277c0 -6 -4 -10 -10 -10h-28c-6 0 -10 4 -10 10v660c0 6 4 10 10 10h152c144 0 197 -67 197 -189c0 -91 -46 -150 -125 -181c-2 -1 -6 -6 -4 -9l178 -290c4 -6 1 -11 -5 -11h-40c-6 0 -8 3 -12 9zM256 333
c97 0 154 72 154 158c0 103 -45 149 -156 149h-100c-4 0 -6 -2 -6 -6v-295c0 -4 2 -6 6 -6h102z" />
    <glyph glyph-name="S" unicode="S" horiz-adv-x="423" 
d="M232 643c-86 0 -124 -33 -124 -109c0 -19 4 -51 16 -70c16 -25 59 -66 120 -109c56 -39 89 -72 111 -105c20 -30 25 -62 25 -94c0 -123 -82 -163 -187 -163c-47 0 -99 6 -148 18c-4 1 -5 3 -5 9l4 29c0 3 3 6 8 5c51 -11 90 -18 141 -18c81 0 140 30 140 120
c0 28 -2 47 -16 69c-15 24 -51 58 -112 101c-56 39 -105 83 -124 115c-18 31 -23 63 -23 90c0 126 84 155 178 155c47 0 89 -5 119 -14c4 -1 5 -3 5 -9l-4 -29c0 -3 -3 -7 -8 -5c-30 9 -78 14 -116 14z" />
    <glyph glyph-name="T" unicode="T" horiz-adv-x="403" 
d="M178 10v622c0 4 -2 6 -6 6h-142c-6 0 -10 4 -10 10v22c0 6 4 10 10 10h344c6 0 10 -4 10 -10v-22c0 -6 -4 -10 -10 -10h-142c-4 0 -6 -2 -6 -6v-622c0 -6 -4 -10 -10 -10h-28c-6 0 -10 4 -10 10z" />
    <glyph glyph-name="U" unicode="U" horiz-adv-x="593" 
d="M503 670v-514c0 -100 -70 -165 -213 -165c-134 0 -200 65 -200 165v514c0 6 4 10 10 10h28c6 0 10 -4 10 -10v-507c0 -101 57 -130 153 -130s164 29 164 131v506c0 6 4 10 10 10h28c6 0 10 -4 10 -10z" />
    <glyph glyph-name="V" unicode="V" horiz-adv-x="483" 
d="M33 680h30c6 0 8 -3 10 -10c34 -147 129 -501 162 -619c2 -6 4 -9 10 -9c5 0 7 2 9 9c32 118 126 472 159 619c2 8 7 10 14 10h22c6 0 10 -4 10 -10c-8 -44 -111 -440 -172 -660c-3 -9 -8 -10 -17 -10h-58c-7 1 -10 4 -12 10c-63 220 -169 617 -176 660c0 5 3 10 9 10z
" />
    <glyph glyph-name="W" unicode="W" horiz-adv-x="821" 
d="M454 650c29 -155 109 -493 134 -593c3 -11 5 -15 11 -15c7 0 8 3 11 15c27 101 100 486 119 613c1 8 7 10 14 10h27c6 0 7 -5 7 -10c-15 -91 -92 -492 -134 -658c-2 -9 -6 -12 -14 -12h-62c-7 0 -10 4 -12 10c-20 74 -103 431 -135 591c-2 8 -4 12 -9 12s-7 -4 -9 -12
c-34 -160 -120 -517 -143 -590c-3 -9 -5 -11 -13 -11h-59c-7 0 -11 4 -12 10c-38 168 -125 608 -131 661c0 7 2 9 9 9h31c6 0 7 -3 8 -10c18 -127 94 -514 117 -614c2 -9 3 -14 10 -14c6 0 7 2 11 15c26 97 109 438 141 593c1 6 4 10 10 10h63c6 0 9 -4 10 -10z" />
    <glyph glyph-name="X" unicode="X" horiz-adv-x="490" 
d="M243 316c-3 0 -8 -2 -10 -6c-37 -70 -132 -253 -153 -301c-1 -3 -5 -9 -10 -9h-32c-5 0 -7 4 -7 11c18 41 127 248 169 323c7 12 8 18 8 24s-1 11 -9 24c-50 82 -143 257 -158 289c0 6 1 9 7 9h35c5 0 9 -5 11 -10c24 -53 108 -211 141 -268c3 -5 6 -7 12 -7
c5 0 7 2 10 7c30 55 112 215 136 268c2 4 5 10 11 10h34c6 0 7 -4 7 -10c-29 -58 -113 -215 -154 -288c-9 -16 -10 -18 -10 -24s3 -14 9 -24c42 -73 155 -282 173 -323c0 -7 -2 -11 -7 -11h-32c-7 0 -13 6 -14 9c-22 52 -116 231 -155 301c-2 4 -6 6 -12 6z" />
    <glyph glyph-name="Y" unicode="Y" horiz-adv-x="450" 
d="M396 669c4 8 6 11 13 11h32c6 0 7 -4 5 -10c-41 -93 -118 -254 -164 -337c-28 -50 -35 -60 -35 -75v-248c0 -6 -4 -10 -10 -10h-28c-6 0 -10 4 -10 10v249c0 15 -8 29 -33 74c-45 80 -148 293 -162 337c-2 6 1 10 7 10h29c7 0 11 -3 14 -11c31 -74 121 -269 155 -330
c8 -14 9 -15 16 -15s8 1 16 15c36 66 123 252 155 330z" />
    <glyph glyph-name="Z" unicode="Z" horiz-adv-x="444" 
d="M390 0h-355c-6 0 -10 4 -10 10v40c0 6 2 12 14 34l298 522c7 12 8 18 8 23c0 7 -3 9 -10 9h-261c-6 0 -10 4 -10 10v22c0 6 4 10 10 10h316c6 0 10 -4 10 -10v-27c0 -6 0 -19 -9 -34l-308 -542c-2 -4 -3 -9 -3 -15s2 -8 5 -8h306c6 0 10 -4 10 -10v-24
c0 -6 -4 -10 -11 -10z" />
    <glyph glyph-name="bracketleft" unicode="[" horiz-adv-x="360" 
d="M97 -154v896c0 6 4 10 10 10h164c6 0 10 -4 10 -10v-20c0 -6 -4 -10 -10 -10h-122c-4 0 -6 -2 -6 -6v-824c0 -4 2 -6 6 -6h122c6 0 10 -4 10 -10v-20c0 -6 -4 -10 -10 -10h-164c-6 0 -10 4 -10 10z" />
    <glyph glyph-name="backslash" unicode="\" horiz-adv-x="380" 
d="M76 718l271 -817c1 -7 -1 -11 -5 -11h-31c-3 0 -6 5 -7 11l-271 817c-1 7 1 11 5 11h31c3 0 6 -5 7 -11z" />
    <glyph glyph-name="bracketright" unicode="]" horiz-adv-x="360" 
d="M263 742v-896c0 -6 -4 -10 -10 -10h-164c-6 0 -10 4 -10 10v20c0 6 4 10 10 10h122c4 0 6 2 6 6v824c0 4 -2 6 -6 6h-122c-6 0 -10 4 -10 10v20c0 6 4 10 10 10h164c6 0 10 -4 10 -10z" />
    <glyph glyph-name="asciicircum" unicode="^" 
d="M94 265l156 432h38l157 -432h-48c-43 121 -90 243 -127 374h-2c-37 -130 -83 -250 -126 -374h-48z" />
    <glyph glyph-name="underscore" unicode="_" horiz-adv-x="500" 
d="M0 -85h500v-40h-500v40z" />
    <glyph glyph-name="grave" unicode="`" horiz-adv-x="500" 
d="M296 610h-17c-9 0 -12 2 -21 16l-110 176c0 6 4 10 10 10h27c6 0 11 -4 15 -10l103 -186c2 -3 -1 -6 -7 -6z" />
    <glyph glyph-name="a" unicode="a" horiz-adv-x="527" 
d="M262 506c-49 0 -102 -7 -134 -15c-6 -1 -9 1 -10 7l-4 18c-1 6 0 9 6 11c38 11 92 18 144 18c124 0 164 -46 164 -163v-362c0 -7 -1 -14 -11 -17c-33 -9 -85 -13 -137 -13c-160 0 -206 39 -206 148c0 95 19 145 162 155l143 10c4 1 6 4 6 8v57c0 102 -25 138 -123 138z
M385 42v211c0 4 -2 6 -6 6h-129c-106 0 -131 -33 -131 -116c0 -89 35 -116 161 -116c34 0 79 2 94 6c9 2 11 4 11 9z" />
    <glyph glyph-name="b" unicode="b" horiz-adv-x="551" 
d="M261 506c-47 0 -87 -5 -111 -11c-8 -2 -9 -7 -9 -17v-428c0 -6 2 -9 12 -11c24 -5 66 -10 105 -10c131 0 172 74 172 241c0 169 -34 236 -169 236zM257 -10c-54 0 -108 8 -152 17c-7 2 -10 4 -10 10v708c0 6 4 10 10 10h26c6 0 10 -4 10 -10v-181c0 -6 1 -9 5 -9
c16 0 55 10 118 10c162 0 214 -78 214 -275c0 -173 -45 -280 -221 -280z" />
    <glyph glyph-name="c" unicode="c" horiz-adv-x="421" 
d="M381 4c-26 -8 -56 -14 -95 -14c-155 0 -213 96 -213 274c0 174 59 281 217 281c37 0 69 -5 89 -13c3 -1 4 -2 4 -7l-4 -27c0 -3 -2 -6 -6 -4c-19 7 -49 12 -82 12c-126 0 -170 -86 -170 -243c0 -148 42 -233 166 -233c28 0 63 7 86 15c4 1 6 1 7 -4l4 -29
c1 -4 0 -7 -3 -8z" />
    <glyph glyph-name="d" unicode="d" horiz-adv-x="551" 
d="M300 -10c-186 0 -227 97 -227 270c0 197 49 285 230 285c31 0 72 -5 101 -10c4 -1 6 1 6 7v183c0 6 4 10 10 10h26c6 0 10 -4 10 -10v-710c0 -6 -2 -8 -10 -10c-45 -10 -92 -15 -146 -15zM410 58v421c0 10 0 14 -8 16c-24 5 -65 11 -100 11c-149 0 -181 -70 -181 -246
c0 -167 42 -230 179 -230c47 0 77 5 101 11c8 2 9 7 9 17z" />
    <glyph glyph-name="e" unicode="e" horiz-adv-x="529" 
d="M312 -10c-204 0 -239 126 -239 279c0 157 42 276 206 276c166 0 190 -93 190 -226v-15c0 -39 -9 -41 -26 -41h-317c-5 0 -6 -2 -6 -7c0 -154 45 -226 200 -226c44 0 90 10 121 23c6 3 13 2 14 -5l3 -19c1 -6 -1 -10 -7 -13c-39 -17 -87 -26 -139 -26zM126 300h287
c9 0 12 2 12 36c0 110 -28 172 -146 172c-132 0 -159 -103 -159 -201c0 -4 1 -7 6 -7z" />
    <glyph glyph-name="f" unicode="f" horiz-adv-x="302" 
d="M170 587v-46c0 -4 2 -6 6 -6h91c6 0 10 -4 10 -10v-18c0 -6 -4 -10 -10 -10h-91c-4 0 -6 -2 -6 -6v-481c0 -6 -4 -10 -10 -10h-26c-6 0 -10 4 -10 10v481c0 4 -2 6 -6 6h-83c-6 0 -10 4 -10 10v18c0 6 4 10 10 10h83c4 0 6 2 6 6v49c0 80 15 145 114 145
c33 0 60 -5 67 -7c6 -2 8 -7 7 -13l-4 -16c-2 -7 -6 -7 -12 -6c-13 3 -33 6 -58 6c-59 0 -68 -28 -68 -112z" />
    <glyph glyph-name="g" unicode="g" horiz-adv-x="551" 
d="M459 518v-511c0 -153 -65 -187 -192 -187c-53 0 -121 6 -157 19c-6 2 -8 7 -7 13l3 20c2 7 9 7 15 5c32 -11 94 -18 140 -18c130 0 152 37 152 173c0 5 -2 7 -7 6c-27 -5 -83 -10 -110 -10c-164 0 -220 71 -220 255c0 180 55 262 224 262c48 0 98 -7 149 -17
c6 -1 10 -4 10 -10zM293 67c47 0 87 5 111 11c8 2 9 7 9 17v390c0 6 -2 9 -12 11c-24 5 -66 10 -105 10c-131 0 -172 -60 -172 -217c0 -159 34 -222 169 -222z" />
    <glyph glyph-name="h" unicode="h" horiz-adv-x="556" 
d="M95 10v715c0 6 4 10 10 10h26c6 0 10 -4 10 -10v-181c0 -6 1 -9 7 -9c48 7 88 10 125 10c137 0 193 -38 193 -162v-373c0 -6 -4 -10 -10 -10h-26c-6 0 -10 4 -10 10v366c0 95 -32 130 -149 130c-48 0 -89 -4 -120 -11c-7 -2 -10 -4 -10 -11v-474c0 -6 -4 -10 -10 -10h-26
c-6 0 -10 4 -10 10z" />
    <glyph glyph-name="i" unicode="i" horiz-adv-x="259" 
d="M143 0h-27c-6 0 -10 4 -10 10v515c0 6 4 10 10 10h27c6 0 10 -4 10 -10v-515c0 -6 -4 -10 -10 -10zM150 659h-40c-6 0 -10 4 -10 10v45c0 6 4 10 10 10h40c6 0 10 -4 10 -10v-45c0 -6 -4 -10 -10 -10z" />
    <glyph glyph-name="j" unicode="j" horiz-adv-x="259" 
d="M154 525v-554c0 -119 -42 -151 -123 -151c-29 0 -60 5 -67 7c-6 2 -8 7 -7 13l2 19c2 7 6 7 12 6c12 -2 34 -5 50 -5c61 0 86 6 86 111v554c0 6 4 10 10 10h27c6 0 10 -4 10 -10zM151 659h-40c-6 0 -10 4 -10 10v45c0 6 4 10 10 10h40c6 0 10 -4 10 -10v-45
c0 -6 -4 -10 -10 -10z" />
    <glyph glyph-name="k" unicode="k" horiz-adv-x="458" 
d="M157 312c14 0 19 4 25 10c67 69 148 159 186 205c4 5 8 8 18 8h33c6 0 7 -2 7 -7c-39 -47 -145 -157 -200 -214c-9 -10 -14 -16 -14 -21s6 -13 13 -21c46 -52 194 -232 218 -264c0 -6 -3 -8 -8 -8h-34c-9 0 -15 5 -16 7c-39 51 -168 214 -208 259c-3 3 -6 5 -20 5
c-18 0 -19 -2 -19 -9v-252c0 -6 -4 -10 -10 -10h-26c-6 0 -10 4 -10 10v715c0 6 2 10 8 10h30c6 0 8 -4 8 -10v-403c0 -6 1 -10 19 -10z" />
    <glyph glyph-name="l" unicode="l" horiz-adv-x="267" 
d="M139 725v-589c0 -93 6 -107 57 -107h39c6 0 8 -1 8 -6v-16c0 -6 -3 -9 -9 -10c-13 -3 -30 -5 -52 -5c-78 0 -89 38 -89 141v592c0 6 4 10 10 10h26c6 0 10 -4 10 -10z" />
    <glyph glyph-name="m" unicode="m" horiz-adv-x="818" 
d="M431 481v-471c0 -6 -4 -10 -10 -10h-26c-6 0 -10 4 -10 10v427c0 52 -28 69 -120 69c-33 0 -85 -4 -114 -11c-7 -2 -10 -4 -10 -11v-474c0 -6 -4 -10 -10 -10h-26c-6 0 -10 4 -10 10v507c0 6 2 10 9 11c32 7 106 17 161 17c61 0 104 -5 133 -26c2 -1 5 -1 7 0
c50 19 97 26 133 26c124 0 190 -39 190 -136v-399c0 -6 -4 -10 -10 -10h-26c-6 0 -10 4 -10 10v393c0 81 -65 103 -144 103c-29 0 -65 -4 -94 -12c-10 -3 -13 -6 -13 -13z" />
    <glyph glyph-name="n" unicode="n" horiz-adv-x="556" 
d="M273 545c137 0 193 -38 193 -162v-373c0 -6 -4 -10 -10 -10h-26c-6 0 -10 4 -10 10v366c0 95 -32 130 -149 130c-48 0 -98 -6 -120 -11c-7 -2 -10 -4 -10 -11v-474c0 -6 -4 -10 -10 -10h-26c-6 0 -10 4 -10 10v508c0 6 3 9 9 10c54 12 120 17 169 17z" />
    <glyph glyph-name="o" unicode="o" horiz-adv-x="570" 
d="M119 270c0 -95 18 -175 52 -208c22 -21 40 -30 112 -30c76 0 95 9 117 30c34 33 52 113 52 208c0 98 -17 172 -51 205c-22 21 -42 31 -115 31c-75 0 -94 -10 -116 -31c-34 -33 -51 -107 -51 -205zM497 272c0 -100 -20 -189 -56 -231c-34 -38 -79 -51 -158 -51
c-80 0 -120 13 -154 51c-36 42 -56 131 -56 231c0 101 19 180 56 221c34 39 78 52 156 52c80 0 123 -14 157 -52c36 -42 55 -120 55 -221z" />
    <glyph glyph-name="p" unicode="p" horiz-adv-x="551" 
d="M251 545c186 0 227 -77 227 -250c0 -197 -49 -295 -230 -295c-31 0 -72 5 -101 10c-4 1 -6 -1 -6 -7v-173c0 -6 -4 -10 -10 -10h-26c-6 0 -10 4 -10 10v688c0 6 2 9 9 10c46 9 93 17 147 17zM141 479v-413c0 -10 0 -14 8 -16c24 -5 65 -11 100 -11c149 0 181 80 181 256
c0 167 -42 211 -179 211c-47 0 -77 -4 -101 -10c-8 -2 -9 -7 -9 -17z" />
    <glyph glyph-name="q" unicode="q" horiz-adv-x="551" 
d="M293 39c47 0 87 5 111 11c8 2 9 7 9 17v418c0 6 -2 9 -12 11c-24 5 -66 10 -105 10c-131 0 -172 -64 -172 -231c0 -169 34 -236 169 -236zM297 545c54 0 108 -8 152 -17c7 -2 10 -4 10 -10v-688c0 -6 -4 -10 -10 -10h-26c-6 0 -10 4 -10 10v170c0 6 -1 9 -5 9
c-16 0 -55 -9 -118 -9c-162 0 -214 85 -214 275c0 173 45 270 221 270z" />
    <glyph glyph-name="r" unicode="r" horiz-adv-x="326" 
d="M95 518c0 6 4 9 10 10c54 12 98 17 135 17c32 0 46 -1 68 -5c3 -1 6 -2 5 -7l-5 -29c-1 -5 -3 -6 -7 -5c-19 4 -42 7 -65 7c-24 0 -58 -3 -85 -9c-7 -2 -10 -4 -10 -11v-476c0 -6 -4 -10 -10 -10h-26c-6 0 -10 4 -10 10v508z" />
    <glyph glyph-name="s" unicode="s" horiz-adv-x="392" 
d="M170 -10c-47 0 -80 4 -111 10c-3 1 -4 2 -4 7l4 30c0 3 2 5 6 4c35 -7 67 -11 100 -11c81 0 125 15 125 86c0 59 -17 77 -106 143c-88 65 -120 92 -120 166c0 79 55 120 152 120c47 0 78 -3 105 -8c3 -1 4 -2 4 -7l-4 -29c0 -3 -2 -5 -6 -4c-26 5 -56 9 -89 9
c-65 0 -116 -16 -116 -78c0 -61 27 -81 97 -132c85 -62 128 -92 128 -181c0 -85 -48 -125 -165 -125z" />
    <glyph glyph-name="t" unicode="t" horiz-adv-x="297" 
d="M261 -2c-13 -3 -36 -6 -58 -6c-78 0 -85 45 -85 98v401c0 4 -2 6 -6 6h-83c-6 0 -10 4 -10 10v18c0 6 4 10 10 10h83c4 0 6 2 6 6v125c0 6 4 10 10 10h26c6 0 10 -4 10 -10v-125c0 -4 2 -6 6 -6h93c6 0 10 -4 10 -10v-18c0 -6 -4 -10 -10 -10h-93c-4 0 -6 -2 -6 -6v-387
c0 -63 6 -75 57 -75h39c6 0 9 -1 9 -7v-14c0 -6 -2 -9 -8 -10z" />
    <glyph glyph-name="u" unicode="u" horiz-adv-x="556" 
d="M283 -10c-137 0 -193 38 -193 162v373c0 6 4 10 10 10h26c6 0 10 -4 10 -10v-366c0 -95 32 -130 149 -130c48 0 98 6 120 11c7 2 10 4 10 11v474c0 6 4 10 10 10h26c6 0 10 -4 10 -10v-507c0 -6 -4 -10 -10 -10c-54 -12 -119 -18 -168 -18z" />
    <glyph glyph-name="v" unicode="v" horiz-adv-x="455" 
d="M267 7c-3 -7 -8 -7 -12 -7h-59c-4 2 -5 4 -6 7c-39 109 -147 457 -163 519c0 6 2 9 9 9h30c6 0 8 -4 9 -9c33 -127 112 -382 146 -480c1 -5 4 -6 9 -6c7 0 8 1 10 6c34 98 111 353 143 480c1 6 6 9 13 9h25c6 0 8 -4 8 -9c-15 -65 -122 -410 -162 -519z" />
    <glyph glyph-name="w" unicode="w" horiz-adv-x="798" 
d="M621 8c-2 -5 -4 -8 -8 -8h-63c-4 0 -7 2 -9 8c-29 90 -99 343 -133 477c-1 5 -4 6 -8 6c-5 0 -7 -1 -8 -6c-37 -134 -109 -377 -141 -477c-2 -7 -7 -8 -12 -8h-59c-4 0 -8 4 -9 8c-33 103 -121 448 -137 518c0 6 2 9 7 9h34c5 0 6 -4 7 -9c29 -127 94 -383 121 -481
c2 -5 5 -6 9 -6c5 0 7 1 9 6c32 100 106 354 140 481c2 6 5 9 10 9h59c5 0 8 -4 9 -9c34 -127 104 -383 133 -481c2 -5 3 -6 9 -6s7 1 9 6c30 98 100 354 127 481c2 7 5 9 10 9h30c4 0 6 -4 6 -9c-12 -65 -110 -415 -142 -518z" />
    <glyph glyph-name="x" unicode="x" horiz-adv-x="490" 
d="M243 251c-3 0 -5 -2 -7 -5c-29 -44 -116 -190 -145 -239c-1 -2 -5 -7 -10 -7h-35c-4 0 -6 3 -6 9c19 32 121 194 158 250c5 8 9 18 9 23s-5 14 -9 21c-40 61 -126 195 -141 224c0 5 2 8 7 8h33c7 0 11 -4 12 -8c27 -49 79 -135 125 -207c4 -6 5 -7 9 -7s6 1 10 7
c47 72 100 162 126 207c3 5 6 8 13 8h33c4 0 5 -2 5 -7c-27 -47 -102 -164 -140 -222c-7 -11 -9 -16 -9 -21s3 -13 8 -21c33 -52 140 -224 158 -256c0 -6 -2 -8 -6 -8h-34c-7 0 -11 5 -12 7c-29 50 -115 194 -144 239c-2 3 -4 5 -8 5z" />
    <glyph glyph-name="y" unicode="y" horiz-adv-x="455" 
d="M192 19c-41 108 -149 441 -165 507c0 6 2 9 9 9h30c6 0 8 -4 9 -9c35 -127 113 -373 148 -471c1 -5 4 -6 9 -6c7 0 8 1 10 6c34 98 111 344 141 471c2 6 6 9 13 9h25c6 0 8 -4 8 -9c-12 -65 -112 -376 -148 -479c-59 -171 -86 -227 -187 -227c-16 0 -40 2 -47 4
c-3 1 -4 2 -4 7v26c0 3 2 5 6 4c14 -2 30 -3 43 -3c64 0 87 27 128 133c1 3 3 9 3 13c0 2 -1 3 -3 3h-12c-8 0 -13 3 -16 12z" />
    <glyph glyph-name="z" unicode="z" horiz-adv-x="444" 
d="M383 0h-317c-6 0 -10 4 -10 10v23c0 10 3 20 9 29l258 408c8 13 8 16 8 21c0 4 -1 6 -8 6h-231c-6 0 -10 4 -10 10v18c0 6 4 10 10 10h282c6 0 10 -4 10 -10v-18c0 -10 -1 -17 -7 -28l-264 -421c-3 -4 -4 -8 -4 -12c0 -5 1 -6 4 -6h271c6 0 10 -4 10 -10v-20
c0 -6 -4 -10 -11 -10z" />
    <glyph glyph-name="braceleft" unicode="{" horiz-adv-x="360" 
d="M113 294c0 -4 2 -5 6 -8c21 -16 31 -38 31 -80c0 -60 -12 -210 -12 -244c0 -69 42 -87 125 -87c7 0 11 -4 11 -10v-19c0 -6 -4 -10 -11 -10c-125 0 -170 37 -170 125c0 40 14 212 14 259c0 35 -25 51 -61 51c-7 0 -11 4 -11 10v26c0 6 4 10 11 10c36 0 61 16 61 51
c0 47 -14 219 -14 259c0 88 45 125 170 125c7 0 11 -4 11 -10v-19c0 -6 -4 -10 -11 -10c-83 0 -125 -18 -125 -87c0 -34 12 -184 12 -244c0 -42 -10 -64 -31 -80c-4 -3 -6 -4 -6 -8z" />
    <glyph glyph-name="bar" unicode="|" horiz-adv-x="280" 
d="M121 -214v1000h38v-1000h-38z" />
    <glyph glyph-name="braceright" unicode="}" horiz-adv-x="360" 
d="M247 294c0 4 -2 5 -6 8c-21 16 -31 38 -31 80c0 60 12 210 12 244c0 69 -42 87 -125 87c-7 0 -11 4 -11 10v19c0 6 4 10 11 10c125 0 170 -37 170 -125c0 -40 -14 -212 -14 -259c0 -35 25 -51 61 -51c7 0 11 -4 11 -10v-26c0 -6 -4 -10 -11 -10c-36 0 -61 -16 -61 -51
c0 -47 14 -219 14 -259c0 -88 -45 -125 -170 -125c-7 0 -11 4 -11 10v19c0 6 4 10 11 10c83 0 125 18 125 87c0 34 -12 184 -12 244c0 42 10 64 31 80c4 3 6 4 6 8z" />
    <glyph glyph-name="asciitilde" unicode="~" 
d="M284 272c35 -26 59 -39 80 -39c41 0 56 25 63 63c2 9 3 9 8 9l27 -5c3 -1 4 -3 4 -6c0 -31 -27 -101 -100 -101c-39 0 -61 14 -108 49c-37 27 -60 37 -79 37c-41 0 -62 -24 -69 -62c-2 -9 -3 -9 -8 -9l-25 4c-3 1 -4 3 -4 6c0 31 29 101 103 101c38 0 60 -11 108 -47z
" />
    <glyph glyph-name="uni00A0" unicode="&#xa0;" horiz-adv-x="200" 
 />
    <glyph glyph-name="exclamdown" unicode="&#xa1;" horiz-adv-x="280" 
d="M136 340h14c6 0 10 -4 10 -10l13 -465c0 -6 -4 -10 -10 -10h-40c-6 0 -10 4 -10 10l13 465c0 6 4 10 10 10zM120 535h48c6 0 10 -4 10 -10v-57c0 -6 -4 -10 -10 -10h-48c-6 0 -10 4 -10 10v57c0 6 4 10 10 10z" />
    <glyph glyph-name="cent" unicode="&#xa2;" 
d="M414 4c-24 -7 -52 -13 -86 -14c-2 -1 -3 -4 -3 -7v-70c0 -6 -4 -10 -10 -10h-26c-6 0 -10 4 -10 10v74c0 3 -1 5 -3 6c-123 17 -170 110 -170 271c0 156 47 258 171 277c1 1 2 3 2 6v75c0 6 4 10 10 10h26c6 0 10 -4 10 -10v-70c0 -4 2 -7 6 -7c33 -1 62 -6 81 -13
c3 -1 4 -2 4 -7l-4 -27c0 -3 -3 -6 -8 -4c-21 8 -47 12 -80 12c-126 0 -170 -86 -170 -243c0 -148 42 -233 166 -233c28 0 63 7 86 15c4 1 6 1 7 -4l4 -29c1 -4 0 -7 -3 -8z" />
    <glyph glyph-name="sterling" unicode="&#xa3;" 
d="M70 48c67 58 90 102 90 301c0 5 -2 8 -13 8h-54c-6 0 -10 4 -10 10v18c0 6 4 10 10 10h56c10 0 11 1 11 14c0 188 22 281 179 281c38 0 79 -5 104 -11c4 -1 5 -3 5 -9l-3 -26c0 -3 -3 -6 -8 -5c-26 6 -61 11 -103 11c-115 0 -127 -74 -127 -238c0 -16 1 -17 9 -17h171
c6 0 10 -4 10 -10v-18c0 -6 -4 -10 -10 -10h-171c-8 0 -9 -1 -9 -8c0 -126 -16 -224 -55 -275c-10 -13 -21 -22 -21 -27s3 -5 24 -5h309c7 0 11 -5 11 -11v-21c0 -6 -4 -10 -11 -10h-390c-6 0 -10 4 -10 10v24c0 6 1 10 6 14z" />
    <glyph glyph-name="currency" unicode="&#xa4;" 
d="M269 513c33 0 68 -9 102 -36l104 106l29 -29l-104 -106c23 -33 31 -68 31 -98c0 -31 -7 -64 -30 -98l103 -106c-7 -7 -21 -22 -29 -29c-16 15 -88 89 -104 105c-34 -28 -68 -36 -101 -36s-68 9 -103 37l-103 -106l-29 29l104 106c-23 33 -31 67 -31 98c0 29 8 63 31 97
l-104 106l29 30l104 -105c34 26 68 35 101 35zM270 225c67 0 118 52 118 124s-51 124 -118 124c-68 0 -120 -52 -120 -124s52 -124 120 -124z" />
    <glyph glyph-name="yen" unicode="&#xa5;" 
d="M442 669c4 8 10 11 17 11h31c6 0 6 -4 4 -10c-46 -85 -115 -204 -169 -292c-28 -46 -35 -55 -35 -73c0 -4 2 -6 6 -6h140c6 0 10 -4 10 -10v-18c0 -6 -4 -10 -10 -10h-141c-4 0 -6 -2 -6 -6v-70c0 -3 2 -4 6 -4h141c6 0 10 -4 10 -10v-18c0 -6 -4 -10 -10 -10h-141
c-4 0 -6 -2 -6 -5v-128c0 -6 -4 -10 -10 -10h-24c-6 0 -10 4 -10 10v127c0 4 -2 6 -6 6h-148c-6 0 -10 4 -10 10v18c0 6 4 10 10 10h148c3 0 5 1 6 4v70c0 4 -2 6 -6 6h-148c-6 0 -10 4 -10 10v18c0 6 4 10 10 10h145c4 0 6 2 6 6c0 20 -2 28 -30 72
c-50 79 -137 236 -167 293c-3 6 1 10 7 10h33c7 0 10 -3 14 -11c34 -70 111 -212 151 -279c8 -13 11 -19 19 -19c9 0 13 6 21 19c38 63 116 206 152 279z" />
    <glyph glyph-name="brokenbar" unicode="&#xa6;" horiz-adv-x="273" 
d="M118 402v384h38v-384h-38zM118 -214v384h38v-384h-38z" />
    <glyph glyph-name="section" unicode="&#xa7;" 
d="M407 203c0 71 -15 103 -164 201c-4 3 -10 7 -14 7s-7 -2 -14 -7c-52 -37 -80 -69 -80 -132c0 -68 29 -94 150 -180c22 -16 33 -23 42 -23c5 0 8 3 13 7c45 35 67 78 67 127zM128 566c0 105 78 124 165 124c47 0 87 -3 117 -12c4 -1 5 -3 5 -9l-4 -25c0 -3 -3 -7 -8 -5
c-30 9 -67 13 -105 13c-81 0 -125 -14 -125 -82c0 -54 20 -81 146 -165c108 -72 134 -116 134 -200c0 -64 -30 -109 -82 -151c-7 -5 -13 -11 -13 -14c0 -5 2 -9 17 -27c22 -27 30 -52 30 -93c0 -97 -75 -141 -179 -141c-43 0 -83 3 -132 15c-4 1 -5 3 -5 9l4 29c0 3 3 6 8 5
c51 -10 86 -16 131 -16c65 0 128 17 128 99c0 58 -29 89 -146 170c-98 68 -127 111 -127 175c0 62 20 104 88 157c9 7 16 13 16 17c0 5 -5 10 -15 20c-29 26 -48 54 -48 107z" />
    <glyph glyph-name="dieresis" unicode="&#xa8;" horiz-adv-x="500" 
d="M175 659h-40c-6 0 -10 4 -10 10v45c0 6 4 10 10 10h40c6 0 10 -4 10 -10v-45c0 -6 -4 -10 -10 -10zM366 659h-40c-6 0 -10 4 -10 10v45c0 6 4 10 10 10h40c6 0 10 -4 10 -10v-45c0 -6 -4 -10 -10 -10z" />
    <glyph glyph-name="copyright" unicode="&#xa9;" horiz-adv-x="840" 
d="M107 333c0 280 121 354 317 354c192 0 309 -79 309 -340c0 -289 -131 -361 -310 -361c-185 0 -316 74 -316 347zM689 341c0 255 -120 307 -266 307c-166 0 -272 -60 -272 -307c0 -261 126 -314 272 -314c155 0 266 53 266 314zM445 166c28 0 65 7 85 13c4 1 8 2 10 -3
l4 -29c1 -4 -1 -8 -3 -8c-26 -8 -62 -14 -101 -14c-109 0 -180 35 -180 214c0 181 69 213 179 213c37 0 75 -5 95 -13c3 -1 4 -2 4 -7l-4 -28c0 -3 -3 -6 -7 -4c-19 7 -54 12 -87 12c-104 0 -131 -38 -131 -173c0 -127 27 -173 136 -173z" />
    <glyph glyph-name="ordfeminine" unicode="&#xaa;" horiz-adv-x="373" 
d="M179 643c-25 0 -63 -3 -85 -8c-4 -1 -10 -1 -11 4l-3 19c-1 4 0 8 4 10c27 8 62 12 104 12c87 0 120 -32 120 -114v-253c0 -15 -40 -22 -105 -22c-122 0 -153 26 -153 102c0 67 14 103 116 113l96 9c2 1 4 3 4 6v37c0 63 -22 85 -87 85zM266 334v139c0 3 -2 5 -4 5h-79
c-68 0 -90 -19 -90 -79s22 -75 101 -75c40 0 72 3 72 10z" />
    <glyph glyph-name="guillemotleft" unicode="&#xab;" horiz-adv-x="500" 
d="M260 462v-14c0 -22 -1 -27 -14 -40l-117 -125c-2 -3 -3 -6 -3 -10c0 -6 1 -9 3 -12l117 -124c13 -13 14 -18 14 -40v-16c0 -6 -4 -10 -10 -10l-170 175c-5 5 -10 11 -10 17v17c0 6 5 12 10 17l170 175c6 0 10 -4 10 -10zM430 462v-14c0 -22 -1 -27 -14 -40l-117 -125
c-2 -3 -3 -6 -3 -10c0 -6 1 -9 3 -12l117 -124c13 -13 14 -18 14 -40v-16c0 -6 -4 -10 -10 -10l-170 175c-5 5 -10 11 -10 17v17c0 6 5 12 10 17l170 175c6 0 10 -4 10 -10z" />
    <glyph glyph-name="logicalnot" unicode="&#xac;" 
d="M444 387c12 0 23 -10 23 -20v-213c0 -6 -4 -10 -10 -10h-22c-6 0 -10 4 -10 10v187c0 4 -2 6 -6 6h-341c-6 0 -10 4 -10 10v20c0 6 4 10 10 10h366z" />
    <glyph glyph-name="uni00AD" unicode="&#xad;" horiz-adv-x="360" 
d="M287 280h-214c-6 0 -10 4 -10 10v21c0 6 4 10 10 10h214c6 0 10 -4 10 -10v-21c0 -6 -4 -10 -10 -10z" />
    <glyph glyph-name="registered" unicode="&#xae;" horiz-adv-x="446" 
d="M57 507c0 149 65 188 169 188c103 0 165 -42 165 -181c0 -153 -69 -191 -165 -191c-100 0 -169 39 -169 184zM357 512c0 123 -46 156 -131 156c-95 0 -135 -36 -135 -156c0 -127 50 -160 135 -160c89 0 131 33 131 160zM275 402l-51 87c-1 2 -3 3 -5 3h-30
c-1 0 -2 -1 -2 -3v-87c0 -2 -2 -4 -5 -4h-24c-2 0 -4 2 -4 4v219c0 2 2 4 4 4h56c53 0 83 -14 83 -59c0 -24 -7 -48 -39 -66c-3 -2 -2 -4 -1 -6l57 -91c2 -3 1 -5 -2 -5h-31c-3 0 -4 1 -6 4zM216 516c38 0 47 23 47 45c0 27 -12 38 -47 38h-27c-1 0 -2 -1 -2 -3v-77
c0 -2 1 -3 2 -3h27z" />
    <glyph glyph-name="macron" unicode="&#xaf;" horiz-adv-x="500" 
d="M357 665h-214c-6 0 -10 4 -10 10v19c0 6 4 10 10 10h214c6 0 10 -4 10 -10v-19c0 -6 -4 -10 -10 -10z" />
    <glyph glyph-name="degree" unicode="&#xb0;" horiz-adv-x="386" 
d="M196 713c78 0 142 -65 142 -143c0 -81 -64 -145 -143 -145c-81 0 -145 63 -145 145c0 79 65 143 146 143zM193 681c-60 0 -109 -53 -109 -112c0 -62 48 -112 111 -112c61 0 109 52 109 113c0 62 -48 111 -111 111z" />
    <glyph glyph-name="plusminus" unicode="&#xb1;" 
d="M249 332v163c0 6 4 10 10 10h21c6 0 10 -4 10 -10v-163c0 -4 2 -6 6 -6h160c6 0 10 -4 10 -10v-20c0 -6 -4 -10 -10 -10h-160c-4 0 -6 -2 -6 -6v-165c0 -6 -4 -10 -10 -10h-21c-6 0 -10 4 -10 10v165c0 4 -2 6 -6 6h-163c-6 0 -10 4 -10 10v20c0 6 4 10 10 10h163
c4 0 6 2 6 6zM80 63h380c6 0 10 -4 10 -10v-20c0 -6 -4 -10 -10 -10h-380c-6 0 -10 4 -10 10v20c0 6 4 10 10 10z" />
    <glyph glyph-name="twosuperior" unicode="&#xb2;" horiz-adv-x="330" 
d="M37 434v31c0 70 38 116 123 176c74 52 83 71 83 116c0 52 -26 67 -88 67c-26 0 -67 -5 -88 -11c-4 0 -6 2 -6 6l-3 25c0 4 2 5 6 6c26 8 65 13 94 13c88 0 129 -26 129 -103c0 -67 -29 -98 -98 -145c-84 -58 -110 -96 -110 -144c0 -5 0 -5 4 -5h203c4 0 7 -2 7 -6v-26
c0 -3 -3 -6 -7 -6h-239c-5 0 -10 1 -10 6z" />
    <glyph glyph-name="threesuperior" unicode="&#xb3;" horiz-adv-x="330" 
d="M139 679c-1 -1 -3 -3 -3 -6s2 -3 3 -3c98 -1 146 -36 146 -111c0 -109 -67 -137 -147 -137c-23 0 -60 3 -92 10c-4 1 -6 3 -6 7l2 24c0 3 3 6 7 6c27 -6 67 -8 85 -8c73 0 108 22 108 97c0 56 -35 79 -129 79h-30c-4 0 -7 3 -7 6v23c0 5 2 6 7 11c60 53 140 133 140 139
c0 3 -3 4 -5 4h-169c-4 0 -6 2 -6 6v24c0 4 3 6 6 6h222c3 0 6 0 6 -4v-33c0 -4 -2 -7 -8 -14c-28 -31 -83 -84 -130 -126z" />
    <glyph glyph-name="acute" unicode="&#xb4;" horiz-adv-x="500" 
d="M221 610h-17c-6 0 -9 3 -7 6l103 186c4 6 9 10 15 10h27c6 0 10 -4 10 -10l-110 -176c-9 -14 -12 -16 -21 -16z" />
    <glyph glyph-name="mu" unicode="&#xb5;" horiz-adv-x="556" 
d="M92 -170v695c0 6 4 10 10 10h26c6 0 10 -4 10 -10v-366c0 -95 32 -130 149 -130c48 0 98 6 120 11c7 2 10 4 10 11v474c0 6 4 10 10 10h26c6 0 10 -4 10 -10v-507c0 -6 -4 -10 -10 -10c-54 -12 -119 -18 -166 -18c-37 0 -98 8 -121 19c-6 3 -13 7 -18 7
c-9 0 -10 -17 -10 -28v-158c0 -6 -4 -10 -10 -10h-26c-6 0 -10 4 -10 10z" />
    <glyph glyph-name="paragraph" unicode="&#xb6;" 
d="M271 204c-124 0 -220 34 -220 238c0 209 62 252 321 252h103c6 0 10 -4 10 -10v-851c0 -6 -4 -10 -10 -10h-24c-6 0 -10 4 -10 10v818c0 4 -2 6 -6 6h-96c-4 0 -6 -2 -6 -6v-818c0 -6 -4 -10 -10 -10h-25c-6 0 -10 4 -10 10v362c0 6 -5 9 -17 9z" />
    <glyph glyph-name="periodcentered" unicode="&#xb7;" horiz-adv-x="260" 
d="M154 262h-48c-6 0 -10 4 -10 10v57c0 6 4 10 10 10h48c6 0 10 -4 10 -10v-57c0 -6 -4 -10 -10 -10z" />
    <glyph glyph-name="cedilla" unicode="&#xb8;" horiz-adv-x="500" 
d="M243 25l-20 -91c-2 -8 5 -9 13 -9c52 0 88 -8 88 -67c0 -70 -34 -98 -138 -98c-15 0 -18 1 -19 7l-3 20c0 5 2 7 7 7h20c60 0 94 10 94 56c0 32 -9 44 -75 44h-22c-5 0 -7 2 -7 6l27 125h35z" />
    <glyph glyph-name="onesuperior" unicode="&#xb9;" horiz-adv-x="330" 
d="M154 470v344c-1 2 -2 3 -4 3l-90 -17c-4 0 -6 2 -6 6v24c0 2 0 6 5 8l86 17c5 1 10 1 18 1h29c4 0 7 -2 7 -6v-380c0 -3 1 -4 3 -4h77c4 0 7 -2 7 -6v-26c0 -3 -3 -6 -7 -6h-216c-4 0 -7 3 -7 6v26c0 4 3 6 7 6h87c3 0 4 1 4 4z" />
    <glyph glyph-name="ordmasculine" unicode="&#xba;" horiz-adv-x="404" 
d="M305 487c0 130 -28 158 -102 158c-85 0 -105 -31 -105 -158c0 -138 31 -161 105 -161c77 0 102 23 102 161zM53 476c0 152 40 204 150 204s147 -56 147 -186c0 -165 -50 -203 -148 -203c-93 0 -149 38 -149 185z" />
    <glyph glyph-name="guillemotright" unicode="&#xbb;" horiz-adv-x="500" 
d="M240 80v14c0 22 1 27 14 40l117 125c2 3 3 6 3 10c0 6 -1 9 -3 12l-117 124c-13 13 -14 18 -14 40v16c0 6 4 10 10 10l170 -175c5 -5 10 -11 10 -17v-17c0 -6 -5 -12 -10 -17l-170 -175c-6 0 -10 4 -10 10zM70 80v14c0 22 1 27 14 40l117 125c2 3 3 6 3 10
c0 6 -1 9 -3 12l-117 124c-13 13 -14 18 -14 40v16c0 6 4 10 10 10l170 -175c5 -5 10 -11 10 -17v-17c0 -6 -5 -12 -10 -17l-170 -175c-6 0 -10 4 -10 10z" />
    <glyph glyph-name="onequarter" unicode="&#xbc;" horiz-adv-x="880" 
d="M154 294v344c-1 2 -2 3 -4 3l-90 -17c-4 0 -6 2 -6 6v24c0 2 0 6 5 8l86 17c5 1 10 1 18 1h29c4 0 7 -2 7 -6v-380c0 -3 1 -4 3 -4h77c4 0 7 -2 7 -6v-26c0 -3 -3 -6 -7 -6h-216c-4 0 -7 3 -7 6v26c0 4 3 6 7 6h87c3 0 4 1 4 4zM553 117v32c0 17 2 25 136 273
c2 5 4 6 8 6h32c4 0 7 -1 7 -7c-101 -180 -141 -253 -141 -269c0 -5 2 -5 4 -5h131c2 0 4 1 4 4v142c0 4 2 6 6 6h31c4 0 6 -2 6 -6v-142c0 -3 1 -4 4 -4h59c3 0 6 -3 6 -7v-23c0 -4 -3 -6 -6 -6h-59c-3 0 -4 -1 -4 -4v-101c0 -3 -2 -6 -6 -6h-31c-4 0 -6 3 -6 6v101
c0 3 -2 4 -4 4h-170c-4 0 -7 2 -7 6zM261 -40l286 731c2 5 6 10 10 10h27c4 0 7 -4 6 -10l-288 -731c-2 -5 -6 -10 -10 -10h-25c-4 0 -7 4 -6 10z" />
    <glyph glyph-name="onehalf" unicode="&#xbd;" horiz-adv-x="880" 
d="M567 6v31c0 70 38 116 123 176c74 52 83 71 83 116c0 52 -26 67 -88 67c-26 0 -67 -5 -88 -11c-4 0 -6 2 -6 6l-3 25c0 4 2 5 6 6c26 8 65 13 94 13c88 0 129 -26 129 -103c0 -67 -29 -98 -98 -145c-84 -58 -110 -96 -110 -144c0 -5 0 -5 4 -5h203c4 0 7 -2 7 -6v-26
c0 -3 -3 -6 -7 -6h-239c-5 0 -10 1 -10 6zM261 -40l286 731c2 5 6 10 10 10h27c4 0 7 -4 6 -10l-288 -731c-2 -5 -6 -10 -10 -10h-25c-4 0 -7 4 -6 10zM154 294v344c-1 2 -2 3 -4 3l-90 -17c-4 0 -6 2 -6 6v24c0 2 0 6 5 8l86 17c5 1 10 1 18 1h29c4 0 7 -2 7 -6v-380
c0 -3 1 -4 3 -4h77c4 0 7 -2 7 -6v-26c0 -3 -3 -6 -7 -6h-216c-4 0 -7 3 -7 6v26c0 4 3 6 7 6h87c3 0 4 1 4 4z" />
    <glyph glyph-name="threequarters" unicode="&#xbe;" horiz-adv-x="880" 
d="M553 117v32c0 17 2 25 136 273c2 5 4 6 8 6h32c4 0 7 -1 7 -7c-101 -180 -141 -253 -141 -269c0 -5 2 -5 4 -5h131c2 0 4 1 4 4v142c0 4 2 6 6 6h31c4 0 6 -2 6 -6v-142c0 -3 1 -4 4 -4h59c3 0 6 -3 6 -7v-23c0 -4 -3 -6 -6 -6h-59c-3 0 -4 -1 -4 -4v-101
c0 -3 -2 -6 -6 -6h-31c-4 0 -6 3 -6 6v101c0 3 -2 4 -4 4h-170c-4 0 -7 2 -7 6zM139 503c-1 -1 -3 -3 -3 -6s2 -3 3 -3c98 -1 146 -36 146 -111c0 -109 -67 -137 -147 -137c-23 0 -60 3 -92 10c-4 1 -6 3 -6 7l2 24c0 3 3 6 7 6c27 -6 67 -8 85 -8c73 0 108 22 108 97
c0 56 -35 79 -129 79h-30c-4 0 -7 3 -7 6v23c0 5 2 6 7 11c60 53 140 133 140 139c0 3 -3 4 -5 4h-169c-4 0 -6 2 -6 6v24c0 4 3 6 6 6h222c3 0 6 0 6 -4v-33c0 -4 -2 -7 -8 -14c-28 -31 -83 -84 -130 -126zM261 -40l286 731c2 5 6 10 10 10h27c4 0 7 -4 6 -10l-288 -731
c-2 -5 -6 -10 -10 -10h-25c-4 0 -7 4 -6 10z" />
    <glyph glyph-name="questiondown" unicode="&#xbf;" horiz-adv-x="407" 
d="M341 -96c5 1 8 -1 9 -8l3 -21c0 -6 -4 -10 -10 -11c-35 -11 -86 -19 -132 -19c-106 0 -178 27 -178 149c0 103 41 130 123 173c77 40 81 60 81 160c0 14 0 18 7 18h28c6 0 8 -7 8 -23c0 -99 -11 -142 -84 -178c-100 -49 -115 -75 -115 -148c0 -70 26 -109 137 -109
c38 0 82 5 123 17zM231 535h48c6 0 10 -4 10 -10v-57c0 -6 -4 -10 -10 -10h-48c-6 0 -10 4 -10 10v57c0 6 4 10 10 10z" />
    <glyph glyph-name="Agrave" unicode="&#xc0;" horiz-adv-x="508" 
d="M393 192c-1 5 -3 7 -8 7h-260c-5 0 -8 -1 -10 -7c-14 -46 -38 -132 -51 -182c-3 -8 -7 -10 -13 -10h-30c-6 0 -9 4 -7 10c33 120 154 526 198 660c2 6 6 10 12 10h71c7 0 10 -4 12 -10c44 -149 165 -572 187 -660c2 -6 -1 -10 -7 -10h-34c-5 0 -9 1 -11 10
c-12 50 -35 136 -49 182zM139 239h231c7 0 9 2 9 8c-16 65 -74 279 -104 383c-2 6 -3 7 -17 7c-13 0 -15 -1 -17 -7c-31 -102 -92 -314 -111 -383c0 -6 2 -8 9 -8zM283 742h-19c-9 0 -14 0 -26 11l-152 135c-5 3 -8 16 8 16h29c6 0 14 -5 19 -10l144 -142c4 -4 3 -10 -3 -10
z" />
    <glyph glyph-name="Aacute" unicode="&#xc1;" horiz-adv-x="508" 
d="M393 192c-1 5 -3 7 -8 7h-260c-5 0 -8 -1 -10 -7c-14 -46 -38 -132 -51 -182c-3 -8 -7 -10 -13 -10h-30c-6 0 -9 4 -7 10c33 120 154 526 198 660c2 6 6 10 12 10h71c7 0 10 -4 12 -10c44 -149 165 -572 187 -660c2 -6 -1 -10 -7 -10h-34c-5 0 -9 1 -11 10
c-12 50 -35 136 -49 182zM139 239h231c7 0 9 2 9 8c-16 65 -74 279 -104 383c-2 6 -3 7 -17 7c-13 0 -15 -1 -17 -7c-31 -102 -92 -314 -111 -383c0 -6 2 -8 9 -8zM252 742h-19c-6 0 -7 6 -3 10l144 142c5 5 13 10 19 10h29c16 0 13 -13 8 -16l-152 -135
c-12 -11 -17 -11 -26 -11z" />
    <glyph glyph-name="Acircumflex" unicode="&#xc2;" horiz-adv-x="508" 
d="M393 192c-1 5 -3 7 -8 7h-260c-5 0 -8 -1 -10 -7c-14 -46 -38 -132 -51 -182c-3 -8 -7 -10 -13 -10h-30c-6 0 -9 4 -7 10c33 120 154 526 198 660c2 6 6 10 12 10h71c7 0 10 -4 12 -10c44 -149 165 -572 187 -660c2 -6 -1 -10 -7 -10h-34c-5 0 -9 1 -11 10
c-12 50 -35 136 -49 182zM139 239h231c7 0 9 2 9 8c-16 65 -74 279 -104 383c-2 6 -3 7 -17 7c-13 0 -15 -1 -17 -7c-31 -102 -92 -314 -111 -383c0 -6 2 -8 9 -8zM415 742h-13c-13 0 -20 1 -29 11l-103 115c-2 1 -4 2 -8 2c-5 0 -7 -1 -9 -2l-105 -115
c-9 -9 -13 -11 -24 -11h-17c-6 0 -11 4 -8 8l124 146c4 5 9 8 15 8h49c6 0 11 -3 15 -8l121 -146c3 -4 -2 -8 -8 -8z" />
    <glyph glyph-name="Atilde" unicode="&#xc3;" horiz-adv-x="508" 
d="M393 192c-1 5 -3 7 -8 7h-260c-5 0 -8 -1 -10 -7c-14 -46 -38 -132 -51 -182c-3 -8 -7 -10 -13 -10h-30c-6 0 -9 4 -7 10c33 120 154 526 198 660c2 6 6 10 12 10h71c7 0 10 -4 12 -10c44 -149 165 -572 187 -660c2 -6 -1 -10 -7 -10h-34c-5 0 -9 1 -11 10
c-12 50 -35 136 -49 182zM139 239h231c7 0 9 2 9 8c-16 65 -74 279 -104 383c-2 6 -3 7 -17 7c-13 0 -15 -1 -17 -7c-31 -102 -92 -314 -111 -383c0 -6 2 -8 9 -8zM277 805c26 -19 45 -28 61 -28c26 0 41 23 45 55c1 6 2 7 6 7h24c5 0 5 -3 5 -8c0 -37 -25 -91 -80 -91
c-28 0 -45 8 -81 34c-26 19 -45 28 -61 28c-26 0 -41 -23 -45 -55c-1 -6 -2 -7 -6 -7h-24c-5 0 -5 3 -5 8c0 37 25 91 80 91c28 0 45 -8 81 -34z" />
    <glyph glyph-name="Adieresis" unicode="&#xc4;" horiz-adv-x="508" 
d="M393 192c-1 5 -3 7 -8 7h-260c-5 0 -8 -1 -10 -7c-14 -46 -38 -132 -51 -182c-3 -8 -7 -10 -13 -10h-30c-6 0 -9 4 -7 10c33 120 154 526 198 660c2 6 6 10 12 10h71c7 0 10 -4 12 -10c44 -149 165 -572 187 -660c2 -6 -1 -10 -7 -10h-34c-5 0 -9 1 -11 10
c-12 50 -35 136 -49 182zM139 239h231c7 0 9 2 9 8c-16 65 -74 279 -104 383c-2 6 -3 7 -17 7c-13 0 -15 -1 -17 -7c-31 -102 -92 -314 -111 -383c0 -6 2 -8 9 -8zM187 772h-40c-6 0 -10 4 -10 10v45c0 6 4 10 10 10h40c6 0 10 -4 10 -10v-45c0 -6 -4 -10 -10 -10zM378 772
h-40c-6 0 -10 4 -10 10v45c0 6 4 10 10 10h40c6 0 10 -4 10 -10v-45c0 -6 -4 -10 -10 -10z" />
    <glyph glyph-name="Aring" unicode="&#xc5;" horiz-adv-x="508" 
d="M393 192c-1 5 -3 7 -8 7h-260c-5 0 -8 -1 -10 -7c-14 -46 -38 -132 -51 -182c-3 -8 -7 -10 -13 -10h-30c-6 0 -9 4 -7 10c33 120 154 526 198 660c2 6 6 10 12 10h71c7 0 10 -4 12 -10c44 -149 165 -572 187 -660c2 -6 -1 -10 -7 -10h-34c-5 0 -9 1 -11 10
c-12 50 -35 136 -49 182zM139 239h231c7 0 9 2 9 8c-16 65 -74 279 -104 383c-2 6 -3 7 -17 7c-13 0 -15 -1 -17 -7c-31 -102 -92 -314 -111 -383c0 -6 2 -8 9 -8zM152 832c0 80 39 107 111 107c70 0 110 -28 110 -96c0 -88 -50 -109 -110 -109s-111 20 -111 98zM338 839
c0 62 -27 71 -75 71c-56 0 -78 -10 -78 -71c0 -66 30 -76 78 -76c52 0 75 10 75 76z" />
    <glyph glyph-name="AE" unicode="&#xc6;" horiz-adv-x="665" 
d="M371 10l-28 183c-1 5 -3 7 -7 7h-219c-5 0 -9 -2 -10 -7l-50 -183c-2 -7 -5 -10 -11 -10h-28c-5 0 -10 4 -8 10c35 122 153 527 199 660c3 7 7 10 13 10h366c6 0 10 -4 10 -10v-22c0 -6 -4 -10 -10 -10h-261c-4 0 -5 -2 -4 -6l37 -252c1 -4 3 -6 7 -6h208
c6 0 10 -4 10 -10v-20c0 -6 -4 -10 -10 -10h-204c-4 0 -5 -2 -4 -6l43 -280c1 -4 4 -6 7 -6h189c6 0 10 -4 10 -10v-22c0 -6 -4 -10 -10 -10h-225c-6 0 -9 2 -10 10zM128 236h202c4 0 5 2 5 7c-9 69 -41 293 -56 392c-1 5 -6 6 -19 6c-8 0 -17 -1 -19 -6
c-33 -93 -104 -334 -120 -392c0 -5 2 -7 7 -7z" />
    <glyph glyph-name="Ccedilla" unicode="&#xc7;" horiz-adv-x="480" 
d="M441 7c-28 -8 -68 -15 -109 -16c-6 0 -11 -2 -13 -8l-11 -49c-2 -8 5 -9 13 -9c52 0 88 -8 88 -67c0 -70 -34 -98 -138 -98c-15 0 -18 1 -19 7l-3 20c0 5 2 7 7 7h20c60 0 94 10 94 56c0 32 -9 44 -75 44h-22c-5 0 -7 2 -7 6l20 84c1 4 -1 7 -3 7
c-156 12 -210 133 -210 344c0 218 67 355 243 355c58 0 97 -8 122 -17c4 -2 5 -3 5 -9l-3 -29c0 -3 -3 -7 -8 -5c-24 9 -69 17 -110 17c-158 0 -199 -115 -199 -312c0 -189 37 -302 199 -302c35 0 84 7 109 14c5 1 12 2 13 -4l1 -25c1 -6 -1 -10 -4 -11z" />
    <glyph glyph-name="Egrave" unicode="&#xc8;" horiz-adv-x="465" 
d="M100 10v660c0 6 4 10 10 10h278c6 0 10 -4 10 -10v-22c0 -6 -4 -10 -10 -10h-234c-4 0 -6 -2 -6 -6v-252c0 -4 2 -6 6 -6h221c6 0 10 -4 10 -10v-20c0 -6 -4 -10 -10 -10h-221c-4 0 -6 -2 -6 -6v-280c0 -4 2 -6 6 -6h252c6 0 10 -4 10 -10v-22c0 -6 -4 -10 -10 -10h-296
c-6 0 -10 4 -10 10zM300 742h-19c-9 0 -14 0 -26 11l-152 135c-5 3 -8 16 8 16h29c6 0 14 -5 19 -10l144 -142c4 -4 3 -10 -3 -10z" />
    <glyph glyph-name="Eacute" unicode="&#xc9;" horiz-adv-x="465" 
d="M100 10v660c0 6 4 10 10 10h278c6 0 10 -4 10 -10v-22c0 -6 -4 -10 -10 -10h-234c-4 0 -6 -2 -6 -6v-252c0 -4 2 -6 6 -6h221c6 0 10 -4 10 -10v-20c0 -6 -4 -10 -10 -10h-221c-4 0 -6 -2 -6 -6v-280c0 -4 2 -6 6 -6h252c6 0 10 -4 10 -10v-22c0 -6 -4 -10 -10 -10h-296
c-6 0 -10 4 -10 10zM244 742h-19c-6 0 -7 6 -3 10l144 142c5 5 13 10 19 10h29c16 0 13 -13 8 -16l-152 -135c-12 -11 -17 -11 -26 -11z" />
    <glyph glyph-name="Ecircumflex" unicode="&#xca;" horiz-adv-x="465" 
d="M100 10v660c0 6 4 10 10 10h278c6 0 10 -4 10 -10v-22c0 -6 -4 -10 -10 -10h-234c-4 0 -6 -2 -6 -6v-252c0 -4 2 -6 6 -6h221c6 0 10 -4 10 -10v-20c0 -6 -4 -10 -10 -10h-221c-4 0 -6 -2 -6 -6v-280c0 -4 2 -6 6 -6h252c6 0 10 -4 10 -10v-22c0 -6 -4 -10 -10 -10h-296
c-6 0 -10 4 -10 10zM415 742h-13c-13 0 -20 1 -29 11l-103 115c-2 1 -4 2 -8 2c-5 0 -7 -1 -9 -2l-105 -115c-9 -9 -13 -11 -24 -11h-17c-6 0 -11 4 -8 8l124 146c4 5 9 8 15 8h49c6 0 11 -3 15 -8l121 -146c3 -4 -2 -8 -8 -8z" />
    <glyph glyph-name="Edieresis" unicode="&#xcb;" horiz-adv-x="465" 
d="M100 10v660c0 6 4 10 10 10h278c6 0 10 -4 10 -10v-22c0 -6 -4 -10 -10 -10h-234c-4 0 -6 -2 -6 -6v-252c0 -4 2 -6 6 -6h221c6 0 10 -4 10 -10v-20c0 -6 -4 -10 -10 -10h-221c-4 0 -6 -2 -6 -6v-280c0 -4 2 -6 6 -6h252c6 0 10 -4 10 -10v-22c0 -6 -4 -10 -10 -10h-296
c-6 0 -10 4 -10 10zM189 772h-40c-6 0 -10 4 -10 10v45c0 6 4 10 10 10h40c6 0 10 -4 10 -10v-45c0 -6 -4 -10 -10 -10zM380 772h-40c-6 0 -10 4 -10 10v45c0 6 4 10 10 10h40c6 0 10 -4 10 -10v-45c0 -6 -4 -10 -10 -10z" />
    <glyph glyph-name="Igrave" unicode="&#xcc;" horiz-adv-x="248" 
d="M138 0h-28c-6 0 -10 4 -10 10v660c0 6 4 10 10 10h28c6 0 10 -4 10 -10v-660c0 -6 -4 -10 -10 -10zM146 742h-19c-9 0 -14 0 -26 11l-152 135c-5 3 -8 16 8 16h29c6 0 14 -5 19 -10l144 -142c4 -4 3 -10 -3 -10z" />
    <glyph glyph-name="Iacute" unicode="&#xcd;" horiz-adv-x="248" 
d="M138 0h-28c-6 0 -10 4 -10 10v660c0 6 4 10 10 10h28c6 0 10 -4 10 -10v-660c0 -6 -4 -10 -10 -10zM126 742h-19c-6 0 -7 6 -3 10l144 142c5 5 13 10 19 10h29c16 0 13 -13 8 -16l-152 -135c-12 -11 -17 -11 -26 -11z" />
    <glyph glyph-name="Icircumflex" unicode="&#xce;" horiz-adv-x="248" 
d="M138 0h-28c-6 0 -10 4 -10 10v660c0 6 4 10 10 10h28c6 0 10 -4 10 -10v-660c0 -6 -4 -10 -10 -10zM277 742h-13c-13 0 -20 1 -29 11l-103 115c-2 1 -4 2 -8 2c-5 0 -7 -1 -9 -2l-105 -115c-9 -9 -13 -11 -24 -11h-17c-6 0 -11 4 -8 8l124 146c4 5 9 8 15 8h49
c6 0 11 -3 15 -8l121 -146c3 -4 -2 -8 -8 -8z" />
    <glyph glyph-name="Idieresis" unicode="&#xcf;" horiz-adv-x="248" 
d="M138 0h-28c-6 0 -10 4 -10 10v660c0 6 4 10 10 10h28c6 0 10 -4 10 -10v-660c0 -6 -4 -10 -10 -10zM49 772h-40c-6 0 -10 4 -10 10v45c0 6 4 10 10 10h40c6 0 10 -4 10 -10v-45c0 -6 -4 -10 -10 -10zM240 772h-40c-6 0 -10 4 -10 10v45c0 6 4 10 10 10h40
c6 0 10 -4 10 -10v-45c0 -6 -4 -10 -10 -10z" />
    <glyph glyph-name="Eth" unicode="&#xd0;" horiz-adv-x="617" 
d="M110 680h187c204 0 249 -145 249 -335s-50 -345 -249 -345h-187c-6 0 -10 4 -10 10v316c-1 3 -3 5 -6 5h-61c-6 0 -10 4 -10 10v18c0 6 4 10 10 10h61c3 0 5 1 6 4v297c0 6 4 10 10 10zM496 345c0 178 -37 293 -205 293h-137c-4 0 -6 -2 -6 -6v-257c0 -4 2 -6 6 -6h119
c6 0 10 -4 10 -10v-18c0 -6 -4 -10 -10 -10h-119c-4 0 -6 -2 -6 -6v-277c0 -5 1 -6 5 -6h139c162 0 204 121 204 303z" />
    <glyph glyph-name="Ntilde" unicode="&#xd1;" horiz-adv-x="619" 
d="M509 0h-69c-9 0 -11 5 -15 15l-261 615c-3 6 -4 8 -10 8c-7 0 -7 -3 -7 -7v-621c0 -6 -4 -10 -10 -10h-27c-6 0 -10 4 -10 10v660c0 6 4 10 10 10h75c7 0 11 -3 14 -12l256 -609c5 -11 6 -12 11 -12s6 2 6 6v617c0 6 4 10 10 10h27c6 0 10 -4 10 -10v-660
c0 -6 -4 -10 -10 -10zM337 805c26 -19 45 -28 61 -28c26 0 41 23 45 55c1 6 2 7 6 7h24c5 0 5 -3 5 -8c0 -37 -25 -91 -80 -91c-28 0 -45 8 -81 34c-26 19 -45 28 -61 28c-26 0 -41 -23 -45 -55c-1 -6 -2 -7 -6 -7h-24c-5 0 -5 3 -5 8c0 37 25 91 80 91c28 0 45 -8 81 -34z
" />
    <glyph glyph-name="Ograve" unicode="&#xd2;" horiz-adv-x="616" 
d="M123 339c0 -119 19 -233 54 -271c26 -28 50 -35 131 -35c83 0 108 7 134 35c35 38 52 152 52 271c0 120 -17 234 -52 272c-26 28 -51 35 -132 35c-83 0 -107 -7 -133 -35c-35 -38 -54 -152 -54 -272zM543 340c0 -127 -17 -240 -58 -292c-40 -50 -86 -58 -177 -58
c-92 0 -135 7 -175 57c-41 52 -60 166 -60 293s19 235 60 287c40 50 86 63 177 63c92 0 136 -13 176 -63c41 -52 57 -160 57 -287zM350 742h-19c-9 0 -14 0 -26 11l-152 135c-5 3 -8 16 8 16h29c6 0 14 -5 19 -10l144 -142c4 -4 3 -10 -3 -10z" />
    <glyph glyph-name="Oacute" unicode="&#xd3;" horiz-adv-x="616" 
d="M123 339c0 -119 19 -233 54 -271c26 -28 50 -35 131 -35c83 0 108 7 134 35c35 38 52 152 52 271c0 120 -17 234 -52 272c-26 28 -51 35 -132 35c-83 0 -107 -7 -133 -35c-35 -38 -54 -152 -54 -272zM543 340c0 -127 -17 -240 -58 -292c-40 -50 -86 -58 -177 -58
c-92 0 -135 7 -175 57c-41 52 -60 166 -60 293s19 235 60 287c40 50 86 63 177 63c92 0 136 -13 176 -63c41 -52 57 -160 57 -287zM308 742h-19c-6 0 -7 6 -3 10l144 142c5 5 13 10 19 10h29c16 0 13 -13 8 -16l-152 -135c-12 -11 -17 -11 -26 -11z" />
    <glyph glyph-name="Ocircumflex" unicode="&#xd4;" horiz-adv-x="616" 
d="M123 339c0 -119 19 -233 54 -271c26 -28 50 -35 131 -35c83 0 108 7 134 35c35 38 52 152 52 271c0 120 -17 234 -52 272c-26 28 -51 35 -132 35c-83 0 -107 -7 -133 -35c-35 -38 -54 -152 -54 -272zM543 340c0 -127 -17 -240 -58 -292c-40 -50 -86 -58 -177 -58
c-92 0 -135 7 -175 57c-41 52 -60 166 -60 293s19 235 60 287c40 50 86 63 177 63c92 0 136 -13 176 -63c41 -52 57 -160 57 -287zM465 742h-13c-13 0 -20 1 -29 11l-103 115c-2 1 -4 2 -8 2c-5 0 -7 -1 -9 -2l-105 -115c-9 -9 -13 -11 -24 -11h-17c-6 0 -11 4 -8 8l124 146
c4 5 9 8 15 8h49c6 0 11 -3 15 -8l121 -146c3 -4 -2 -8 -8 -8z" />
    <glyph glyph-name="Otilde" unicode="&#xd5;" horiz-adv-x="616" 
d="M123 339c0 -119 19 -233 54 -271c26 -28 50 -35 131 -35c83 0 108 7 134 35c35 38 52 152 52 271c0 120 -17 234 -52 272c-26 28 -51 35 -132 35c-83 0 -107 -7 -133 -35c-35 -38 -54 -152 -54 -272zM543 340c0 -127 -17 -240 -58 -292c-40 -50 -86 -58 -177 -58
c-92 0 -135 7 -175 57c-41 52 -60 166 -60 293s19 235 60 287c40 50 86 63 177 63c92 0 136 -13 176 -63c41 -52 57 -160 57 -287zM326 805c26 -19 45 -28 61 -28c26 0 41 23 45 55c1 6 2 7 6 7h24c5 0 5 -3 5 -8c0 -37 -25 -91 -80 -91c-28 0 -45 8 -81 34
c-26 19 -45 28 -61 28c-26 0 -41 -23 -45 -55c-1 -6 -2 -7 -6 -7h-24c-5 0 -5 3 -5 8c0 37 25 91 80 91c28 0 45 -8 81 -34z" />
    <glyph glyph-name="Odieresis" unicode="&#xd6;" horiz-adv-x="616" 
d="M123 339c0 -119 19 -233 54 -271c26 -28 50 -35 131 -35c83 0 108 7 134 35c35 38 52 152 52 271c0 120 -17 234 -52 272c-26 28 -51 35 -132 35c-83 0 -107 -7 -133 -35c-35 -38 -54 -152 -54 -272zM543 340c0 -127 -17 -240 -58 -292c-40 -50 -86 -58 -177 -58
c-92 0 -135 7 -175 57c-41 52 -60 166 -60 293s19 235 60 287c40 50 86 63 177 63c92 0 136 -13 176 -63c41 -52 57 -160 57 -287zM234 772h-40c-6 0 -10 4 -10 10v45c0 6 4 10 10 10h40c6 0 10 -4 10 -10v-45c0 -6 -4 -10 -10 -10zM425 772h-40c-6 0 -10 4 -10 10v45
c0 6 4 10 10 10h40c6 0 10 -4 10 -10v-45c0 -6 -4 -10 -10 -10z" />
    <glyph glyph-name="multiply" unicode="&#xd7;" 
d="M275 293l126 126c4 4 10 4 14 0l15 -14c4 -4 4 -10 0 -14l-126 -126c-3 -3 -3 -6 0 -9l126 -126c4 -4 4 -10 0 -14l-16 -15c-4 -5 -9 -5 -14 0l-125 126c-3 3 -6 3 -9 0l-125 -125c-4 -4 -10 -4 -14 0l-15 14c-4 4 -4 10 0 14l125 125c3 3 3 6 0 9l-126 126
c-5 5 -5 10 0 14l15 16c4 4 10 4 14 0l127 -127c2 -3 5 -3 8 0z" />
    <glyph glyph-name="Oslash" unicode="&#xd8;" horiz-adv-x="616" 
d="M543 340c0 -127 -17 -240 -58 -292c-40 -50 -86 -58 -177 -58c-68 0 -109 4 -142 26c-9 -1 -13 -3 -18 -12l-29 -50c-3 -5 -8 -9 -16 -9h-21c-6 0 -11 6 -6 14l46 76c3 5 5 10 5 14c0 1 0 4 -1 7c-36 55 -53 164 -53 284c0 127 19 235 60 287c40 50 86 63 177 63
c60 0 99 -6 130 -23c10 0 13 2 19 12l24 42c4 7 8 9 16 9h21c6 0 11 -6 6 -14l-38 -62c-3 -5 -5 -10 -5 -14c0 -3 0 -9 4 -14c40 -52 56 -160 56 -286zM123 339c0 -119 19 -233 54 -271c26 -28 50 -35 131 -35c83 0 108 7 134 35c35 38 52 152 52 271c0 120 -17 234 -52 272
c-26 28 -51 35 -132 35c-83 0 -107 -7 -133 -35c-35 -38 -54 -152 -54 -272z" />
    <glyph glyph-name="Ugrave" unicode="&#xd9;" horiz-adv-x="593" 
d="M503 670v-514c0 -100 -70 -165 -213 -165c-134 0 -200 65 -200 165v514c0 6 4 10 10 10h28c6 0 10 -4 10 -10v-507c0 -101 57 -130 153 -130s164 29 164 131v506c0 6 4 10 10 10h28c6 0 10 -4 10 -10zM317 742h-19c-9 0 -14 0 -26 11l-152 135c-5 3 -8 16 8 16h29
c6 0 14 -5 19 -10l144 -142c4 -4 3 -10 -3 -10z" />
    <glyph glyph-name="Uacute" unicode="&#xda;" horiz-adv-x="593" 
d="M503 670v-514c0 -100 -70 -165 -213 -165c-134 0 -200 65 -200 165v514c0 6 4 10 10 10h28c6 0 10 -4 10 -10v-507c0 -101 57 -130 153 -130s164 29 164 131v506c0 6 4 10 10 10h28c6 0 10 -4 10 -10zM293 742h-19c-6 0 -7 6 -3 10l144 142c5 5 13 10 19 10h29
c16 0 13 -13 8 -16l-152 -135c-12 -11 -17 -11 -26 -11z" />
    <glyph glyph-name="Ucircumflex" unicode="&#xdb;" horiz-adv-x="593" 
d="M503 670v-514c0 -100 -70 -165 -213 -165c-134 0 -200 65 -200 165v514c0 6 4 10 10 10h28c6 0 10 -4 10 -10v-507c0 -101 57 -130 153 -130s164 29 164 131v506c0 6 4 10 10 10h28c6 0 10 -4 10 -10zM449 742h-13c-13 0 -20 1 -29 11l-103 115c-2 1 -4 2 -8 2
c-5 0 -7 -1 -9 -2l-105 -115c-9 -9 -13 -11 -24 -11h-17c-6 0 -11 4 -8 8l124 146c4 5 9 8 15 8h49c6 0 11 -3 15 -8l121 -146c3 -4 -2 -8 -8 -8z" />
    <glyph glyph-name="Udieresis" unicode="&#xdc;" horiz-adv-x="593" 
d="M503 670v-514c0 -100 -70 -165 -213 -165c-134 0 -200 65 -200 165v514c0 6 4 10 10 10h28c6 0 10 -4 10 -10v-507c0 -101 57 -130 153 -130s164 29 164 131v506c0 6 4 10 10 10h28c6 0 10 -4 10 -10zM218 772h-40c-6 0 -10 4 -10 10v45c0 6 4 10 10 10h40
c6 0 10 -4 10 -10v-45c0 -6 -4 -10 -10 -10zM409 772h-40c-6 0 -10 4 -10 10v45c0 6 4 10 10 10h40c6 0 10 -4 10 -10v-45c0 -6 -4 -10 -10 -10z" />
    <glyph glyph-name="Yacute" unicode="&#xdd;" horiz-adv-x="450" 
d="M396 669c4 8 6 11 13 11h32c6 0 7 -4 5 -10c-41 -93 -118 -254 -164 -337c-28 -50 -35 -60 -35 -75v-248c0 -6 -4 -10 -10 -10h-28c-6 0 -10 4 -10 10v249c0 15 -8 29 -33 74c-45 80 -148 293 -162 337c-2 6 1 10 7 10h29c7 0 11 -3 14 -11c31 -74 121 -269 155 -330
c8 -14 9 -15 16 -15s8 1 16 15c36 66 123 252 155 330zM244 742h-19c-6 0 -7 6 -3 10l144 142c5 5 13 10 19 10h29c16 0 13 -13 8 -16l-152 -135c-12 -11 -17 -11 -26 -11z" />
    <glyph glyph-name="Thorn" unicode="&#xde;" horiz-adv-x="521" 
d="M100 10v660c0 6 4 10 10 10h28c6 0 10 -4 10 -10v-97c0 -6 1 -7 5 -7h122c120 0 186 -57 186 -190c0 -143 -74 -200 -203 -200h-104c-4 0 -6 -2 -6 -6v-160c0 -6 -4 -10 -10 -10h-28c-6 0 -10 4 -10 10zM154 215h102c97 0 156 39 156 159c0 117 -56 154 -156 154h-102
c-4 0 -6 -2 -6 -6v-301c0 -4 2 -6 6 -6z" />
    <glyph glyph-name="germandbls" unicode="&#xdf;" horiz-adv-x="599" 
d="M100 10v495c0 189 93 230 209 230c143 0 183 -58 183 -142c0 -109 -119 -123 -119 -200c0 -31 9 -56 72 -114c74 -68 99 -110 99 -166c0 -86 -61 -123 -176 -123c-47 0 -80 4 -111 10c-3 1 -4 2 -4 7l4 30c0 3 2 5 6 4c35 -7 67 -11 100 -11c87 0 137 20 137 76
c0 49 -21 80 -92 148c-66 63 -80 97 -80 136c0 98 119 104 119 201c0 67 -28 107 -137 107c-127 0 -164 -55 -164 -186v-502c0 -6 -4 -10 -10 -10h-26c-6 0 -10 4 -10 10z" />
    <glyph glyph-name="agrave" unicode="&#xe0;" horiz-adv-x="527" 
d="M262 506c-49 0 -102 -7 -134 -15c-6 -1 -9 1 -10 7l-4 18c-1 6 0 9 6 11c38 11 92 18 144 18c124 0 164 -46 164 -163v-362c0 -7 -1 -14 -11 -17c-33 -9 -85 -13 -137 -13c-160 0 -206 39 -206 148c0 95 19 145 162 155l143 10c4 1 6 4 6 8v57c0 102 -25 138 -123 138z
M385 42v211c0 4 -2 6 -6 6h-129c-106 0 -131 -33 -131 -116c0 -89 35 -116 161 -116c34 0 79 2 94 6c9 2 11 4 11 9zM293 610h-17c-9 0 -12 2 -21 16l-110 176c0 6 4 10 10 10h27c6 0 11 -4 15 -10l103 -186c2 -3 -1 -6 -7 -6z" />
    <glyph glyph-name="aacute" unicode="&#xe1;" horiz-adv-x="527" 
d="M262 506c-49 0 -102 -7 -134 -15c-6 -1 -9 1 -10 7l-4 18c-1 6 0 9 6 11c38 11 92 18 144 18c124 0 164 -46 164 -163v-362c0 -7 -1 -14 -11 -17c-33 -9 -85 -13 -137 -13c-160 0 -206 39 -206 148c0 95 19 145 162 155l143 10c4 1 6 4 6 8v57c0 102 -25 138 -123 138z
M385 42v211c0 4 -2 6 -6 6h-129c-106 0 -131 -33 -131 -116c0 -89 35 -116 161 -116c34 0 79 2 94 6c9 2 11 4 11 9zM255 610h-17c-6 0 -9 3 -7 6l103 186c4 6 9 10 15 10h27c6 0 10 -4 10 -10l-110 -176c-9 -14 -12 -16 -21 -16z" />
    <glyph glyph-name="acircumflex" unicode="&#xe2;" horiz-adv-x="527" 
d="M262 506c-49 0 -102 -7 -134 -15c-6 -1 -9 1 -10 7l-4 18c-1 6 0 9 6 11c38 11 92 18 144 18c124 0 164 -46 164 -163v-362c0 -7 -1 -14 -11 -17c-33 -9 -85 -13 -137 -13c-160 0 -206 39 -206 148c0 95 19 145 162 155l143 10c4 1 6 4 6 8v57c0 102 -25 138 -123 138z
M385 42v211c0 4 -2 6 -6 6h-129c-106 0 -131 -33 -131 -116c0 -89 35 -116 161 -116c34 0 79 2 94 6c9 2 11 4 11 9zM432 610h-13c-13 0 -20 1 -29 14l-104 145c-2 2 -4 3 -8 3c-6 0 -8 -1 -10 -3l-106 -145c-9 -12 -13 -14 -24 -14h-17c-6 0 -11 1 -8 6l125 180
c4 6 9 10 15 10h50c6 0 11 -4 15 -10l122 -180c3 -5 -2 -6 -8 -6z" />
    <glyph glyph-name="atilde" unicode="&#xe3;" horiz-adv-x="527" 
d="M262 506c-49 0 -102 -7 -134 -15c-6 -1 -9 1 -10 7l-4 18c-1 6 0 9 6 11c38 11 92 18 144 18c124 0 164 -46 164 -163v-362c0 -7 -1 -14 -11 -17c-33 -9 -85 -13 -137 -13c-160 0 -206 39 -206 148c0 95 19 145 162 155l143 10c4 1 6 4 6 8v57c0 102 -25 138 -123 138z
M385 42v211c0 4 -2 6 -6 6h-129c-106 0 -131 -33 -131 -116c0 -89 35 -116 161 -116c34 0 79 2 94 6c9 2 11 4 11 9zM293 705c26 -19 45 -28 61 -28c26 0 41 23 45 55c1 6 2 7 6 7h24c5 0 5 -3 5 -8c0 -37 -25 -91 -80 -91c-28 0 -45 8 -81 34c-26 19 -45 28 -61 28
c-26 0 -41 -23 -45 -55c-1 -6 -2 -7 -6 -7h-24c-5 0 -5 3 -5 8c0 37 25 91 80 91c28 0 45 -8 81 -34z" />
    <glyph glyph-name="adieresis" unicode="&#xe4;" horiz-adv-x="527" 
d="M262 506c-49 0 -102 -7 -134 -15c-6 -1 -9 1 -10 7l-4 18c-1 6 0 9 6 11c38 11 92 18 144 18c124 0 164 -46 164 -163v-362c0 -7 -1 -14 -11 -17c-33 -9 -85 -13 -137 -13c-160 0 -206 39 -206 148c0 95 19 145 162 155l143 10c4 1 6 4 6 8v57c0 102 -25 138 -123 138z
M385 42v211c0 4 -2 6 -6 6h-129c-106 0 -131 -33 -131 -116c0 -89 35 -116 161 -116c34 0 79 2 94 6c9 2 11 4 11 9zM200 659h-40c-6 0 -10 4 -10 10v45c0 6 4 10 10 10h40c6 0 10 -4 10 -10v-45c0 -6 -4 -10 -10 -10zM391 659h-40c-6 0 -10 4 -10 10v45c0 6 4 10 10 10h40
c6 0 10 -4 10 -10v-45c0 -6 -4 -10 -10 -10z" />
    <glyph glyph-name="aring" unicode="&#xe5;" horiz-adv-x="527" 
d="M262 506c-49 0 -102 -7 -134 -15c-6 -1 -9 1 -10 7l-4 18c-1 6 0 9 6 11c38 11 92 18 144 18c124 0 164 -46 164 -163v-362c0 -7 -1 -14 -11 -17c-33 -9 -85 -13 -137 -13c-160 0 -206 39 -206 148c0 95 19 145 162 155l143 10c4 1 6 4 6 8v57c0 102 -25 138 -123 138z
M385 42v211c0 4 -2 6 -6 6h-129c-106 0 -131 -33 -131 -116c0 -89 35 -116 161 -116c34 0 79 2 94 6c9 2 11 4 11 9zM164 712c0 80 39 107 111 107c70 0 110 -28 110 -96c0 -88 -50 -109 -110 -109s-111 20 -111 98zM350 719c0 62 -27 71 -75 71c-56 0 -78 -10 -78 -71
c0 -66 30 -76 78 -76c52 0 75 10 75 76z" />
    <glyph glyph-name="ae" unicode="&#xe6;" horiz-adv-x="824" 
d="M385 182v76c0 4 -2 5 -5 5h-97c-125 0 -164 -18 -164 -126c0 -87 49 -110 126 -110c107 0 140 72 140 155zM262 506c-49 0 -102 -7 -134 -15c-6 -1 -9 1 -10 7l-4 18c-1 6 0 9 6 11c38 11 92 18 144 18c83 0 125 -22 149 -85c2 -4 4 -4 6 0c20 43 71 85 155 85
c166 0 190 -93 190 -226v-15c0 -39 -9 -41 -26 -41h-307c-5 0 -6 -2 -6 -7c0 -154 35 -226 190 -226c47 0 88 10 119 25c6 3 13 2 15 -5l4 -19c1 -6 -1 -10 -7 -13c-39 -20 -89 -28 -141 -28c-111 0 -158 35 -192 96c-3 6 -6 6 -9 0c-20 -46 -58 -96 -165 -96
c-114 0 -165 40 -165 147c0 111 33 147 183 160l116 9c10 1 12 3 12 13v56c0 88 -22 131 -123 131zM431 300h277c9 0 12 2 12 36c0 110 -28 172 -146 172c-132 0 -149 -103 -149 -201c0 -4 1 -7 6 -7z" />
    <glyph glyph-name="ccedilla" unicode="&#xe7;" horiz-adv-x="421" 
d="M381 4c-26 -8 -55 -14 -94 -14c-4 0 -8 -2 -9 -7l-11 -49c-2 -8 5 -9 13 -9c52 0 88 -8 88 -67c0 -70 -34 -98 -138 -98c-15 0 -18 1 -19 7l-3 20c0 5 2 7 7 7h20c60 0 94 10 94 56c0 32 -9 44 -75 44h-22c-5 0 -7 2 -7 6l20 87c0 3 -1 5 -2 6c-123 17 -170 110 -170 271
c0 174 59 281 217 281c37 0 69 -5 89 -13c3 -1 4 -2 4 -7l-4 -27c0 -3 -2 -6 -6 -4c-19 7 -49 12 -82 12c-126 0 -170 -86 -170 -243c0 -148 42 -233 166 -233c28 0 63 7 86 15c4 1 6 1 7 -4l4 -29c1 -4 0 -7 -3 -8z" />
    <glyph glyph-name="egrave" unicode="&#xe8;" horiz-adv-x="529" 
d="M312 -10c-204 0 -239 126 -239 279c0 157 42 276 206 276c166 0 190 -93 190 -226v-15c0 -39 -9 -41 -26 -41h-317c-5 0 -6 -2 -6 -7c0 -154 45 -226 200 -226c44 0 90 10 121 23c6 3 13 2 14 -5l3 -19c1 -6 -1 -10 -7 -13c-39 -17 -87 -26 -139 -26zM126 300h287
c9 0 12 2 12 36c0 110 -28 172 -146 172c-132 0 -159 -103 -159 -201c0 -4 1 -7 6 -7zM310 610h-17c-9 0 -12 2 -21 16l-110 176c0 6 4 10 10 10h27c6 0 11 -4 15 -10l103 -186c2 -3 -1 -6 -7 -6z" />
    <glyph glyph-name="eacute" unicode="&#xe9;" horiz-adv-x="529" 
d="M312 -10c-204 0 -239 126 -239 279c0 157 42 276 206 276c166 0 190 -93 190 -226v-15c0 -39 -9 -41 -26 -41h-317c-5 0 -6 -2 -6 -7c0 -154 45 -226 200 -226c44 0 90 10 121 23c6 3 13 2 14 -5l3 -19c1 -6 -1 -10 -7 -13c-39 -17 -87 -26 -139 -26zM126 300h287
c9 0 12 2 12 36c0 110 -28 172 -146 172c-132 0 -159 -103 -159 -201c0 -4 1 -7 6 -7zM264 610h-17c-6 0 -9 3 -7 6l103 186c4 6 9 10 15 10h27c6 0 10 -4 10 -10l-110 -176c-9 -14 -12 -16 -21 -16z" />
    <glyph glyph-name="ecircumflex" unicode="&#xea;" horiz-adv-x="529" 
d="M312 -10c-204 0 -239 126 -239 279c0 157 42 276 206 276c166 0 190 -93 190 -226v-15c0 -39 -9 -41 -26 -41h-317c-5 0 -6 -2 -6 -7c0 -154 45 -226 200 -226c44 0 90 10 121 23c6 3 13 2 14 -5l3 -19c1 -6 -1 -10 -7 -13c-39 -17 -87 -26 -139 -26zM126 300h287
c9 0 12 2 12 36c0 110 -28 172 -146 172c-132 0 -159 -103 -159 -201c0 -4 1 -7 6 -7zM443 610h-13c-13 0 -20 1 -29 14l-104 145c-2 2 -4 3 -8 3c-6 0 -8 -1 -10 -3l-106 -145c-9 -12 -13 -14 -24 -14h-17c-6 0 -11 1 -8 6l125 180c4 6 9 10 15 10h50c6 0 11 -4 15 -10
l122 -180c3 -5 -2 -6 -8 -6z" />
    <glyph glyph-name="edieresis" unicode="&#xeb;" horiz-adv-x="529" 
d="M312 -10c-204 0 -239 126 -239 279c0 157 42 276 206 276c166 0 190 -93 190 -226v-15c0 -39 -9 -41 -26 -41h-317c-5 0 -6 -2 -6 -7c0 -154 45 -226 200 -226c44 0 90 10 121 23c6 3 13 2 14 -5l3 -19c1 -6 -1 -10 -7 -13c-39 -17 -87 -26 -139 -26zM126 300h287
c9 0 12 2 12 36c0 110 -28 172 -146 172c-132 0 -159 -103 -159 -201c0 -4 1 -7 6 -7zM206 659h-40c-6 0 -10 4 -10 10v45c0 6 4 10 10 10h40c6 0 10 -4 10 -10v-45c0 -6 -4 -10 -10 -10zM397 659h-40c-6 0 -10 4 -10 10v45c0 6 4 10 10 10h40c6 0 10 -4 10 -10v-45
c0 -6 -4 -10 -10 -10z" />
    <glyph glyph-name="igrave" unicode="&#xec;" horiz-adv-x="259" 
d="M146 610h-17c-9 0 -12 2 -21 16l-110 176c0 6 4 10 10 10h27c6 0 11 -4 15 -10l103 -186c2 -3 -1 -6 -7 -6zM143 0h-27c-6 0 -10 4 -10 10v515c0 6 4 10 10 10h27c6 0 10 -4 10 -10v-515c0 -6 -4 -10 -10 -10z" />
    <glyph glyph-name="iacute" unicode="&#xed;" horiz-adv-x="259" 
d="M133 610h-17c-6 0 -9 3 -7 6l103 186c4 6 9 10 15 10h27c6 0 10 -4 10 -10l-110 -176c-9 -14 -12 -16 -21 -16zM143 0h-27c-6 0 -10 4 -10 10v515c0 6 4 10 10 10h27c6 0 10 -4 10 -10v-515c0 -6 -4 -10 -10 -10z" />
    <glyph glyph-name="icircumflex" unicode="&#xee;" horiz-adv-x="259" 
d="M143 0h-27c-6 0 -10 4 -10 10v515c0 6 4 10 10 10h27c6 0 10 -4 10 -10v-515c0 -6 -4 -10 -10 -10zM286 610h-13c-13 0 -20 1 -29 14l-104 145c-2 2 -4 3 -8 3c-6 0 -8 -1 -10 -3l-106 -145c-9 -12 -13 -14 -24 -14h-17c-6 0 -11 1 -8 6l125 180c4 6 9 10 15 10h50
c6 0 11 -4 15 -10l122 -180c3 -5 -2 -6 -8 -6z" />
    <glyph glyph-name="idieresis" unicode="&#xef;" horiz-adv-x="259" 
d="M55 659h-40c-6 0 -10 4 -10 10v45c0 6 4 10 10 10h40c6 0 10 -4 10 -10v-45c0 -6 -4 -10 -10 -10zM246 659h-40c-6 0 -10 4 -10 10v45c0 6 4 10 10 10h40c6 0 10 -4 10 -10v-45c0 -6 -4 -10 -10 -10zM143 0h-27c-6 0 -10 4 -10 10v515c0 6 4 10 10 10h27
c6 0 10 -4 10 -10v-515c0 -6 -4 -10 -10 -10z" />
    <glyph glyph-name="eth" unicode="&#xf0;" horiz-adv-x="571" 
d="M325 631l-156 -41c-7 -2 -12 0 -12 4v28c0 4 2 6 9 8l129 31c6 1 8 4 8 7c-17 18 -37 38 -60 58c-3 5 0 9 9 9h33c7 0 13 -4 16 -7c17 -16 32 -32 47 -48c2 -2 5 -2 9 -1l94 25c7 2 12 0 12 -4v-25c0 -4 -1 -8 -7 -9l-70 -19c-4 -1 -8 -3 -8 -5
c78 -106 114 -232 114 -386c0 -187 -45 -266 -206 -266c-162 0 -207 75 -207 262c0 188 33 268 196 268c67 0 101 -20 122 -20c5 0 9 3 9 8c0 4 -2 11 -4 15c-5 10 -20 50 -65 106c-2 2 -6 3 -12 2zM128 251c0 -165 26 -222 158 -222c117 0 158 36 158 219
c0 174 -29 235 -168 235c-123 0 -148 -60 -148 -232z" />
    <glyph glyph-name="ntilde" unicode="&#xf1;" horiz-adv-x="556" 
d="M273 545c137 0 193 -38 193 -162v-373c0 -6 -4 -10 -10 -10h-26c-6 0 -10 4 -10 10v366c0 95 -32 130 -149 130c-48 0 -98 -6 -120 -11c-7 -2 -10 -4 -10 -11v-474c0 -6 -4 -10 -10 -10h-26c-6 0 -10 4 -10 10v508c0 6 3 9 9 10c54 12 120 17 169 17zM303 705
c26 -19 45 -28 61 -28c26 0 41 23 45 55c1 6 2 7 6 7h24c5 0 5 -3 5 -8c0 -37 -25 -91 -80 -91c-28 0 -45 8 -81 34c-26 19 -45 28 -61 28c-26 0 -41 -23 -45 -55c-1 -6 -2 -7 -6 -7h-24c-5 0 -5 3 -5 8c0 37 25 91 80 91c28 0 45 -8 81 -34z" />
    <glyph glyph-name="ograve" unicode="&#xf2;" horiz-adv-x="570" 
d="M119 270c0 -95 18 -175 52 -208c22 -21 40 -30 112 -30c76 0 95 9 117 30c34 33 52 113 52 208c0 98 -17 172 -51 205c-22 21 -42 31 -115 31c-75 0 -94 -10 -116 -31c-34 -33 -51 -107 -51 -205zM497 272c0 -100 -20 -189 -56 -231c-34 -38 -79 -51 -158 -51
c-80 0 -120 13 -154 51c-36 42 -56 131 -56 231c0 101 19 180 56 221c34 39 78 52 156 52c80 0 123 -14 157 -52c36 -42 55 -120 55 -221zM313 610h-17c-9 0 -12 2 -21 16l-110 176c0 6 4 10 10 10h27c6 0 11 -4 15 -10l103 -186c2 -3 -1 -6 -7 -6z" />
    <glyph glyph-name="oacute" unicode="&#xf3;" horiz-adv-x="570" 
d="M119 270c0 -95 18 -175 52 -208c22 -21 40 -30 112 -30c76 0 95 9 117 30c34 33 52 113 52 208c0 98 -17 172 -51 205c-22 21 -42 31 -115 31c-75 0 -94 -10 -116 -31c-34 -33 -51 -107 -51 -205zM497 272c0 -100 -20 -189 -56 -231c-34 -38 -79 -51 -158 -51
c-80 0 -120 13 -154 51c-36 42 -56 131 -56 231c0 101 19 180 56 221c34 39 78 52 156 52c80 0 123 -14 157 -52c36 -42 55 -120 55 -221zM270 610h-17c-6 0 -9 3 -7 6l103 186c4 6 9 10 15 10h27c6 0 10 -4 10 -10l-110 -176c-9 -14 -12 -16 -21 -16z" />
    <glyph glyph-name="ocircumflex" unicode="&#xf4;" horiz-adv-x="570" 
d="M119 270c0 -95 18 -175 52 -208c22 -21 40 -30 112 -30c76 0 95 9 117 30c34 33 52 113 52 208c0 98 -17 172 -51 205c-22 21 -42 31 -115 31c-75 0 -94 -10 -116 -31c-34 -33 -51 -107 -51 -205zM497 272c0 -100 -20 -189 -56 -231c-34 -38 -79 -51 -158 -51
c-80 0 -120 13 -154 51c-36 42 -56 131 -56 231c0 101 19 180 56 221c34 39 78 52 156 52c80 0 123 -14 157 -52c36 -42 55 -120 55 -221zM442 610h-13c-13 0 -20 1 -29 14l-104 145c-2 2 -4 3 -8 3c-6 0 -8 -1 -10 -3l-106 -145c-9 -12 -13 -14 -24 -14h-17
c-6 0 -11 1 -8 6l125 180c4 6 9 10 15 10h50c6 0 11 -4 15 -10l122 -180c3 -5 -2 -6 -8 -6z" />
    <glyph glyph-name="otilde" unicode="&#xf5;" horiz-adv-x="570" 
d="M119 270c0 -95 18 -175 52 -208c22 -21 40 -30 112 -30c76 0 95 9 117 30c34 33 52 113 52 208c0 98 -17 172 -51 205c-22 21 -42 31 -115 31c-75 0 -94 -10 -116 -31c-34 -33 -51 -107 -51 -205zM497 272c0 -100 -20 -189 -56 -231c-34 -38 -79 -51 -158 -51
c-80 0 -120 13 -154 51c-36 42 -56 131 -56 231c0 101 19 180 56 221c34 39 78 52 156 52c80 0 123 -14 157 -52c36 -42 55 -120 55 -221zM302 705c26 -19 45 -28 61 -28c26 0 41 23 45 55c1 6 2 7 6 7h24c5 0 5 -3 5 -8c0 -37 -25 -91 -80 -91c-28 0 -45 8 -81 34
c-26 19 -45 28 -61 28c-26 0 -41 -23 -45 -55c-1 -6 -2 -7 -6 -7h-24c-5 0 -5 3 -5 8c0 37 25 91 80 91c28 0 45 -8 81 -34z" />
    <glyph glyph-name="odieresis" unicode="&#xf6;" horiz-adv-x="570" 
d="M119 270c0 -95 18 -175 52 -208c22 -21 40 -30 112 -30c76 0 95 9 117 30c34 33 52 113 52 208c0 98 -17 172 -51 205c-22 21 -42 31 -115 31c-75 0 -94 -10 -116 -31c-34 -33 -51 -107 -51 -205zM497 272c0 -100 -20 -189 -56 -231c-34 -38 -79 -51 -158 -51
c-80 0 -120 13 -154 51c-36 42 -56 131 -56 231c0 101 19 180 56 221c34 39 78 52 156 52c80 0 123 -14 157 -52c36 -42 55 -120 55 -221zM212 659h-40c-6 0 -10 4 -10 10v45c0 6 4 10 10 10h40c6 0 10 -4 10 -10v-45c0 -6 -4 -10 -10 -10zM403 659h-40c-6 0 -10 4 -10 10
v45c0 6 4 10 10 10h40c6 0 10 -4 10 -10v-45c0 -6 -4 -10 -10 -10z" />
    <glyph glyph-name="divide" unicode="&#xf7;" 
d="M289 356h-40c-6 0 -10 4 -10 10v45c0 6 4 10 10 10h40c6 0 10 -4 10 -10v-45c0 -6 -4 -10 -10 -10zM289 66h-40c-6 0 -10 4 -10 10v45c0 6 4 10 10 10h40c6 0 10 -4 10 -10v-45c0 -6 -4 -10 -10 -10zM80 270h380c6 0 10 -4 10 -10v-20c0 -6 -4 -10 -10 -10h-380
c-6 0 -10 4 -10 10v20c0 6 4 10 10 10z" />
    <glyph glyph-name="oslash" unicode="&#xf8;" horiz-adv-x="570" 
d="M497 272c0 -100 -20 -189 -56 -231c-34 -38 -79 -51 -158 -51c-50 0 -85 5 -112 18c-8 2 -12 -3 -17 -12l-24 -42c-3 -5 -8 -9 -16 -9h-21c-6 0 -11 6 -6 14l41 68c3 5 4 9 1 14c-36 42 -56 131 -56 231c0 101 19 180 56 221c34 39 78 52 156 52c51 0 86 -6 114 -20
c2 -1 14 -5 24 12l24 42c4 7 8 9 16 9h21c6 0 11 -6 6 -14l-38 -62c-4 -7 -9 -19 -2 -30c30 -44 47 -117 47 -210zM119 270c0 -95 18 -175 52 -208c22 -21 40 -30 112 -30c76 0 95 9 117 30c34 33 52 113 52 208c0 98 -17 172 -51 205c-22 21 -42 31 -115 31
c-75 0 -94 -10 -116 -31c-34 -33 -51 -107 -51 -205z" />
    <glyph glyph-name="ugrave" unicode="&#xf9;" horiz-adv-x="556" 
d="M283 -10c-137 0 -193 38 -193 162v373c0 6 4 10 10 10h26c6 0 10 -4 10 -10v-366c0 -95 32 -130 149 -130c48 0 98 6 120 11c7 2 10 4 10 11v474c0 6 4 10 10 10h26c6 0 10 -4 10 -10v-507c0 -6 -4 -10 -10 -10c-54 -12 -119 -18 -168 -18zM305 610h-17
c-9 0 -12 2 -21 16l-110 176c0 6 4 10 10 10h27c6 0 11 -4 15 -10l103 -186c2 -3 -1 -6 -7 -6z" />
    <glyph glyph-name="uacute" unicode="&#xfa;" horiz-adv-x="556" 
d="M283 -10c-137 0 -193 38 -193 162v373c0 6 4 10 10 10h26c6 0 10 -4 10 -10v-366c0 -95 32 -130 149 -130c48 0 98 6 120 11c7 2 10 4 10 11v474c0 6 4 10 10 10h26c6 0 10 -4 10 -10v-507c0 -6 -4 -10 -10 -10c-54 -12 -119 -18 -168 -18zM259 610h-17c-6 0 -9 3 -7 6
l103 186c4 6 9 10 15 10h27c6 0 10 -4 10 -10l-110 -176c-9 -14 -12 -16 -21 -16z" />
    <glyph glyph-name="ucircumflex" unicode="&#xfb;" horiz-adv-x="556" 
d="M283 -10c-137 0 -193 38 -193 162v373c0 6 4 10 10 10h26c6 0 10 -4 10 -10v-366c0 -95 32 -130 149 -130c48 0 98 6 120 11c7 2 10 4 10 11v474c0 6 4 10 10 10h26c6 0 10 -4 10 -10v-507c0 -6 -4 -10 -10 -10c-54 -12 -119 -18 -168 -18zM437 610h-13
c-13 0 -20 1 -29 14l-104 145c-2 2 -4 3 -8 3c-6 0 -8 -1 -10 -3l-106 -145c-9 -12 -13 -14 -24 -14h-17c-6 0 -11 1 -8 6l125 180c4 6 9 10 15 10h50c6 0 11 -4 15 -10l122 -180c3 -5 -2 -6 -8 -6z" />
    <glyph glyph-name="udieresis" unicode="&#xfc;" horiz-adv-x="556" 
d="M283 -10c-137 0 -193 38 -193 162v373c0 6 4 10 10 10h26c6 0 10 -4 10 -10v-366c0 -95 32 -130 149 -130c48 0 98 6 120 11c7 2 10 4 10 11v474c0 6 4 10 10 10h26c6 0 10 -4 10 -10v-507c0 -6 -4 -10 -10 -10c-54 -12 -119 -18 -168 -18zM211 659h-40
c-6 0 -10 4 -10 10v45c0 6 4 10 10 10h40c6 0 10 -4 10 -10v-45c0 -6 -4 -10 -10 -10zM402 659h-40c-6 0 -10 4 -10 10v45c0 6 4 10 10 10h40c6 0 10 -4 10 -10v-45c0 -6 -4 -10 -10 -10z" />
    <glyph glyph-name="yacute" unicode="&#xfd;" horiz-adv-x="455" 
d="M192 19c-41 108 -149 441 -165 507c0 6 2 9 9 9h30c6 0 8 -4 9 -9c35 -127 113 -373 148 -471c1 -5 4 -6 9 -6c7 0 8 1 10 6c34 98 111 344 141 471c2 6 6 9 13 9h25c6 0 8 -4 8 -9c-12 -65 -112 -376 -148 -479c-59 -171 -86 -227 -187 -227c-16 0 -40 2 -47 4
c-3 1 -4 2 -4 7v26c0 3 2 5 6 4c14 -2 30 -3 43 -3c64 0 87 27 128 133c1 3 3 9 3 13c0 2 -1 3 -3 3h-12c-8 0 -13 3 -16 12zM226 610h-17c-6 0 -9 3 -7 6l103 186c4 6 9 10 15 10h27c6 0 10 -4 10 -10l-110 -176c-9 -14 -12 -16 -21 -16z" />
    <glyph glyph-name="thorn" unicode="&#xfe;" horiz-adv-x="557" 
d="M261 506c-47 0 -87 -5 -111 -11c-8 -2 -9 -7 -9 -17v-418c0 -6 2 -9 12 -11c24 -5 66 -10 105 -10c131 0 172 71 172 238c0 169 -34 229 -169 229zM95 -170v893c0 6 4 10 10 10h26c6 0 10 -4 10 -10v-179c0 -6 1 -9 5 -9c16 0 55 10 118 10c162 0 214 -71 214 -268
c0 -173 -45 -277 -221 -277c-31 0 -81 5 -110 10c-4 1 -6 -1 -6 -7v-173c0 -6 -4 -10 -10 -10h-26c-6 0 -10 4 -10 10z" />
    <glyph glyph-name="ydieresis" unicode="&#xff;" horiz-adv-x="455" 
d="M192 19c-41 108 -149 441 -165 507c0 6 2 9 9 9h30c6 0 8 -4 9 -9c35 -127 113 -373 148 -471c1 -5 4 -6 9 -6c7 0 8 1 10 6c34 98 111 344 141 471c2 6 6 9 13 9h25c6 0 8 -4 8 -9c-12 -65 -112 -376 -148 -479c-59 -171 -86 -227 -187 -227c-16 0 -40 2 -47 4
c-3 1 -4 2 -4 7v26c0 3 2 5 6 4c14 -2 30 -3 43 -3c64 0 87 27 128 133c1 3 3 9 3 13c0 2 -1 3 -3 3h-12c-8 0 -13 3 -16 12zM158 659h-40c-6 0 -10 4 -10 10v45c0 6 4 10 10 10h40c6 0 10 -4 10 -10v-45c0 -6 -4 -10 -10 -10zM349 659h-40c-6 0 -10 4 -10 10v45
c0 6 4 10 10 10h40c6 0 10 -4 10 -10v-45c0 -6 -4 -10 -10 -10z" />
    <glyph glyph-name="Amacron" unicode="&#x100;" horiz-adv-x="508" 
d="M393 192c-1 5 -3 7 -8 7h-260c-5 0 -8 -1 -10 -7c-14 -46 -38 -132 -51 -182c-3 -8 -7 -10 -13 -10h-30c-6 0 -9 4 -7 10c33 120 154 526 198 660c2 6 6 10 12 10h71c7 0 10 -4 12 -10c44 -149 165 -572 187 -660c2 -6 -1 -10 -7 -10h-34c-5 0 -9 1 -11 10
c-12 50 -35 136 -49 182zM139 239h231c7 0 9 2 9 8c-16 65 -74 279 -104 383c-2 6 -3 7 -17 7c-13 0 -15 -1 -17 -7c-31 -102 -92 -314 -111 -383c0 -6 2 -8 9 -8zM370 771h-214c-6 0 -10 4 -10 10v19c0 6 4 10 10 10h214c6 0 10 -4 10 -10v-19c0 -6 -4 -10 -10 -10z" />
    <glyph glyph-name="amacron" unicode="&#x101;" horiz-adv-x="527" 
d="M262 506c-49 0 -102 -7 -134 -15c-6 -1 -9 1 -10 7l-4 18c-1 6 0 9 6 11c38 11 92 18 144 18c124 0 164 -46 164 -163v-362c0 -7 -1 -14 -11 -17c-33 -9 -85 -13 -137 -13c-160 0 -206 39 -206 148c0 95 19 145 162 155l143 10c4 1 6 4 6 8v57c0 102 -25 138 -123 138z
M385 42v211c0 4 -2 6 -6 6h-129c-106 0 -131 -33 -131 -116c0 -89 35 -116 161 -116c34 0 79 2 94 6c9 2 11 4 11 9zM384 665h-214c-6 0 -10 4 -10 10v19c0 6 4 10 10 10h214c6 0 10 -4 10 -10v-19c0 -6 -4 -10 -10 -10z" />
    <glyph glyph-name="Abreve" unicode="&#x102;" horiz-adv-x="508" 
d="M393 192c-1 5 -3 7 -8 7h-260c-5 0 -8 -1 -10 -7c-14 -46 -38 -132 -51 -182c-3 -8 -7 -10 -13 -10h-30c-6 0 -9 4 -7 10c33 120 154 526 198 660c2 6 6 10 12 10h71c7 0 10 -4 12 -10c44 -149 165 -572 187 -660c2 -6 -1 -10 -7 -10h-34c-5 0 -9 1 -11 10
c-12 50 -35 136 -49 182zM139 239h231c7 0 9 2 9 8c-16 65 -74 279 -104 383c-2 6 -3 7 -17 7c-13 0 -15 -1 -17 -7c-31 -102 -92 -314 -111 -383c0 -6 2 -8 9 -8zM262 776c76 0 98 17 98 91c0 7 3 8 11 8h16c6 0 10 -2 10 -8c0 -89 -27 -126 -136 -126s-134 37 -134 126
c0 6 4 8 10 8h17c8 0 10 -1 10 -8c0 -74 22 -91 98 -91z" />
    <glyph glyph-name="abreve" unicode="&#x103;" horiz-adv-x="527" 
d="M262 506c-49 0 -102 -7 -134 -15c-6 -1 -9 1 -10 7l-4 18c-1 6 0 9 6 11c38 11 92 18 144 18c124 0 164 -46 164 -163v-362c0 -7 -1 -14 -11 -17c-33 -9 -85 -13 -137 -13c-160 0 -206 39 -206 148c0 95 19 145 162 155l143 10c4 1 6 4 6 8v57c0 102 -25 138 -123 138z
M385 42v211c0 4 -2 6 -6 6h-129c-106 0 -131 -33 -131 -116c0 -89 35 -116 161 -116c34 0 79 2 94 6c9 2 11 4 11 9zM276 665c76 0 98 20 98 94c0 7 3 8 11 8h16c6 0 10 -2 10 -8c0 -89 -27 -129 -136 -129s-134 40 -134 129c0 6 4 8 10 8h17c8 0 10 -1 10 -8
c0 -74 22 -94 98 -94z" />
    <glyph glyph-name="Aogonek" unicode="&#x104;" horiz-adv-x="508" 
d="M405 -133c0 -35 19 -49 50 -49c14 0 30 1 45 4c4 1 8 2 12 2c3 0 5 -2 5 -10v-9c0 -6 -2 -10 -7 -12c-20 -7 -41 -10 -65 -10c-56 0 -85 24 -85 79c0 50 34 95 83 143l-1 5c-12 50 -35 136 -49 182c-1 5 -3 7 -8 7h-260c-5 0 -8 -1 -10 -7c-14 -46 -38 -132 -51 -182
c-3 -8 -7 -10 -13 -10h-30c-6 0 -9 4 -7 10c33 120 152 526 196 660c2 6 6 10 12 10h75c7 0 10 -4 12 -10c44 -149 163 -572 185 -660c2 -6 -1 -10 -7 -10h-10c-51 -54 -72 -88 -72 -133zM139 239h231c7 0 9 2 9 8c-16 65 -74 279 -104 383c-2 6 -3 7 -17 7
c-13 0 -15 -1 -17 -7c-31 -102 -92 -314 -111 -383c0 -6 2 -8 9 -8z" />
    <glyph glyph-name="aogonek" unicode="&#x105;" horiz-adv-x="527" 
d="M344 -133c0 -35 19 -49 50 -49c14 0 30 1 45 4c4 1 8 2 12 2c3 0 5 -2 5 -10v-9c0 -6 -2 -10 -7 -12c-20 -7 -41 -10 -65 -10c-56 0 -85 24 -85 79c0 46 29 88 72 133c-27 -3 -59 -5 -91 -5c-160 0 -206 39 -206 148c0 95 19 145 162 155l143 10c4 1 6 4 6 8v57
c0 102 -25 138 -123 138c-49 0 -102 -7 -134 -15c-6 -1 -9 1 -10 7l-4 18c-1 6 0 9 6 11c38 11 92 18 144 18c124 0 164 -46 164 -163v-362c0 -6 -1 -12 -8 -16c-54 -57 -76 -91 -76 -137zM385 42v211c0 4 -2 6 -6 6h-129c-106 0 -131 -33 -131 -116c0 -89 35 -116 161 -116
c34 0 79 2 94 6c9 2 11 4 11 9z" />
    <glyph glyph-name="Cacute" unicode="&#x106;" horiz-adv-x="480" 
d="M441 7c-32 -10 -81 -17 -130 -17c-176 0 -238 123 -238 345c0 218 67 355 243 355c58 0 97 -8 122 -17c4 -2 5 -3 5 -9l-3 -29c0 -3 -3 -7 -8 -5c-24 9 -69 17 -110 17c-158 0 -199 -115 -199 -312c0 -189 37 -302 199 -302c35 0 84 7 109 14c5 1 12 2 13 -4l1 -25
c1 -6 -1 -10 -4 -11zM290 742h-19c-6 0 -7 6 -3 10l144 142c5 5 13 10 19 10h29c16 0 13 -13 8 -16l-152 -135c-12 -11 -17 -11 -26 -11z" />
    <glyph glyph-name="cacute" unicode="&#x107;" horiz-adv-x="421" 
d="M381 4c-26 -8 -56 -14 -95 -14c-155 0 -213 96 -213 274c0 174 59 281 217 281c37 0 69 -5 89 -13c3 -1 4 -2 4 -7l-4 -27c0 -3 -2 -6 -6 -4c-19 7 -49 12 -82 12c-126 0 -170 -86 -170 -243c0 -148 42 -233 166 -233c28 0 63 7 86 15c4 1 6 1 7 -4l4 -29
c1 -4 0 -7 -3 -8zM251 610h-17c-6 0 -9 3 -7 6l103 186c4 6 9 10 15 10h27c6 0 10 -4 10 -10l-110 -176c-9 -14 -12 -16 -21 -16z" />
    <glyph glyph-name="Ccircumflex" unicode="&#x108;" horiz-adv-x="480" 
d="M441 7c-32 -10 -81 -17 -130 -17c-176 0 -238 123 -238 345c0 218 67 355 243 355c58 0 97 -8 122 -17c4 -2 5 -3 5 -9l-3 -29c0 -3 -3 -7 -8 -5c-24 9 -69 17 -110 17c-158 0 -199 -115 -199 -312c0 -189 37 -302 199 -302c35 0 84 7 109 14c5 1 12 2 13 -4l1 -25
c1 -6 -1 -10 -4 -11zM462 742h-13c-13 0 -20 1 -29 11l-103 115c-2 1 -4 2 -8 2c-5 0 -7 -1 -9 -2l-105 -115c-9 -9 -13 -11 -24 -11h-17c-6 0 -11 4 -8 8l124 146c4 5 9 8 15 8h49c6 0 11 -3 15 -8l121 -146c3 -4 -2 -8 -8 -8z" />
    <glyph glyph-name="ccircumflex" unicode="&#x109;" horiz-adv-x="421" 
d="M381 4c-26 -8 -56 -14 -95 -14c-155 0 -213 96 -213 274c0 174 59 281 217 281c37 0 69 -5 89 -13c3 -1 4 -2 4 -7l-4 -27c0 -3 -2 -6 -6 -4c-19 7 -49 12 -82 12c-126 0 -170 -86 -170 -243c0 -148 42 -233 166 -233c28 0 63 7 86 15c4 1 6 1 7 -4l4 -29
c1 -4 0 -7 -3 -8zM425 610h-13c-13 0 -20 1 -29 14l-104 145c-2 2 -4 3 -8 3c-6 0 -8 -1 -10 -3l-106 -145c-9 -12 -13 -14 -24 -14h-17c-6 0 -11 1 -8 6l125 180c4 6 9 10 15 10h50c6 0 11 -4 15 -10l122 -180c3 -5 -2 -6 -8 -6z" />
    <glyph glyph-name="Cdotaccent" unicode="&#x10a;" horiz-adv-x="480" 
d="M441 7c-32 -10 -81 -17 -130 -17c-176 0 -238 123 -238 345c0 218 67 355 243 355c58 0 97 -8 122 -17c4 -2 5 -3 5 -9l-3 -29c0 -3 -3 -7 -8 -5c-24 9 -69 17 -110 17c-158 0 -199 -115 -199 -312c0 -189 37 -302 199 -302c35 0 84 7 109 14c5 1 12 2 13 -4l1 -25
c1 -6 -1 -10 -4 -11zM348 771h-40c-6 0 -10 4 -10 10v45c0 6 4 10 10 10h40c6 0 10 -4 10 -10v-45c0 -6 -4 -10 -10 -10z" />
    <glyph glyph-name="cdotaccent" unicode="&#x10b;" horiz-adv-x="421" 
d="M381 4c-26 -8 -56 -14 -95 -14c-155 0 -213 96 -213 274c0 174 59 281 217 281c37 0 69 -5 89 -13c3 -1 4 -2 4 -7l-4 -27c0 -3 -2 -6 -6 -4c-19 7 -49 12 -82 12c-126 0 -170 -86 -170 -243c0 -148 42 -233 166 -233c28 0 63 7 86 15c4 1 6 1 7 -4l4 -29
c1 -4 0 -7 -3 -8zM308 659h-40c-6 0 -10 4 -10 10v45c0 6 4 10 10 10h40c6 0 10 -4 10 -10v-45c0 -6 -4 -10 -10 -10z" />
    <glyph glyph-name="Ccaron" unicode="&#x10c;" horiz-adv-x="480" 
d="M441 7c-32 -10 -81 -17 -130 -17c-176 0 -238 123 -238 345c0 218 67 355 243 355c58 0 97 -8 122 -17c4 -2 5 -3 5 -9l-3 -29c0 -3 -3 -7 -8 -5c-24 9 -69 17 -110 17c-158 0 -199 -115 -199 -312c0 -189 37 -302 199 -302c35 0 84 7 109 14c5 1 12 2 13 -4l1 -25
c1 -6 -1 -10 -4 -11zM179 892h13c13 0 20 -1 29 -11l103 -115c2 -1 4 -2 8 -2c5 0 7 1 9 2l105 115c9 9 13 11 24 11h17c6 0 11 -4 8 -8l-124 -146c-4 -5 -9 -8 -15 -8h-49c-6 0 -11 3 -15 8l-121 146c-3 4 2 8 8 8z" />
    <glyph glyph-name="ccaron" unicode="&#x10d;" horiz-adv-x="421" 
d="M381 4c-26 -8 -56 -14 -95 -14c-155 0 -213 96 -213 274c0 174 59 281 217 281c37 0 69 -5 89 -13c3 -1 4 -2 4 -7l-4 -27c0 -3 -2 -6 -6 -4c-19 7 -49 12 -82 12c-126 0 -170 -86 -170 -243c0 -148 42 -233 166 -233c28 0 63 7 86 15c4 1 6 1 7 -4l4 -29
c1 -4 0 -7 -3 -8zM119 800h13c13 0 20 -1 29 -14l104 -145c2 -2 4 -3 8 -3c6 0 8 1 10 3l106 145c9 12 13 14 24 14h17c6 0 11 -1 8 -6l-125 -180c-4 -6 -9 -10 -15 -10h-50c-6 0 -11 4 -15 10l-122 180c-3 5 2 6 8 6z" />
    <glyph glyph-name="Dcaron" unicode="&#x10e;" horiz-adv-x="617" 
d="M496 345c0 178 -37 293 -205 293h-137c-4 0 -6 -2 -6 -6v-584c0 -5 1 -6 5 -6h139c162 0 204 121 204 303zM110 680h187c204 0 249 -145 249 -335s-50 -345 -249 -345h-187c-6 0 -10 4 -10 10v660c0 6 4 10 10 10zM134 892h13c13 0 20 -1 29 -11l103 -115c2 -1 4 -2 8 -2
c5 0 7 1 9 2l105 115c9 9 13 11 24 11h17c6 0 11 -4 8 -8l-124 -146c-4 -5 -9 -8 -15 -8h-49c-6 0 -11 3 -15 8l-121 146c-3 4 2 8 8 8z" />
    <glyph glyph-name="dcaron" unicode="&#x10f;" horiz-adv-x="551" 
d="M300 -10c-186 0 -227 97 -227 270c0 197 49 285 230 285c31 0 72 -5 101 -10c4 -1 6 1 6 7v183c0 6 4 10 10 10h26c6 0 10 -4 10 -10v-710c0 -6 -2 -8 -10 -10c-45 -10 -92 -15 -146 -15zM410 58v421c0 10 0 14 -8 16c-24 5 -65 11 -100 11c-149 0 -181 -70 -181 -246
c0 -167 42 -230 179 -230c47 0 77 5 101 11c8 2 9 7 9 17zM544 618h-17c-6 0 -8 4 -7 7l48 192c2 7 8 10 14 10h29c7 0 11 -5 9 -11l-58 -179c-5 -16 -9 -19 -18 -19z" />
    <glyph glyph-name="Dcroat" unicode="&#x110;" horiz-adv-x="617" 
d="M110 680h187c204 0 249 -145 249 -335s-50 -345 -249 -345h-187c-6 0 -10 4 -10 10v316c-1 3 -3 5 -6 5h-61c-6 0 -10 4 -10 10v18c0 6 4 10 10 10h61c3 0 5 1 6 4v297c0 6 4 10 10 10zM496 345c0 178 -37 293 -205 293h-137c-4 0 -6 -2 -6 -6v-257c0 -4 2 -6 6 -6h119
c6 0 10 -4 10 -10v-18c0 -6 -4 -10 -10 -10h-119c-4 0 -6 -2 -6 -6v-277c0 -5 1 -6 5 -6h139c162 0 204 121 204 303z" />
    <glyph glyph-name="dcroat" unicode="&#x111;" horiz-adv-x="551" 
d="M300 -10c-186 0 -227 97 -227 270c0 197 49 285 230 285c31 0 72 -5 101 -10c4 -1 6 1 6 7v75c0 3 -3 5 -6 5h-106c-6 0 -10 4 -10 10v15c0 6 4 10 10 10h106c3 0 6 1 6 4v64c0 6 4 10 10 10h26c6 0 10 -4 10 -10v-64c0 -3 2 -4 6 -4h56c6 0 10 -4 10 -10v-15
c0 -6 -4 -10 -10 -10h-56c-4 0 -6 -3 -6 -5v-602c0 -6 -2 -8 -10 -10c-45 -10 -92 -15 -146 -15zM410 58v421c0 10 0 14 -8 16c-24 5 -65 11 -100 11c-149 0 -181 -70 -181 -246c0 -167 42 -230 179 -230c47 0 77 5 101 11c8 2 9 7 9 17z" />
    <glyph glyph-name="Emacron" unicode="&#x112;" horiz-adv-x="465" 
d="M100 10v660c0 6 4 10 10 10h278c6 0 10 -4 10 -10v-22c0 -6 -4 -10 -10 -10h-234c-4 0 -6 -2 -6 -6v-252c0 -4 2 -6 6 -6h221c6 0 10 -4 10 -10v-20c0 -6 -4 -10 -10 -10h-221c-4 0 -6 -2 -6 -6v-280c0 -4 2 -6 6 -6h252c6 0 10 -4 10 -10v-22c0 -6 -4 -10 -10 -10h-296
c-6 0 -10 4 -10 10zM366 771h-214c-6 0 -10 4 -10 10v19c0 6 4 10 10 10h214c6 0 10 -4 10 -10v-19c0 -6 -4 -10 -10 -10z" />
    <glyph glyph-name="emacron" unicode="&#x113;" horiz-adv-x="529" 
d="M312 -10c-204 0 -239 126 -239 279c0 157 42 276 206 276c166 0 190 -93 190 -226v-15c0 -39 -9 -41 -26 -41h-317c-5 0 -6 -2 -6 -7c0 -154 45 -226 200 -226c44 0 90 10 121 23c6 3 13 2 14 -5l3 -19c1 -6 -1 -10 -7 -13c-39 -17 -87 -26 -139 -26zM126 300h287
c9 0 12 2 12 36c0 110 -28 172 -146 172c-132 0 -159 -103 -159 -201c0 -4 1 -7 6 -7zM390 665h-214c-6 0 -10 4 -10 10v19c0 6 4 10 10 10h214c6 0 10 -4 10 -10v-19c0 -6 -4 -10 -10 -10z" />
    <glyph glyph-name="Ebreve" unicode="&#x114;" horiz-adv-x="465" 
d="M100 10v660c0 6 4 10 10 10h278c6 0 10 -4 10 -10v-22c0 -6 -4 -10 -10 -10h-234c-4 0 -6 -2 -6 -6v-252c0 -4 2 -6 6 -6h221c6 0 10 -4 10 -10v-20c0 -6 -4 -10 -10 -10h-221c-4 0 -6 -2 -6 -6v-280c0 -4 2 -6 6 -6h252c6 0 10 -4 10 -10v-22c0 -6 -4 -10 -10 -10h-296
c-6 0 -10 4 -10 10zM263 776c76 0 98 17 98 91c0 7 3 8 11 8h16c6 0 10 -2 10 -8c0 -89 -27 -126 -136 -126s-134 37 -134 126c0 6 4 8 10 8h17c8 0 10 -1 10 -8c0 -74 22 -91 98 -91z" />
    <glyph glyph-name="ebreve" unicode="&#x115;" horiz-adv-x="529" 
d="M312 -10c-204 0 -239 126 -239 279c0 157 42 276 206 276c166 0 190 -93 190 -226v-15c0 -39 -9 -41 -26 -41h-317c-5 0 -6 -2 -6 -7c0 -154 45 -226 200 -226c44 0 90 10 121 23c6 3 13 2 14 -5l3 -19c1 -6 -1 -10 -7 -13c-39 -17 -87 -26 -139 -26zM126 300h287
c9 0 12 2 12 36c0 110 -28 172 -146 172c-132 0 -159 -103 -159 -201c0 -4 1 -7 6 -7zM283 665c76 0 98 20 98 94c0 7 3 8 11 8h16c6 0 10 -2 10 -8c0 -89 -27 -129 -136 -129s-134 40 -134 129c0 6 4 8 10 8h17c8 0 10 -1 10 -8c0 -74 22 -94 98 -94z" />
    <glyph glyph-name="Edotaccent" unicode="&#x116;" horiz-adv-x="465" 
d="M100 10v660c0 6 4 10 10 10h278c6 0 10 -4 10 -10v-22c0 -6 -4 -10 -10 -10h-234c-4 0 -6 -2 -6 -6v-252c0 -4 2 -6 6 -6h221c6 0 10 -4 10 -10v-20c0 -6 -4 -10 -10 -10h-221c-4 0 -6 -2 -6 -6v-280c0 -4 2 -6 6 -6h252c6 0 10 -4 10 -10v-22c0 -6 -4 -10 -10 -10h-296
c-6 0 -10 4 -10 10zM290 771h-40c-6 0 -10 4 -10 10v45c0 6 4 10 10 10h40c6 0 10 -4 10 -10v-45c0 -6 -4 -10 -10 -10z" />
    <glyph glyph-name="edotaccent" unicode="&#x117;" horiz-adv-x="529" 
d="M312 -10c-204 0 -239 126 -239 279c0 157 42 276 206 276c166 0 190 -93 190 -226v-15c0 -39 -9 -41 -26 -41h-317c-5 0 -6 -2 -6 -7c0 -154 45 -226 200 -226c44 0 90 10 121 23c6 3 13 2 14 -5l3 -19c1 -6 -1 -10 -7 -13c-39 -17 -87 -26 -139 -26zM126 300h287
c9 0 12 2 12 36c0 110 -28 172 -146 172c-132 0 -159 -103 -159 -201c0 -4 1 -7 6 -7zM303 659h-40c-6 0 -10 4 -10 10v45c0 6 4 10 10 10h40c6 0 10 -4 10 -10v-45c0 -6 -4 -10 -10 -10z" />
    <glyph glyph-name="Eogonek" unicode="&#x118;" horiz-adv-x="465" 
d="M335 -133c0 -35 19 -49 50 -49c14 0 30 1 45 4c4 1 8 2 12 2c3 0 5 -2 5 -10v-9c0 -6 -2 -10 -7 -12c-20 -7 -41 -10 -65 -10c-56 0 -85 24 -85 79c0 48 31 92 77 138h-257c-6 0 -10 4 -10 10v660c0 6 4 10 10 10h278c6 0 10 -4 10 -10v-22c0 -6 -4 -10 -10 -10h-234
c-4 0 -6 -2 -6 -6v-252c0 -4 2 -6 6 -6h221c6 0 10 -4 10 -10v-20c0 -6 -4 -10 -10 -10h-221c-4 0 -6 -2 -6 -6v-280c0 -4 2 -6 6 -6h252c6 0 10 -4 10 -10v-22c0 -6 -4 -10 -9 -10c-51 -54 -72 -88 -72 -133z" />
    <glyph glyph-name="eogonek" unicode="&#x119;" horiz-adv-x="529" 
d="M364 -133c0 -35 19 -49 50 -49c14 0 30 1 45 4c4 1 8 2 12 2c3 0 5 -2 5 -10v-9c0 -6 -2 -10 -7 -12c-20 -7 -41 -10 -65 -10c-56 0 -85 24 -85 79c0 47 30 90 75 136c-25 -5 -53 -8 -82 -8c-204 0 -239 126 -239 279c0 157 42 276 206 276c166 0 190 -93 190 -226v-15
c0 -39 -9 -41 -26 -41h-317c-5 0 -6 -2 -6 -7c0 -154 45 -226 200 -226c44 0 90 10 121 23c6 3 13 2 14 -5l3 -19c2 -10 -5 -11 -11 -17c-54 -57 -83 -94 -83 -145zM126 300h287c9 0 12 2 12 36c0 110 -28 172 -146 172c-132 0 -159 -103 -159 -201c0 -4 1 -7 6 -7z" />
    <glyph glyph-name="Ecaron" unicode="&#x11a;" horiz-adv-x="465" 
d="M100 10v660c0 6 4 10 10 10h278c6 0 10 -4 10 -10v-22c0 -6 -4 -10 -10 -10h-234c-4 0 -6 -2 -6 -6v-252c0 -4 2 -6 6 -6h221c6 0 10 -4 10 -10v-20c0 -6 -4 -10 -10 -10h-221c-4 0 -6 -2 -6 -6v-280c0 -4 2 -6 6 -6h252c6 0 10 -4 10 -10v-22c0 -6 -4 -10 -10 -10h-296
c-6 0 -10 4 -10 10zM112 892h13c13 0 20 -1 29 -11l103 -115c2 -1 4 -2 8 -2c5 0 7 1 9 2l105 115c9 9 13 11 24 11h17c6 0 11 -4 8 -8l-124 -146c-4 -5 -9 -8 -15 -8h-49c-6 0 -11 3 -15 8l-121 146c-3 4 2 8 8 8z" />
    <glyph glyph-name="ecaron" unicode="&#x11b;" horiz-adv-x="529" 
d="M312 -10c-204 0 -239 126 -239 279c0 157 42 276 206 276c166 0 190 -93 190 -226v-15c0 -39 -9 -41 -26 -41h-317c-5 0 -6 -2 -6 -7c0 -154 45 -226 200 -226c44 0 90 10 121 23c6 3 13 2 14 -5l3 -19c1 -6 -1 -10 -7 -13c-39 -17 -87 -26 -139 -26zM126 300h287
c9 0 12 2 12 36c0 110 -28 172 -146 172c-132 0 -159 -103 -159 -201c0 -4 1 -7 6 -7zM127 800h13c13 0 20 -1 29 -14l104 -145c2 -2 4 -3 8 -3c6 0 8 1 10 3l106 145c9 12 13 14 24 14h17c6 0 11 -1 8 -6l-125 -180c-4 -6 -9 -10 -15 -10h-50c-6 0 -11 4 -15 10l-122 180
c-3 5 2 6 8 6z" />
    <glyph glyph-name="Gcircumflex" unicode="&#x11c;" horiz-adv-x="573" 
d="M327 31c44 0 82 4 104 12c6 2 6 4 6 8v262c0 4 -2 6 -6 6h-122c-6 0 -10 4 -10 10v20c0 6 4 10 10 10h166c6 0 10 -4 10 -10v-325c0 -5 -1 -8 -6 -10c-29 -13 -74 -24 -153 -24c-203 0 -253 133 -253 345c0 218 73 355 252 355c58 0 111 -8 146 -17c4 -1 5 -3 5 -9
l-4 -29c0 -3 -3 -6 -8 -5c-34 9 -91 17 -132 17c-161 0 -209 -116 -209 -313c0 -185 40 -303 204 -303zM472 742h-13c-13 0 -20 1 -29 11l-103 115c-2 1 -4 2 -8 2c-5 0 -7 -1 -9 -2l-105 -115c-9 -9 -13 -11 -24 -11h-17c-6 0 -11 4 -8 8l124 146c4 5 9 8 15 8h49
c6 0 11 -3 15 -8l121 -146c3 -4 -2 -8 -8 -8z" />
    <glyph glyph-name="gcircumflex" unicode="&#x11d;" horiz-adv-x="551" 
d="M459 518v-511c0 -153 -65 -187 -192 -187c-53 0 -121 6 -157 19c-6 2 -8 7 -7 13l3 20c2 7 9 7 15 5c32 -11 94 -18 140 -18c130 0 152 37 152 173c0 5 -2 7 -7 6c-27 -5 -83 -10 -110 -10c-164 0 -220 71 -220 255c0 180 55 262 224 262c48 0 98 -7 149 -17
c6 -1 10 -4 10 -10zM293 67c47 0 87 5 111 11c8 2 9 7 9 17v390c0 6 -2 9 -12 11c-24 5 -66 10 -105 10c-131 0 -172 -60 -172 -217c0 -159 34 -222 169 -222zM460 610h-13c-13 0 -20 1 -29 14l-104 145c-2 2 -4 3 -8 3c-6 0 -8 -1 -10 -3l-106 -145c-9 -12 -13 -14 -24 -14
h-17c-6 0 -11 1 -8 6l125 180c4 6 9 10 15 10h50c6 0 11 -4 15 -10l122 -180c3 -5 -2 -6 -8 -6z" />
    <glyph glyph-name="Gbreve" unicode="&#x11e;" horiz-adv-x="573" 
d="M327 31c44 0 82 4 104 12c6 2 6 4 6 8v262c0 4 -2 6 -6 6h-122c-6 0 -10 4 -10 10v20c0 6 4 10 10 10h166c6 0 10 -4 10 -10v-325c0 -5 -1 -8 -6 -10c-29 -13 -74 -24 -153 -24c-203 0 -253 133 -253 345c0 218 73 355 252 355c58 0 111 -8 146 -17c4 -1 5 -3 5 -9
l-4 -29c0 -3 -3 -6 -8 -5c-34 9 -91 17 -132 17c-161 0 -209 -116 -209 -313c0 -185 40 -303 204 -303zM322 776c76 0 98 17 98 91c0 7 3 8 11 8h16c6 0 10 -2 10 -8c0 -89 -27 -126 -136 -126s-134 37 -134 126c0 6 4 8 10 8h17c8 0 10 -1 10 -8c0 -74 22 -91 98 -91z" />
    <glyph glyph-name="gbreve" unicode="&#x11f;" horiz-adv-x="551" 
d="M459 518v-511c0 -153 -65 -187 -192 -187c-53 0 -121 6 -157 19c-6 2 -8 7 -7 13l3 20c2 7 9 7 15 5c32 -11 94 -18 140 -18c130 0 152 37 152 173c0 5 -2 7 -7 6c-27 -5 -83 -10 -110 -10c-164 0 -220 71 -220 255c0 180 55 262 224 262c48 0 98 -7 149 -17
c6 -1 10 -4 10 -10zM293 67c47 0 87 5 111 11c8 2 9 7 9 17v390c0 6 -2 9 -12 11c-24 5 -66 10 -105 10c-131 0 -172 -60 -172 -217c0 -159 34 -222 169 -222zM301 665c76 0 98 20 98 94c0 7 3 8 11 8h16c6 0 10 -2 10 -8c0 -89 -27 -129 -136 -129s-134 40 -134 129
c0 6 4 8 10 8h17c8 0 10 -1 10 -8c0 -74 22 -94 98 -94z" />
    <glyph glyph-name="Gdotaccent" unicode="&#x120;" horiz-adv-x="573" 
d="M327 31c44 0 82 4 104 12c6 2 6 4 6 8v262c0 4 -2 6 -6 6h-122c-6 0 -10 4 -10 10v20c0 6 4 10 10 10h166c6 0 10 -4 10 -10v-325c0 -5 -1 -8 -6 -10c-29 -13 -74 -24 -153 -24c-203 0 -253 133 -253 345c0 218 73 355 252 355c58 0 111 -8 146 -17c4 -1 5 -3 5 -9
l-4 -29c0 -3 -3 -6 -8 -5c-34 9 -91 17 -132 17c-161 0 -209 -116 -209 -313c0 -185 40 -303 204 -303zM348 771h-40c-6 0 -10 4 -10 10v45c0 6 4 10 10 10h40c6 0 10 -4 10 -10v-45c0 -6 -4 -10 -10 -10z" />
    <glyph glyph-name="gdotaccent" unicode="&#x121;" horiz-adv-x="551" 
d="M459 518v-511c0 -153 -65 -187 -192 -187c-53 0 -121 6 -157 19c-6 2 -8 7 -7 13l3 20c2 7 9 7 15 5c32 -11 94 -18 140 -18c130 0 152 37 152 173c0 5 -2 7 -7 6c-27 -5 -83 -10 -110 -10c-164 0 -220 71 -220 255c0 180 55 262 224 262c48 0 98 -7 149 -17
c6 -1 10 -4 10 -10zM293 67c47 0 87 5 111 11c8 2 9 7 9 17v390c0 6 -2 9 -12 11c-24 5 -66 10 -105 10c-131 0 -172 -60 -172 -217c0 -159 34 -222 169 -222zM320 659h-40c-6 0 -10 4 -10 10v45c0 6 4 10 10 10h40c6 0 10 -4 10 -10v-45c0 -6 -4 -10 -10 -10z" />
    <glyph glyph-name="Gcommaaccent" unicode="&#x122;" horiz-adv-x="573" 
d="M327 31c44 0 82 4 104 12c6 2 6 4 6 8v262c0 4 -2 6 -6 6h-122c-6 0 -10 4 -10 10v20c0 6 4 10 10 10h166c6 0 10 -4 10 -10v-325c0 -5 -1 -8 -6 -10c-29 -13 -74 -24 -153 -24c-203 0 -253 133 -253 345c0 218 73 355 252 355c58 0 111 -8 146 -17c4 -1 5 -3 5 -9
l-4 -29c0 -3 -3 -6 -8 -5c-34 9 -91 17 -132 17c-161 0 -209 -116 -209 -313c0 -185 40 -303 204 -303zM267 -234h-17c-6 0 -9 3 -7 6l77 160c4 6 9 10 15 10h27c6 0 10 -4 10 -10l-84 -150c-9 -14 -12 -16 -21 -16z" />
    <glyph glyph-name="gcommaaccent" unicode="&#x123;" horiz-adv-x="551" 
d="M459 518v-511c0 -153 -65 -187 -192 -187c-53 0 -121 6 -157 19c-6 2 -8 7 -7 13l3 20c2 7 9 7 15 5c32 -11 94 -18 140 -18c130 0 152 37 152 173c0 5 -2 7 -7 6c-27 -5 -83 -10 -110 -10c-164 0 -220 71 -220 255c0 180 55 262 224 262c48 0 98 -7 149 -17
c6 -1 10 -4 10 -10zM293 67c47 0 87 5 111 11c8 2 9 7 9 17v390c0 6 -2 9 -12 11c-24 5 -66 10 -105 10c-131 0 -172 -60 -172 -217c0 -159 34 -222 169 -222zM354 803h17c6 0 9 -3 7 -6l-82 -170c-4 -6 -9 -10 -15 -10h-27c-6 0 -10 4 -10 10l89 160c9 14 12 16 21 16z" />
    <glyph glyph-name="Hcircumflex" unicode="&#x124;" horiz-adv-x="603" 
d="M455 379v291c0 6 4 10 10 10h28c6 0 10 -4 10 -10v-660c0 -6 -4 -10 -10 -10h-28c-6 0 -10 4 -10 10v318c0 4 -2 6 -6 6h-295c-4 0 -6 -2 -6 -6v-318c0 -6 -4 -10 -10 -10h-28c-6 0 -10 4 -10 10v660c0 6 4 10 10 10h28c6 0 10 -4 10 -10v-291c0 -4 2 -6 6 -6h295
c4 0 6 2 6 6zM451 742h-13c-13 0 -20 1 -29 11l-103 115c-2 1 -4 2 -8 2c-5 0 -7 -1 -9 -2l-105 -115c-9 -9 -13 -11 -24 -11h-17c-6 0 -11 4 -8 8l124 146c4 5 9 8 15 8h49c6 0 11 -3 15 -8l121 -146c3 -4 -2 -8 -8 -8z" />
    <glyph glyph-name="hcircumflex" unicode="&#x125;" horiz-adv-x="556" 
d="M95 10v715c0 6 4 10 10 10h26c6 0 10 -4 10 -10v-181c0 -6 1 -9 7 -9c48 7 88 10 125 10c137 0 193 -38 193 -162v-373c0 -6 -4 -10 -10 -10h-26c-6 0 -10 4 -10 10v366c0 95 -32 130 -149 130c-48 0 -89 -4 -120 -11c-7 -2 -10 -4 -10 -11v-474c0 -6 -4 -10 -10 -10h-26
c-6 0 -10 4 -10 10zM418 780h-13c-13 0 -20 1 -29 11l-103 115c-2 1 -4 2 -8 2c-5 0 -7 -1 -9 -2l-105 -115c-9 -9 -13 -11 -24 -11h-17c-6 0 -11 4 -8 8l124 146c4 5 9 8 15 8h49c6 0 11 -3 15 -8l121 -146c3 -4 -2 -8 -8 -8z" />
    <glyph glyph-name="Hbar" unicode="&#x126;" horiz-adv-x="603" 
d="M455 562v108c0 6 4 10 10 10h28c6 0 10 -4 10 -10v-110c0 -3 2 -4 6 -4h54c6 0 10 -4 10 -10v-15c0 -6 -4 -10 -10 -10h-54c-4 0 -6 -2 -6 -5v-506c0 -6 -4 -10 -10 -10h-28c-6 0 -10 4 -10 10v318c0 4 -2 6 -6 6h-295c-4 0 -6 -2 -6 -6v-318c0 -6 -4 -10 -10 -10h-28
c-6 0 -10 4 -10 10v506c-1 3 -3 5 -6 5h-54c-6 0 -10 4 -10 10v15c0 6 4 10 10 10h54c4 0 6 2 6 6v108c0 6 4 10 10 10h28c6 0 10 -4 10 -10v-108c0 -4 2 -6 6 -6h295c4 0 6 2 6 6zM455 379v136c0 4 -2 6 -6 6h-295c-4 0 -6 -2 -6 -5v-137c0 -4 2 -6 6 -6h295c4 0 6 2 6 6z
" />
    <glyph glyph-name="hbar" unicode="&#x127;" horiz-adv-x="556" 
d="M95 10v607c-1 3 -3 5 -6 5h-48c-6 0 -10 4 -10 10v15c0 6 4 10 10 10h48c3 0 5 1 6 4v64c0 6 4 10 10 10h26c6 0 10 -4 10 -10v-62c0 -4 2 -6 6 -6h114c6 0 10 -4 10 -10v-15c0 -6 -4 -10 -10 -10h-114c-4 0 -6 -2 -6 -6v-72c0 -6 1 -9 7 -9c48 7 88 10 125 10
c137 0 193 -38 193 -162v-373c0 -6 -4 -10 -10 -10h-26c-6 0 -10 4 -10 10v366c0 95 -32 130 -149 130c-48 0 -89 -4 -120 -11c-7 -2 -10 -4 -10 -11v-474c0 -6 -4 -10 -10 -10h-26c-6 0 -10 4 -10 10z" />
    <glyph glyph-name="Itilde" unicode="&#x128;" horiz-adv-x="248" 
d="M138 0h-28c-6 0 -10 4 -10 10v660c0 6 4 10 10 10h28c6 0 10 -4 10 -10v-660c0 -6 -4 -10 -10 -10zM138 805c26 -19 45 -28 61 -28c26 0 41 23 45 55c1 6 2 7 6 7h24c5 0 5 -3 5 -8c0 -37 -25 -91 -80 -91c-28 0 -45 8 -81 34c-26 19 -45 28 -61 28
c-26 0 -41 -23 -45 -55c-1 -6 -2 -7 -6 -7h-24c-5 0 -5 3 -5 8c0 37 25 91 80 91c28 0 45 -8 81 -34z" />
    <glyph glyph-name="itilde" unicode="&#x129;" horiz-adv-x="259" 
d="M142 705c26 -19 45 -28 61 -28c26 0 41 23 45 55c1 6 2 7 6 7h24c5 0 5 -3 5 -8c0 -37 -25 -91 -80 -91c-28 0 -45 8 -81 34c-26 19 -45 28 -61 28c-26 0 -41 -23 -45 -55c-1 -6 -2 -7 -6 -7h-24c-5 0 -5 3 -5 8c0 37 25 91 80 91c28 0 45 -8 81 -34zM143 0h-27
c-6 0 -10 4 -10 10v515c0 6 4 10 10 10h27c6 0 10 -4 10 -10v-515c0 -6 -4 -10 -10 -10z" />
    <glyph glyph-name="Imacron" unicode="&#x12a;" horiz-adv-x="248" 
d="M138 0h-28c-6 0 -10 4 -10 10v660c0 6 4 10 10 10h28c6 0 10 -4 10 -10v-660c0 -6 -4 -10 -10 -10zM231 771h-214c-6 0 -10 4 -10 10v19c0 6 4 10 10 10h214c6 0 10 -4 10 -10v-19c0 -6 -4 -10 -10 -10z" />
    <glyph glyph-name="imacron" unicode="&#x12b;" horiz-adv-x="259" 
d="M237 665h-214c-6 0 -10 4 -10 10v19c0 6 4 10 10 10h214c6 0 10 -4 10 -10v-19c0 -6 -4 -10 -10 -10zM143 0h-27c-6 0 -10 4 -10 10v515c0 6 4 10 10 10h27c6 0 10 -4 10 -10v-515c0 -6 -4 -10 -10 -10z" />
    <glyph glyph-name="Ibreve" unicode="&#x12c;" horiz-adv-x="248" 
d="M138 0h-28c-6 0 -10 4 -10 10v660c0 6 4 10 10 10h28c6 0 10 -4 10 -10v-660c0 -6 -4 -10 -10 -10zM125 776c76 0 98 17 98 91c0 7 3 8 11 8h16c6 0 10 -2 10 -8c0 -89 -27 -126 -136 -126s-134 37 -134 126c0 6 4 8 10 8h17c8 0 10 -1 10 -8c0 -74 22 -91 98 -91z" />
    <glyph glyph-name="ibreve" unicode="&#x12d;" horiz-adv-x="259" 
d="M130 665c76 0 98 20 98 94c0 7 3 8 11 8h16c6 0 10 -2 10 -8c0 -89 -27 -129 -136 -129s-134 40 -134 129c0 6 4 8 10 8h17c8 0 10 -1 10 -8c0 -74 22 -94 98 -94zM143 0h-27c-6 0 -10 4 -10 10v515c0 6 4 10 10 10h27c6 0 10 -4 10 -10v-515c0 -6 -4 -10 -10 -10z" />
    <glyph glyph-name="Iogonek" unicode="&#x12e;" horiz-adv-x="248" 
d="M63 -133c0 -35 19 -49 50 -49c14 0 30 1 45 4c4 1 8 2 12 2c3 0 5 -2 5 -10v-9c0 -6 -2 -10 -7 -12c-20 -7 -41 -10 -65 -10c-56 0 -85 24 -85 79c0 50 34 95 83 143c-1 2 -1 3 -1 5v660c0 6 4 10 10 10h28c6 0 10 -4 10 -10v-660c0 -6 -4 -10 -10 -10h-3
c-51 -54 -72 -88 -72 -133z" />
    <glyph glyph-name="iogonek" unicode="&#x12f;" horiz-adv-x="259" 
d="M69 -133c0 -35 19 -49 50 -49c14 0 30 1 45 4c4 1 8 2 12 2c3 0 5 -2 5 -10v-9c0 -6 -2 -10 -7 -12c-20 -7 -41 -10 -65 -10c-56 0 -85 24 -85 79c0 50 34 95 83 143c-1 2 -1 3 -1 5v515c0 6 4 10 10 10h27c6 0 10 -4 10 -10v-515c0 -6 -4 -10 -10 -10h-2
c-51 -54 -72 -88 -72 -133zM150 659h-40c-6 0 -10 4 -10 10v45c0 6 4 10 10 10h40c6 0 10 -4 10 -10v-45c0 -6 -4 -10 -10 -10z" />
    <glyph glyph-name="Idotaccent" unicode="&#x130;" horiz-adv-x="248" 
d="M138 0h-28c-6 0 -10 4 -10 10v660c0 6 4 10 10 10h28c6 0 10 -4 10 -10v-660c0 -6 -4 -10 -10 -10zM147 771h-40c-6 0 -10 4 -10 10v45c0 6 4 10 10 10h40c6 0 10 -4 10 -10v-45c0 -6 -4 -10 -10 -10z" />
    <glyph glyph-name="dotlessi" unicode="&#x131;" horiz-adv-x="259" 
d="M143 0h-27c-6 0 -10 4 -10 10v515c0 6 4 10 10 10h27c6 0 10 -4 10 -10v-515c0 -6 -4 -10 -10 -10z" />
    <glyph glyph-name="Jcircumflex" unicode="&#x134;" horiz-adv-x="313" 
d="M169 170v500c0 6 4 10 10 10h28c6 0 10 -4 10 -10v-503c0 -133 -32 -177 -125 -177c-22 0 -52 4 -60 7c-6 2 -8 7 -7 13l3 22c2 7 6 7 12 6c12 -2 32 -5 48 -5c61 0 81 14 81 137zM346 742h-13c-13 0 -20 1 -29 11l-103 115c-2 1 -4 2 -8 2c-5 0 -7 -1 -9 -2l-105 -115
c-9 -9 -13 -11 -24 -11h-17c-6 0 -11 4 -8 8l124 146c4 5 9 8 15 8h49c6 0 11 -3 15 -8l121 -146c3 -4 -2 -8 -8 -8z" />
    <glyph glyph-name="jcircumflex" unicode="&#x135;" horiz-adv-x="259" 
d="M154 525v-554c0 -119 -42 -151 -123 -151c-29 0 -60 5 -67 7c-6 2 -8 7 -7 13l2 19c2 7 6 7 12 6c12 -2 34 -5 50 -5c61 0 86 6 86 111v554c0 6 4 10 10 10h27c6 0 10 -4 10 -10zM285 610h-13c-13 0 -20 1 -29 14l-104 145c-2 2 -4 3 -8 3c-6 0 -8 -1 -10 -3l-106 -145
c-9 -12 -13 -14 -24 -14h-17c-6 0 -11 1 -8 6l125 180c4 6 9 10 15 10h50c6 0 11 -4 15 -10l122 -180c3 -5 -2 -6 -8 -6z" />
    <glyph glyph-name="Kcommaaccent" unicode="&#x136;" horiz-adv-x="506" 
d="M160 334c-9 0 -12 -2 -12 -6v-318c0 -6 -4 -10 -10 -10h-28c-6 0 -10 4 -10 10v660c0 6 4 10 10 10h28c6 0 10 -4 10 -10v-289c0 -4 3 -6 12 -6c14 0 18 3 22 8c54 65 190 234 229 287c3 4 7 10 14 10h41c7 0 10 -4 6 -10c-47 -58 -184 -223 -239 -289
c-10 -12 -12 -17 -12 -25s5 -14 13 -24c60 -73 217 -268 255 -321c3 -7 -3 -11 -9 -11h-37c-8 0 -14 6 -16 9c-36 52 -160 211 -242 312c-9 12 -13 13 -25 13zM195 -234h-17c-6 0 -9 3 -7 6l77 160c4 6 9 10 15 10h27c6 0 10 -4 10 -10l-84 -150c-9 -14 -12 -16 -21 -16z
" />
    <glyph glyph-name="kcommaaccent" unicode="&#x137;" horiz-adv-x="458" 
d="M157 312c14 0 19 4 25 10c67 69 148 159 186 205c4 5 8 8 18 8h33c6 0 7 -2 7 -7c-39 -47 -145 -157 -200 -214c-9 -10 -14 -16 -14 -21s6 -13 13 -21c46 -52 194 -232 218 -264c0 -6 -3 -8 -8 -8h-34c-9 0 -15 5 -16 7c-39 51 -168 214 -208 259c-3 3 -6 5 -20 5
c-18 0 -19 -2 -19 -9v-252c0 -6 -4 -10 -10 -10h-26c-6 0 -10 4 -10 10v715c0 6 2 10 8 10h30c6 0 8 -4 8 -10v-403c0 -6 1 -10 19 -10zM169 -234h-17c-6 0 -9 3 -7 6l77 160c4 6 9 10 15 10h27c6 0 10 -4 10 -10l-84 -150c-9 -14 -12 -16 -21 -16z" />
    <glyph glyph-name="kgreenlandic" unicode="&#x138;" horiz-adv-x="458" 
d="M157 312c14 0 19 4 25 10c67 69 148 159 186 205c4 5 8 8 18 8h33c6 0 7 -2 7 -7c-39 -47 -145 -157 -200 -214c-9 -10 -14 -16 -14 -21s6 -13 13 -21c46 -52 194 -232 218 -264c0 -6 -3 -8 -8 -8h-34c-9 0 -15 5 -16 7c-39 51 -168 214 -208 259c-3 3 -6 5 -20 5
c-18 0 -19 -2 -19 -9v-252c0 -6 -4 -10 -10 -10h-26c-6 0 -10 4 -10 10v515c0 6 2 10 8 10h30c6 0 8 -4 8 -10v-203c0 -6 1 -10 19 -10z" />
    <glyph glyph-name="Lacute" unicode="&#x139;" horiz-adv-x="400" 
d="M100 10v660c0 6 4 10 10 10h28c6 0 10 -4 10 -10v-622c0 -4 2 -6 6 -6h212c6 0 10 -4 10 -10v-22c0 -6 -4 -10 -10 -10h-256c-6 0 -10 4 -10 10zM135 742h-19c-6 0 -7 6 -3 10l144 142c5 5 13 10 19 10h29c16 0 13 -13 8 -16l-152 -135c-12 -11 -17 -11 -26 -11z" />
    <glyph glyph-name="lacute" unicode="&#x13a;" horiz-adv-x="267" 
d="M139 725v-589c0 -93 6 -107 57 -107h39c6 0 8 -1 8 -6v-16c0 -6 -3 -9 -9 -10c-13 -3 -30 -5 -52 -5c-78 0 -89 38 -89 141v592c0 6 4 10 10 10h26c6 0 10 -4 10 -10zM103 780h-19c-6 0 -7 6 -3 10l144 142c5 5 13 10 19 10h29c16 0 13 -13 8 -16l-152 -135
c-12 -11 -17 -11 -26 -11z" />
    <glyph glyph-name="Lcommaaccent" unicode="&#x13b;" horiz-adv-x="400" 
d="M100 10v660c0 6 4 10 10 10h28c6 0 10 -4 10 -10v-622c0 -4 2 -6 6 -6h212c6 0 10 -4 10 -10v-22c0 -6 -4 -10 -10 -10h-256c-6 0 -10 4 -10 10zM174 -234h-17c-6 0 -9 3 -7 6l77 160c4 6 9 10 15 10h27c6 0 10 -4 10 -10l-84 -150c-9 -14 -12 -16 -21 -16z" />
    <glyph glyph-name="lcommaaccent" unicode="&#x13c;" horiz-adv-x="267" 
d="M139 725v-589c0 -93 6 -107 57 -107h39c6 0 8 -1 8 -6v-16c0 -6 -3 -9 -9 -10c-13 -3 -30 -5 -52 -5c-78 0 -89 38 -89 141v592c0 6 4 10 10 10h26c6 0 10 -4 10 -10zM96 -234h-17c-6 0 -9 3 -7 6l77 160c4 6 9 10 15 10h27c6 0 10 -4 10 -10l-84 -150
c-9 -14 -12 -16 -21 -16z" />
    <glyph glyph-name="Lcaron" unicode="&#x13d;" horiz-adv-x="400" 
d="M100 10v660c0 6 4 10 10 10h28c6 0 10 -4 10 -10v-622c0 -4 2 -6 6 -6h212c6 0 10 -4 10 -10v-22c0 -6 -4 -10 -10 -10h-256c-6 0 -10 4 -10 10zM296 618h-17c-6 0 -8 4 -7 7l48 192c2 7 8 10 14 10h29c7 0 11 -5 9 -11l-58 -179c-5 -16 -9 -19 -18 -19z" />
    <glyph glyph-name="lcaron" unicode="&#x13e;" horiz-adv-x="267" 
d="M139 725v-589c0 -93 6 -107 57 -107h39c6 0 8 -1 8 -6v-16c0 -6 -3 -9 -9 -10c-13 -3 -30 -5 -52 -5c-78 0 -89 38 -89 141v592c0 6 4 10 10 10h26c6 0 10 -4 10 -10zM240 618h-17c-6 0 -8 4 -7 7l48 192c2 7 8 10 14 10h29c7 0 11 -5 9 -11l-58 -179
c-5 -16 -9 -19 -18 -19z" />
    <glyph glyph-name="Ldot" unicode="&#x13f;" horiz-adv-x="454" 
d="M100 10v660c0 6 4 10 10 10h28c6 0 10 -4 10 -10v-622c0 -4 2 -6 6 -6h212c6 0 10 -4 10 -10v-22c0 -6 -4 -10 -10 -10h-256c-6 0 -10 4 -10 10zM383 399h-40c-6 0 -10 4 -10 10v45c0 6 4 10 10 10h40c6 0 10 -4 10 -10v-45c0 -6 -4 -10 -10 -10z" />
    <glyph glyph-name="ldot" unicode="&#x140;" horiz-adv-x="322" 
d="M139 725v-589c0 -93 6 -107 57 -107h39c6 0 8 -1 8 -6v-16c0 -6 -3 -9 -9 -10c-13 -3 -30 -5 -52 -5c-78 0 -89 38 -89 141v592c0 6 4 10 10 10h26c6 0 10 -4 10 -10zM300 399h-40c-6 0 -10 4 -10 10v45c0 6 4 10 10 10h40c6 0 10 -4 10 -10v-45c0 -6 -4 -10 -10 -10z
" />
    <glyph glyph-name="Lslash" unicode="&#x141;" horiz-adv-x="400" 
d="M100 10v312c-1 2 -3 2 -6 1l-51 -24c-6 -3 -10 1 -10 7v21c0 6 4 10 10 13l51 24c4 2 6 5 6 9v297c0 6 4 10 10 10h28c6 0 10 -4 10 -10v-279c0 -2 3 -3 6 -1l68 35c6 3 10 -1 10 -7v-21c0 -6 -4 -10 -10 -13l-68 -35c-3 -2 -6 -4 -6 -7v-294c0 -4 2 -6 6 -6h212
c6 0 10 -4 10 -10v-22c0 -6 -4 -10 -10 -10h-256c-6 0 -10 4 -10 10z" />
    <glyph glyph-name="lslash" unicode="&#x142;" horiz-adv-x="267" 
d="M139 725v-333c0 -4 2 -5 6 -3l68 35c6 3 10 -1 10 -7v-21c0 -6 -4 -10 -10 -13l-68 -35c-3 -2 -6 -4 -6 -7v-205c0 -93 6 -107 57 -107h39c6 0 8 -1 8 -6v-16c0 -6 -3 -9 -9 -10c-13 -3 -30 -5 -52 -5c-78 0 -89 38 -89 141v189c-1 2 -3 2 -6 1l-51 -24
c-6 -3 -10 1 -10 7v21c0 6 4 10 10 13l51 24c4 2 6 5 6 9v352c0 6 4 10 10 10h26c6 0 10 -4 10 -10z" />
    <glyph glyph-name="Nacute" unicode="&#x143;" horiz-adv-x="619" 
d="M509 0h-69c-9 0 -11 5 -15 15l-261 615c-3 6 -4 8 -10 8c-7 0 -7 -3 -7 -7v-621c0 -6 -4 -10 -10 -10h-27c-6 0 -10 4 -10 10v660c0 6 4 10 10 10h75c7 0 11 -3 14 -12l256 -609c5 -11 6 -12 11 -12s6 2 6 6v617c0 6 4 10 10 10h27c6 0 10 -4 10 -10v-660
c0 -6 -4 -10 -10 -10zM312 742h-19c-6 0 -7 6 -3 10l144 142c5 5 13 10 19 10h29c16 0 13 -13 8 -16l-152 -135c-12 -11 -17 -11 -26 -11z" />
    <glyph glyph-name="nacute" unicode="&#x144;" horiz-adv-x="556" 
d="M273 545c137 0 193 -38 193 -162v-373c0 -6 -4 -10 -10 -10h-26c-6 0 -10 4 -10 10v366c0 95 -32 130 -149 130c-48 0 -98 -6 -120 -11c-7 -2 -10 -4 -10 -11v-474c0 -6 -4 -10 -10 -10h-26c-6 0 -10 4 -10 10v508c0 6 3 9 9 10c54 12 120 17 169 17zM273 610h-17
c-6 0 -9 3 -7 6l103 186c4 6 9 10 15 10h27c6 0 10 -4 10 -10l-110 -176c-9 -14 -12 -16 -21 -16z" />
    <glyph glyph-name="Ncommaaccent" unicode="&#x145;" horiz-adv-x="619" 
d="M509 0h-69c-9 0 -11 5 -15 15l-261 615c-3 6 -4 8 -10 8c-7 0 -7 -3 -7 -7v-621c0 -6 -4 -10 -10 -10h-27c-6 0 -10 4 -10 10v660c0 6 4 10 10 10h75c7 0 11 -3 14 -12l256 -609c5 -11 6 -12 11 -12s6 2 6 6v617c0 6 4 10 10 10h27c6 0 10 -4 10 -10v-660
c0 -6 -4 -10 -10 -10zM250 -234h-17c-6 0 -9 3 -7 6l77 160c4 6 9 10 15 10h27c6 0 10 -4 10 -10l-84 -150c-9 -14 -12 -16 -21 -16z" />
    <glyph glyph-name="ncommaaccent" unicode="&#x146;" horiz-adv-x="556" 
d="M273 545c137 0 193 -38 193 -162v-373c0 -6 -4 -10 -10 -10h-26c-6 0 -10 4 -10 10v366c0 95 -32 130 -149 130c-48 0 -98 -6 -120 -11c-7 -2 -10 -4 -10 -11v-474c0 -6 -4 -10 -10 -10h-26c-6 0 -10 4 -10 10v508c0 6 3 9 9 10c54 12 120 17 169 17zM206 -234h-17
c-6 0 -9 3 -7 6l77 160c4 6 9 10 15 10h27c6 0 10 -4 10 -10l-84 -150c-9 -14 -12 -16 -21 -16z" />
    <glyph glyph-name="Ncaron" unicode="&#x147;" horiz-adv-x="619" 
d="M509 0h-69c-9 0 -11 5 -15 15l-261 615c-3 6 -4 8 -10 8c-7 0 -7 -3 -7 -7v-621c0 -6 -4 -10 -10 -10h-27c-6 0 -10 4 -10 10v660c0 6 4 10 10 10h75c7 0 11 -3 14 -12l256 -609c5 -11 6 -12 11 -12s6 2 6 6v617c0 6 4 10 10 10h27c6 0 10 -4 10 -10v-660
c0 -6 -4 -10 -10 -10zM171 892h13c13 0 20 -1 29 -11l103 -115c2 -1 4 -2 8 -2c5 0 7 1 9 2l105 115c9 9 13 11 24 11h17c6 0 11 -4 8 -8l-124 -146c-4 -5 -9 -8 -15 -8h-49c-6 0 -11 3 -15 8l-121 146c-3 4 2 8 8 8z" />
    <glyph glyph-name="ncaron" unicode="&#x148;" horiz-adv-x="556" 
d="M273 545c137 0 193 -38 193 -162v-373c0 -6 -4 -10 -10 -10h-26c-6 0 -10 4 -10 10v366c0 95 -32 130 -149 130c-48 0 -98 -6 -120 -11c-7 -2 -10 -4 -10 -11v-474c0 -6 -4 -10 -10 -10h-26c-6 0 -10 4 -10 10v508c0 6 3 9 9 10c54 12 120 17 169 17zM131 800h13
c13 0 20 -1 29 -14l104 -145c2 -2 4 -3 8 -3c6 0 8 1 10 3l106 145c9 12 13 14 24 14h17c6 0 11 -1 8 -6l-125 -180c-4 -6 -9 -10 -15 -10h-50c-6 0 -11 4 -15 10l-122 180c-3 5 2 6 8 6z" />
    <glyph glyph-name="Eng" unicode="&#x14a;" horiz-adv-x="619" 
d="M519 670v-699c0 -119 -42 -151 -123 -151c-29 0 -60 5 -67 7c-6 2 -8 7 -7 13l2 19c2 7 6 7 12 6c12 -2 32 -5 50 -5c61 0 86 6 86 111v29h-31c-9 0 -11 5 -15 15l-262 615c-3 6 -4 8 -10 8c-7 0 -7 -3 -7 -7v-621c0 -6 -4 -10 -10 -10h-27c-6 0 -10 4 -10 10v660
c0 6 4 10 10 10h75c7 0 11 -3 14 -12l256 -609c5 -11 6 -12 11 -12s6 2 6 6v617c0 6 4 10 10 10h27c6 0 10 -4 10 -10z" />
    <glyph glyph-name="eng" unicode="&#x14b;" horiz-adv-x="556" 
d="M466 383v-412c0 -119 -42 -151 -123 -151c-29 0 -60 5 -67 7c-6 2 -8 7 -7 13l2 19c2 7 6 7 12 6c12 -2 32 -5 50 -5c61 0 86 6 86 111l1 405c0 95 -32 130 -149 130c-48 0 -98 -6 -120 -11c-7 -2 -10 -4 -10 -11v-474c0 -6 -4 -10 -10 -10h-26c-6 0 -10 4 -10 10v507
c0 6 4 10 10 10c54 12 119 18 168 18c137 0 193 -38 193 -162z" />
    <glyph glyph-name="Omacron" unicode="&#x14c;" horiz-adv-x="616" 
d="M123 339c0 -119 19 -233 54 -271c26 -28 50 -35 131 -35c83 0 108 7 134 35c35 38 52 152 52 271c0 120 -17 234 -52 272c-26 28 -51 35 -132 35c-83 0 -107 -7 -133 -35c-35 -38 -54 -152 -54 -272zM543 340c0 -127 -17 -240 -58 -292c-40 -50 -86 -58 -177 -58
c-92 0 -135 7 -175 57c-41 52 -60 166 -60 293s19 235 60 287c40 50 86 63 177 63c92 0 136 -13 176 -63c41 -52 57 -160 57 -287zM416 771h-214c-6 0 -10 4 -10 10v19c0 6 4 10 10 10h214c6 0 10 -4 10 -10v-19c0 -6 -4 -10 -10 -10z" />
    <glyph glyph-name="omacron" unicode="&#x14d;" horiz-adv-x="570" 
d="M119 270c0 -95 18 -175 52 -208c22 -21 40 -30 112 -30c76 0 95 9 117 30c34 33 52 113 52 208c0 98 -17 172 -51 205c-22 21 -42 31 -115 31c-75 0 -94 -10 -116 -31c-34 -33 -51 -107 -51 -205zM497 272c0 -100 -20 -189 -56 -231c-34 -38 -79 -51 -158 -51
c-80 0 -120 13 -154 51c-36 42 -56 131 -56 231c0 101 19 180 56 221c34 39 78 52 156 52c80 0 123 -14 157 -52c36 -42 55 -120 55 -221zM393 665h-214c-6 0 -10 4 -10 10v19c0 6 4 10 10 10h214c6 0 10 -4 10 -10v-19c0 -6 -4 -10 -10 -10z" />
    <glyph glyph-name="Obreve" unicode="&#x14e;" horiz-adv-x="616" 
d="M123 339c0 -119 19 -233 54 -271c26 -28 50 -35 131 -35c83 0 108 7 134 35c35 38 52 152 52 271c0 120 -17 234 -52 272c-26 28 -51 35 -132 35c-83 0 -107 -7 -133 -35c-35 -38 -54 -152 -54 -272zM543 340c0 -127 -17 -240 -58 -292c-40 -50 -86 -58 -177 -58
c-92 0 -135 7 -175 57c-41 52 -60 166 -60 293s19 235 60 287c40 50 86 63 177 63c92 0 136 -13 176 -63c41 -52 57 -160 57 -287zM308 776c76 0 98 17 98 91c0 7 3 8 11 8h16c6 0 10 -2 10 -8c0 -89 -27 -126 -136 -126s-134 37 -134 126c0 6 4 8 10 8h17c8 0 10 -1 10 -8
c0 -74 22 -91 98 -91z" />
    <glyph glyph-name="obreve" unicode="&#x14f;" horiz-adv-x="570" 
d="M119 270c0 -95 18 -175 52 -208c22 -21 40 -30 112 -30c76 0 95 9 117 30c34 33 52 113 52 208c0 98 -17 172 -51 205c-22 21 -42 31 -115 31c-75 0 -94 -10 -116 -31c-34 -33 -51 -107 -51 -205zM497 272c0 -100 -20 -189 -56 -231c-34 -38 -79 -51 -158 -51
c-80 0 -120 13 -154 51c-36 42 -56 131 -56 231c0 101 19 180 56 221c34 39 78 52 156 52c80 0 123 -14 157 -52c36 -42 55 -120 55 -221zM288 665c76 0 98 20 98 94c0 7 3 8 11 8h16c6 0 10 -2 10 -8c0 -89 -27 -129 -136 -129s-134 40 -134 129c0 6 4 8 10 8h17
c8 0 10 -1 10 -8c0 -74 22 -94 98 -94z" />
    <glyph glyph-name="Ohungarumlaut" unicode="&#x150;" horiz-adv-x="616" 
d="M123 339c0 -119 19 -233 54 -271c26 -28 50 -35 131 -35c83 0 108 7 134 35c35 38 52 152 52 271c0 120 -17 234 -52 272c-26 28 -51 35 -132 35c-83 0 -107 -7 -133 -35c-35 -38 -54 -152 -54 -272zM543 340c0 -127 -17 -240 -58 -292c-40 -50 -86 -58 -177 -58
c-92 0 -135 7 -175 57c-41 52 -60 166 -60 293s19 235 60 287c40 50 86 63 177 63c92 0 136 -13 176 -63c41 -52 57 -160 57 -287zM225 742h-17c-6 0 -9 3 -7 6l103 146c4 6 9 10 15 10h27c6 0 10 -4 10 -10l-108 -136c-10 -13 -14 -16 -23 -16zM382 742h-17c-6 0 -9 3 -7 6
l103 146c4 6 9 10 15 10h27c6 0 10 -4 10 -10l-108 -136c-10 -13 -14 -16 -23 -16z" />
    <glyph glyph-name="ohungarumlaut" unicode="&#x151;" horiz-adv-x="570" 
d="M119 270c0 -95 18 -175 52 -208c22 -21 40 -30 112 -30c76 0 95 9 117 30c34 33 52 113 52 208c0 98 -17 172 -51 205c-22 21 -42 31 -115 31c-75 0 -94 -10 -116 -31c-34 -33 -51 -107 -51 -205zM497 272c0 -100 -20 -189 -56 -231c-34 -38 -79 -51 -158 -51
c-80 0 -120 13 -154 51c-36 42 -56 131 -56 231c0 101 19 180 56 221c34 39 78 52 156 52c80 0 123 -14 157 -52c36 -42 55 -120 55 -221zM214 610h-17c-6 0 -9 3 -7 6l103 186c4 6 9 10 15 10h27c6 0 10 -4 10 -10l-110 -176c-9 -14 -12 -16 -21 -16zM371 610h-17
c-6 0 -9 3 -7 6l103 186c4 6 9 10 15 10h27c6 0 10 -4 10 -10l-110 -176c-9 -14 -12 -16 -21 -16z" />
    <glyph glyph-name="OE" unicode="&#x152;" horiz-adv-x="798" 
d="M328 42h105c5 0 6 4 6 8v579c0 6 -2 9 -7 9h-104c-136 0 -204 -46 -204 -302c0 -245 69 -294 204 -294zM739 0h-411c-170 0 -254 81 -254 320c0 294 84 360 256 360h391c6 0 10 -4 10 -10v-22c0 -6 -4 -10 -10 -10h-228c-4 0 -6 -2 -6 -6v-252c0 -4 2 -6 6 -6h215
c6 0 10 -4 10 -10v-20c0 -6 -4 -10 -10 -10h-215c-4 0 -6 -2 -6 -6v-280c0 -4 2 -6 6 -6h246c6 0 10 -4 10 -10v-22c0 -6 -4 -10 -10 -10z" />
    <glyph glyph-name="oe" unicode="&#x153;" horiz-adv-x="897" 
d="M76 253c0 227 52 292 208 292c105 0 158 -32 182 -104c2 -5 4 -4 6 0c33 68 83 104 177 104c166 0 188 -93 188 -226v-15c0 -39 -9 -41 -26 -41h-317c-5 0 -6 -2 -6 -7c0 -154 45 -226 200 -226c47 0 88 10 119 25c6 3 13 2 15 -5l4 -19c1 -6 -1 -10 -7 -13
c-39 -19 -88 -28 -139 -28c-121 0 -179 42 -209 112c-1 3 -4 3 -5 0c-27 -86 -86 -112 -183 -112c-132 0 -207 48 -207 263zM441 270c0 200 -38 237 -156 237c-136 0 -160 -41 -160 -237c0 -212 41 -241 160 -241c118 0 156 29 156 241zM494 300h287c9 0 12 2 12 36
c0 110 -28 172 -146 172c-132 0 -159 -103 -159 -201c0 -4 1 -7 6 -7z" />
    <glyph glyph-name="Racute" unicode="&#x154;" horiz-adv-x="526" 
d="M451 9l-168 279c-2 3 -5 5 -10 5h-119c-4 0 -6 -2 -6 -6v-277c0 -6 -4 -10 -10 -10h-28c-6 0 -10 4 -10 10v660c0 6 4 10 10 10h152c144 0 197 -67 197 -189c0 -91 -46 -150 -125 -181c-2 -1 -6 -6 -4 -9l178 -290c4 -6 1 -11 -5 -11h-40c-6 0 -8 3 -12 9zM256 333
c97 0 154 72 154 158c0 103 -45 149 -156 149h-100c-4 0 -6 -2 -6 -6v-295c0 -4 2 -6 6 -6h102zM258 742h-19c-6 0 -7 6 -3 10l144 142c5 5 13 10 19 10h29c16 0 13 -13 8 -16l-152 -135c-12 -11 -17 -11 -26 -11z" />
    <glyph glyph-name="racute" unicode="&#x155;" horiz-adv-x="326" 
d="M95 518c0 6 4 9 10 10c54 12 98 17 135 17c32 0 46 -1 68 -5c3 -1 6 -2 5 -7l-5 -29c-1 -5 -3 -6 -7 -5c-19 4 -42 7 -65 7c-24 0 -58 -3 -85 -9c-7 -2 -10 -4 -10 -11v-476c0 -6 -4 -10 -10 -10h-26c-6 0 -10 4 -10 10v508zM202 610h-17c-6 0 -9 3 -7 6l103 186
c4 6 9 10 15 10h27c6 0 10 -4 10 -10l-110 -176c-9 -14 -12 -16 -21 -16z" />
    <glyph glyph-name="Rcommaaccent" unicode="&#x156;" horiz-adv-x="526" 
d="M451 9l-168 279c-2 3 -5 5 -10 5h-119c-4 0 -6 -2 -6 -6v-277c0 -6 -4 -10 -10 -10h-28c-6 0 -10 4 -10 10v660c0 6 4 10 10 10h152c144 0 197 -67 197 -189c0 -91 -46 -150 -125 -181c-2 -1 -6 -6 -4 -9l178 -290c4 -6 1 -11 -5 -11h-40c-6 0 -8 3 -12 9zM256 333
c97 0 154 72 154 158c0 103 -45 149 -156 149h-100c-4 0 -6 -2 -6 -6v-295c0 -4 2 -6 6 -6h102zM203 -234h-17c-6 0 -9 3 -7 6l77 160c4 6 9 10 15 10h27c6 0 10 -4 10 -10l-84 -150c-9 -14 -12 -16 -21 -16z" />
    <glyph glyph-name="rcommaaccent" unicode="&#x157;" horiz-adv-x="326" 
d="M95 518c0 6 4 9 10 10c54 12 98 17 135 17c32 0 46 -1 68 -5c3 -1 6 -2 5 -7l-5 -29c-1 -5 -3 -6 -7 -5c-19 4 -42 7 -65 7c-24 0 -58 -3 -85 -9c-7 -2 -10 -4 -10 -11v-476c0 -6 -4 -10 -10 -10h-26c-6 0 -10 4 -10 10v508zM47 -234h-17c-6 0 -9 3 -7 6l77 160
c4 6 9 10 15 10h27c6 0 10 -4 10 -10l-84 -150c-9 -14 -12 -16 -21 -16z" />
    <glyph glyph-name="Rcaron" unicode="&#x158;" horiz-adv-x="526" 
d="M451 9l-168 279c-2 3 -5 5 -10 5h-119c-4 0 -6 -2 -6 -6v-277c0 -6 -4 -10 -10 -10h-28c-6 0 -10 4 -10 10v660c0 6 4 10 10 10h152c144 0 197 -67 197 -189c0 -91 -46 -150 -125 -181c-2 -1 -6 -6 -4 -9l178 -290c4 -6 1 -11 -5 -11h-40c-6 0 -8 3 -12 9zM256 333
c97 0 154 72 154 158c0 103 -45 149 -156 149h-100c-4 0 -6 -2 -6 -6v-295c0 -4 2 -6 6 -6h102zM119 892h13c13 0 20 -1 29 -11l103 -115c2 -1 4 -2 8 -2c5 0 7 1 9 2l105 115c9 9 13 11 24 11h17c6 0 11 -4 8 -8l-124 -146c-4 -5 -9 -8 -15 -8h-49c-6 0 -11 3 -15 8
l-121 146c-3 4 2 8 8 8z" />
    <glyph glyph-name="rcaron" unicode="&#x159;" horiz-adv-x="326" 
d="M95 518c0 6 4 9 10 10c54 12 98 17 135 17c32 0 46 -1 68 -5c3 -1 6 -2 5 -7l-5 -29c-1 -5 -3 -6 -7 -5c-19 4 -42 7 -65 7c-24 0 -58 -3 -85 -9c-7 -2 -10 -4 -10 -11v-476c0 -6 -4 -10 -10 -10h-26c-6 0 -10 4 -10 10v508zM60 800h13c13 0 20 -1 29 -14l104 -145
c2 -2 4 -3 8 -3c6 0 8 1 10 3l106 145c9 12 13 14 24 14h17c6 0 11 -1 8 -6l-125 -180c-4 -6 -9 -10 -15 -10h-50c-6 0 -11 4 -15 10l-122 180c-3 5 2 6 8 6z" />
    <glyph glyph-name="Sacute" unicode="&#x15a;" horiz-adv-x="423" 
d="M232 643c-86 0 -124 -33 -124 -109c0 -19 4 -51 16 -70c16 -25 59 -66 120 -109c56 -39 89 -72 111 -105c20 -30 25 -62 25 -94c0 -123 -82 -163 -187 -163c-47 0 -99 6 -148 18c-4 1 -5 3 -5 9l4 29c0 3 3 6 8 5c51 -11 90 -18 141 -18c81 0 140 30 140 120
c0 28 -2 47 -16 69c-15 24 -51 58 -112 101c-56 39 -105 83 -124 115c-18 31 -23 63 -23 90c0 126 84 155 178 155c47 0 89 -5 119 -14c4 -1 5 -3 5 -9l-4 -29c0 -3 -3 -7 -8 -5c-30 9 -78 14 -116 14zM224 742h-19c-6 0 -7 6 -3 10l144 142c5 5 13 10 19 10h29
c16 0 13 -13 8 -16l-152 -135c-12 -11 -17 -11 -26 -11z" />
    <glyph glyph-name="sacute" unicode="&#x15b;" horiz-adv-x="392" 
d="M170 -10c-47 0 -80 4 -111 10c-3 1 -4 2 -4 7l4 30c0 3 2 5 6 4c35 -7 67 -11 100 -11c81 0 125 15 125 86c0 59 -17 77 -106 143c-88 65 -120 92 -120 166c0 79 55 120 152 120c47 0 78 -3 105 -8c3 -1 4 -2 4 -7l-4 -29c0 -3 -2 -5 -6 -4c-26 5 -56 9 -89 9
c-65 0 -116 -16 -116 -78c0 -61 27 -81 97 -132c85 -62 128 -92 128 -181c0 -85 -48 -125 -165 -125zM189 610h-17c-6 0 -9 3 -7 6l103 186c4 6 9 10 15 10h27c6 0 10 -4 10 -10l-110 -176c-9 -14 -12 -16 -21 -16z" />
    <glyph glyph-name="Scircumflex" unicode="&#x15c;" horiz-adv-x="423" 
d="M232 643c-86 0 -124 -33 -124 -109c0 -19 4 -51 16 -70c16 -25 59 -66 120 -109c56 -39 89 -72 111 -105c20 -30 25 -62 25 -94c0 -123 -82 -163 -187 -163c-47 0 -99 6 -148 18c-4 1 -5 3 -5 9l4 29c0 3 3 6 8 5c51 -11 90 -18 141 -18c81 0 140 30 140 120
c0 28 -2 47 -16 69c-15 24 -51 58 -112 101c-56 39 -105 83 -124 115c-18 31 -23 63 -23 90c0 126 84 155 178 155c47 0 89 -5 119 -14c4 -1 5 -3 5 -9l-4 -29c0 -3 -3 -7 -8 -5c-30 9 -78 14 -116 14zM400 742h-13c-13 0 -20 1 -29 11l-103 115c-2 1 -4 2 -8 2
c-5 0 -7 -1 -9 -2l-105 -115c-9 -9 -13 -11 -24 -11h-17c-6 0 -11 4 -8 8l124 146c4 5 9 8 15 8h49c6 0 11 -3 15 -8l121 -146c3 -4 -2 -8 -8 -8z" />
    <glyph glyph-name="scircumflex" unicode="&#x15d;" horiz-adv-x="392" 
d="M170 -10c-47 0 -80 4 -111 10c-3 1 -4 2 -4 7l4 30c0 3 2 5 6 4c35 -7 67 -11 100 -11c81 0 125 15 125 86c0 59 -17 77 -106 143c-88 65 -120 92 -120 166c0 79 55 120 152 120c47 0 78 -3 105 -8c3 -1 4 -2 4 -7l-4 -29c0 -3 -2 -5 -6 -4c-26 5 -56 9 -89 9
c-65 0 -116 -16 -116 -78c0 -61 27 -81 97 -132c85 -62 128 -92 128 -181c0 -85 -48 -125 -165 -125zM366 610h-13c-13 0 -20 1 -29 14l-104 145c-2 2 -4 3 -8 3c-6 0 -8 -1 -10 -3l-106 -145c-9 -12 -13 -14 -24 -14h-17c-6 0 -11 1 -8 6l125 180c4 6 9 10 15 10h50
c6 0 11 -4 15 -10l122 -180c3 -5 -2 -6 -8 -6z" />
    <glyph glyph-name="Scedilla" unicode="&#x15e;" horiz-adv-x="423" 
d="M232 643c-86 0 -124 -33 -124 -109c0 -19 4 -51 16 -70c16 -25 59 -66 120 -109c56 -39 89 -72 111 -105c20 -30 25 -62 25 -94c0 -106 -61 -151 -145 -160v-6c-6 0 -11 -1 -13 -7l-11 -49c-2 -8 5 -9 13 -9c52 0 88 -8 88 -67c0 -70 -34 -98 -138 -98c-15 0 -18 1 -19 7
l-3 20c0 5 2 7 7 7h20c60 0 94 10 94 56c0 32 -9 44 -75 44h-22c-5 0 -7 2 -7 6l20 87c0 3 -1 5 -2 6c-46 1 -95 7 -142 18c-4 1 -5 3 -5 9l4 29c0 3 3 6 8 5c51 -11 90 -18 141 -18c81 0 140 30 140 120c0 28 -2 47 -16 69c-15 24 -51 58 -112 101c-56 39 -105 83 -124 115
c-18 31 -23 63 -23 90c0 126 84 155 178 155c47 0 89 -5 119 -14c4 -1 5 -3 5 -9l-4 -29c0 -3 -3 -7 -8 -5c-30 9 -78 14 -116 14z" />
    <glyph glyph-name="scedilla" unicode="&#x15f;" horiz-adv-x="392" 
d="M166 -10c-43 0 -76 4 -107 10c-3 1 -4 2 -4 7l4 30c0 3 2 5 6 4c35 -7 67 -11 100 -11c81 0 125 15 125 86c0 59 -17 77 -106 143c-88 65 -120 92 -120 166c0 79 55 120 152 120c47 0 78 -3 105 -8c3 -1 4 -2 4 -7l-4 -29c0 -3 -2 -5 -6 -4c-26 5 -56 9 -89 9
c-65 0 -116 -16 -116 -78c0 -61 27 -81 97 -132c85 -62 128 -92 128 -181c0 -72 -35 -112 -116 -122c-7 -1 -11 -4 -13 -10l-11 -49c-2 -8 5 -9 13 -9c52 0 88 -8 88 -67c0 -70 -34 -98 -138 -98c-15 0 -18 1 -19 7l-3 20c0 5 2 7 7 7h20c60 0 94 10 94 56
c0 32 -9 44 -75 44h-22c-5 0 -7 2 -7 6l20 87c0 1 0 3 -7 3z" />
    <glyph glyph-name="Scaron" unicode="&#x160;" horiz-adv-x="423" 
d="M232 643c-86 0 -124 -33 -124 -109c0 -19 4 -51 16 -70c16 -25 59 -66 120 -109c56 -39 89 -72 111 -105c20 -30 25 -62 25 -94c0 -123 -82 -163 -187 -163c-47 0 -99 6 -148 18c-4 1 -5 3 -5 9l4 29c0 3 3 6 8 5c51 -11 90 -18 141 -18c81 0 140 30 140 120
c0 28 -2 47 -16 69c-15 24 -51 58 -112 101c-56 39 -105 83 -124 115c-18 31 -23 63 -23 90c0 126 84 155 178 155c47 0 89 -5 119 -14c4 -1 5 -3 5 -9l-4 -29c0 -3 -3 -7 -8 -5c-30 9 -78 14 -116 14zM87 892h13c13 0 20 -1 29 -11l103 -115c2 -1 4 -2 8 -2c5 0 7 1 9 2
l105 115c9 9 13 11 24 11h17c6 0 11 -4 8 -8l-124 -146c-4 -5 -9 -8 -15 -8h-49c-6 0 -11 3 -15 8l-121 146c-3 4 2 8 8 8z" />
    <glyph glyph-name="scaron" unicode="&#x161;" horiz-adv-x="392" 
d="M170 -10c-47 0 -80 4 -111 10c-3 1 -4 2 -4 7l4 30c0 3 2 5 6 4c35 -7 67 -11 100 -11c81 0 125 15 125 86c0 59 -17 77 -106 143c-88 65 -120 92 -120 166c0 79 55 120 152 120c47 0 78 -3 105 -8c3 -1 4 -2 4 -7l-4 -29c0 -3 -2 -5 -6 -4c-26 5 -56 9 -89 9
c-65 0 -116 -16 -116 -78c0 -61 27 -81 97 -132c85 -62 128 -92 128 -181c0 -85 -48 -125 -165 -125zM54 800h13c13 0 20 -1 29 -14l104 -145c2 -2 4 -3 8 -3c6 0 8 1 10 3l106 145c9 12 13 14 24 14h17c6 0 11 -1 8 -6l-125 -180c-4 -6 -9 -10 -15 -10h-50
c-6 0 -11 4 -15 10l-122 180c-3 5 2 6 8 6z" />
    <glyph glyph-name="uni0162" unicode="&#x162;" horiz-adv-x="403" 
d="M178 10v622c0 4 -2 6 -6 6h-142c-6 0 -10 4 -10 10v22c0 6 4 10 10 10h344c6 0 10 -4 10 -10v-22c0 -6 -4 -10 -10 -10h-142c-4 0 -6 -2 -6 -6v-622c0 -6 -4 -10 -10 -10h-28c-6 0 -10 4 -10 10zM127 -234h-17c-6 0 -9 3 -7 6l77 160c4 6 9 10 15 10h27c6 0 10 -4 10 -10
l-84 -150c-9 -14 -12 -16 -21 -16z" />
    <glyph glyph-name="uni0163" unicode="&#x163;" horiz-adv-x="297" 
d="M261 -2c-13 -3 -36 -6 -58 -6c-78 0 -85 45 -85 98v401c0 4 -2 6 -6 6h-83c-6 0 -10 4 -10 10v18c0 6 4 10 10 10h83c4 0 6 2 6 6v125c0 6 4 10 10 10h26c6 0 10 -4 10 -10v-125c0 -4 2 -6 6 -6h93c6 0 10 -4 10 -10v-18c0 -6 -4 -10 -10 -10h-93c-4 0 -6 -2 -6 -6v-387
c0 -63 6 -75 57 -75h39c6 0 9 -1 9 -7v-14c0 -6 -2 -9 -8 -10zM123 -234h-17c-6 0 -9 3 -7 6l77 160c4 6 9 10 15 10h27c6 0 10 -4 10 -10l-84 -150c-9 -14 -12 -16 -21 -16z" />
    <glyph glyph-name="uni021A" unicode="&#x21a;" horiz-adv-x="403" 
d="M178 10v622c0 4 -2 6 -6 6h-142c-6 0 -10 4 -10 10v22c0 6 4 10 10 10h344c6 0 10 -4 10 -10v-22c0 -6 -4 -10 -10 -10h-142c-4 0 -6 -2 -6 -6v-622c0 -6 -4 -10 -10 -10h-28c-6 0 -10 4 -10 10zM127 -234h-17c-6 0 -9 3 -7 6l77 160c4 6 9 10 15 10h27c6 0 10 -4 10 -10
l-84 -150c-9 -14 -12 -16 -21 -16z" />
    <glyph glyph-name="uni021B" unicode="&#x21b;" horiz-adv-x="297" 
d="M261 -2c-13 -3 -36 -6 -58 -6c-78 0 -85 45 -85 98v401c0 4 -2 6 -6 6h-83c-6 0 -10 4 -10 10v18c0 6 4 10 10 10h83c4 0 6 2 6 6v125c0 6 4 10 10 10h26c6 0 10 -4 10 -10v-125c0 -4 2 -6 6 -6h93c6 0 10 -4 10 -10v-18c0 -6 -4 -10 -10 -10h-93c-4 0 -6 -2 -6 -6v-387
c0 -63 6 -75 57 -75h39c6 0 9 -1 9 -7v-14c0 -6 -2 -9 -8 -10zM123 -234h-17c-6 0 -9 3 -7 6l77 160c4 6 9 10 15 10h27c6 0 10 -4 10 -10l-84 -150c-9 -14 -12 -16 -21 -16z" />
    <glyph glyph-name="Tcaron" unicode="&#x164;" horiz-adv-x="403" 
d="M178 10v622c0 4 -2 6 -6 6h-142c-6 0 -10 4 -10 10v22c0 6 4 10 10 10h344c6 0 10 -4 10 -10v-22c0 -6 -4 -10 -10 -10h-142c-4 0 -6 -2 -6 -6v-622c0 -6 -4 -10 -10 -10h-28c-6 0 -10 4 -10 10zM52 892h13c13 0 20 -1 29 -11l103 -115c2 -1 4 -2 8 -2c5 0 7 1 9 2
l105 115c9 9 13 11 24 11h17c6 0 11 -4 8 -8l-124 -146c-4 -5 -9 -8 -15 -8h-49c-6 0 -11 3 -15 8l-121 146c-3 4 2 8 8 8z" />
    <glyph glyph-name="tcaron" unicode="&#x165;" horiz-adv-x="297" 
d="M261 -2c-13 -3 -36 -6 -58 -6c-78 0 -85 45 -85 98v401c0 4 -2 6 -6 6h-83c-6 0 -10 4 -10 10v18c0 6 4 10 10 10h83c4 0 6 2 6 6v125c0 6 4 10 10 10h26c6 0 10 -4 10 -10v-125c0 -4 2 -6 6 -6h93c6 0 10 -4 10 -10v-18c0 -6 -4 -10 -10 -10h-93c-4 0 -6 -2 -6 -6v-387
c0 -63 6 -75 57 -75h39c6 0 9 -1 9 -7v-14c0 -6 -2 -9 -8 -10zM286 618h-17c-6 0 -8 4 -7 7l48 192c2 7 8 10 14 10h29c7 0 11 -5 9 -11l-58 -179c-5 -16 -9 -19 -18 -19z" />
    <glyph glyph-name="Tbar" unicode="&#x166;" horiz-adv-x="403" 
d="M178 10v346c-1 3 -3 5 -6 5h-86c-6 0 -10 4 -10 10v16c0 6 4 10 10 10h86c3 0 5 1 6 4v231c0 4 -2 6 -6 6h-142c-6 0 -10 4 -10 10v22c0 6 4 10 10 10h344c6 0 10 -4 10 -10v-22c0 -6 -4 -10 -10 -10h-142c-4 0 -6 -2 -6 -6v-229c0 -4 2 -6 6 -6h91c6 0 10 -4 10 -10v-16
c0 -6 -4 -10 -10 -10h-91c-4 0 -6 -2 -6 -5v-346c0 -6 -4 -10 -10 -10h-28c-6 0 -10 4 -10 10z" />
    <glyph glyph-name="tbar" unicode="&#x167;" horiz-adv-x="297" 
d="M261 -2c-13 -3 -36 -6 -58 -6c-78 0 -85 45 -85 98v187c-1 3 -3 5 -6 5h-56c-6 0 -10 4 -10 10v15c0 6 4 10 10 10h56c4 0 6 2 6 6v168c0 4 -2 6 -6 6h-83c-6 0 -10 4 -10 10v18c0 6 4 10 10 10h83c4 0 6 2 6 6v125c0 6 4 10 10 10h26c6 0 10 -4 10 -10v-125
c0 -4 2 -6 6 -6h93c6 0 10 -4 10 -10v-18c0 -6 -4 -10 -10 -10h-93c-4 0 -6 -2 -6 -6v-168c0 -4 2 -6 6 -6h69c6 0 10 -4 10 -10v-15c0 -6 -4 -10 -10 -10h-69c-4 0 -6 -2 -6 -5v-173c0 -63 6 -75 57 -75h39c6 0 9 -1 9 -7v-14c0 -6 -2 -9 -8 -10z" />
    <glyph glyph-name="Utilde" unicode="&#x168;" horiz-adv-x="593" 
d="M503 670v-514c0 -100 -70 -165 -213 -165c-134 0 -200 65 -200 165v514c0 6 4 10 10 10h28c6 0 10 -4 10 -10v-507c0 -101 57 -130 153 -130s164 29 164 131v506c0 6 4 10 10 10h28c6 0 10 -4 10 -10zM308 805c26 -19 45 -28 61 -28c26 0 41 23 45 55c1 6 2 7 6 7h24
c5 0 5 -3 5 -8c0 -37 -25 -91 -80 -91c-28 0 -45 8 -81 34c-26 19 -45 28 -61 28c-26 0 -41 -23 -45 -55c-1 -6 -2 -7 -6 -7h-24c-5 0 -5 3 -5 8c0 37 25 91 80 91c28 0 45 -8 81 -34z" />
    <glyph glyph-name="utilde" unicode="&#x169;" horiz-adv-x="556" 
d="M283 -10c-137 0 -193 38 -193 162v373c0 6 4 10 10 10h26c6 0 10 -4 10 -10v-366c0 -95 32 -130 149 -130c48 0 98 6 120 11c7 2 10 4 10 11v474c0 6 4 10 10 10h26c6 0 10 -4 10 -10v-507c0 -6 -4 -10 -10 -10c-54 -12 -119 -18 -168 -18zM306 705c26 -19 45 -28 61 -28
c26 0 41 23 45 55c1 6 2 7 6 7h24c5 0 5 -3 5 -8c0 -37 -25 -91 -80 -91c-28 0 -45 8 -81 34c-26 19 -45 28 -61 28c-26 0 -41 -23 -45 -55c-1 -6 -2 -7 -6 -7h-24c-5 0 -5 3 -5 8c0 37 25 91 80 91c28 0 45 -8 81 -34z" />
    <glyph glyph-name="Umacron" unicode="&#x16a;" horiz-adv-x="593" 
d="M503 670v-514c0 -100 -70 -165 -213 -165c-134 0 -200 65 -200 165v514c0 6 4 10 10 10h28c6 0 10 -4 10 -10v-507c0 -101 57 -130 153 -130s164 29 164 131v506c0 6 4 10 10 10h28c6 0 10 -4 10 -10zM403 771h-214c-6 0 -10 4 -10 10v19c0 6 4 10 10 10h214
c6 0 10 -4 10 -10v-19c0 -6 -4 -10 -10 -10z" />
    <glyph glyph-name="umacron" unicode="&#x16b;" horiz-adv-x="556" 
d="M283 -10c-137 0 -193 38 -193 162v373c0 6 4 10 10 10h26c6 0 10 -4 10 -10v-366c0 -95 32 -130 149 -130c48 0 98 6 120 11c7 2 10 4 10 11v474c0 6 4 10 10 10h26c6 0 10 -4 10 -10v-507c0 -6 -4 -10 -10 -10c-54 -12 -119 -18 -168 -18zM392 665h-214
c-6 0 -10 4 -10 10v19c0 6 4 10 10 10h214c6 0 10 -4 10 -10v-19c0 -6 -4 -10 -10 -10z" />
    <glyph glyph-name="Ubreve" unicode="&#x16c;" horiz-adv-x="593" 
d="M503 670v-514c0 -100 -70 -165 -213 -165c-134 0 -200 65 -200 165v514c0 6 4 10 10 10h28c6 0 10 -4 10 -10v-507c0 -101 57 -130 153 -130s164 29 164 131v506c0 6 4 10 10 10h28c6 0 10 -4 10 -10zM296 776c76 0 98 17 98 91c0 7 3 8 11 8h16c6 0 10 -2 10 -8
c0 -89 -27 -126 -136 -126s-134 37 -134 126c0 6 4 8 10 8h17c8 0 10 -1 10 -8c0 -74 22 -91 98 -91z" />
    <glyph glyph-name="ubreve" unicode="&#x16d;" horiz-adv-x="556" 
d="M283 -10c-137 0 -193 38 -193 162v373c0 6 4 10 10 10h26c6 0 10 -4 10 -10v-366c0 -95 32 -130 149 -130c48 0 98 6 120 11c7 2 10 4 10 11v474c0 6 4 10 10 10h26c6 0 10 -4 10 -10v-507c0 -6 -4 -10 -10 -10c-54 -12 -119 -18 -168 -18zM285 665c76 0 98 20 98 94
c0 7 3 8 11 8h16c6 0 10 -2 10 -8c0 -89 -27 -129 -136 -129s-134 40 -134 129c0 6 4 8 10 8h17c8 0 10 -1 10 -8c0 -74 22 -94 98 -94z" />
    <glyph glyph-name="Uring" unicode="&#x16e;" horiz-adv-x="593" 
d="M503 670v-514c0 -100 -70 -165 -213 -165c-134 0 -200 65 -200 165v514c0 6 4 10 10 10h28c6 0 10 -4 10 -10v-507c0 -101 57 -130 153 -130s164 29 164 131v506c0 6 4 10 10 10h28c6 0 10 -4 10 -10zM187 832c0 80 39 107 111 107c70 0 110 -28 110 -96
c0 -88 -50 -109 -110 -109s-111 20 -111 98zM373 839c0 62 -27 71 -75 71c-56 0 -78 -10 -78 -71c0 -66 30 -76 78 -76c52 0 75 10 75 76z" />
    <glyph glyph-name="uring" unicode="&#x16f;" horiz-adv-x="556" 
d="M283 -10c-137 0 -193 38 -193 162v373c0 6 4 10 10 10h26c6 0 10 -4 10 -10v-366c0 -95 32 -130 149 -130c48 0 98 6 120 11c7 2 10 4 10 11v474c0 6 4 10 10 10h26c6 0 10 -4 10 -10v-507c0 -6 -4 -10 -10 -10c-54 -12 -119 -18 -168 -18zM177 712c0 80 39 107 111 107
c70 0 110 -28 110 -96c0 -88 -50 -109 -110 -109s-111 20 -111 98zM363 719c0 62 -27 71 -75 71c-56 0 -78 -10 -78 -71c0 -66 30 -76 78 -76c52 0 75 10 75 76z" />
    <glyph glyph-name="Uhungarumlaut" unicode="&#x170;" horiz-adv-x="593" 
d="M503 670v-514c0 -100 -70 -165 -213 -165c-134 0 -200 65 -200 165v514c0 6 4 10 10 10h28c6 0 10 -4 10 -10v-507c0 -101 57 -130 153 -130s164 29 164 131v506c0 6 4 10 10 10h28c6 0 10 -4 10 -10zM197 742h-17c-6 0 -9 3 -7 6l103 146c4 6 9 10 15 10h27
c6 0 10 -4 10 -10l-108 -136c-10 -13 -14 -16 -23 -16zM354 742h-17c-6 0 -9 3 -7 6l103 146c4 6 9 10 15 10h27c6 0 10 -4 10 -10l-108 -136c-10 -13 -14 -16 -23 -16z" />
    <glyph glyph-name="uhungarumlaut" unicode="&#x171;" horiz-adv-x="556" 
d="M283 -10c-137 0 -193 38 -193 162v373c0 6 4 10 10 10h26c6 0 10 -4 10 -10v-366c0 -95 32 -130 149 -130c48 0 98 6 120 11c7 2 10 4 10 11v474c0 6 4 10 10 10h26c6 0 10 -4 10 -10v-507c0 -6 -4 -10 -10 -10c-54 -12 -119 -18 -168 -18zM195 610h-17c-6 0 -9 3 -7 6
l103 186c4 6 9 10 15 10h27c6 0 10 -4 10 -10l-110 -176c-9 -14 -12 -16 -21 -16zM352 610h-17c-6 0 -9 3 -7 6l103 186c4 6 9 10 15 10h27c6 0 10 -4 10 -10l-110 -176c-9 -14 -12 -16 -21 -16z" />
    <glyph glyph-name="Uogonek" unicode="&#x172;" horiz-adv-x="593" 
d="M318 -134c0 -35 19 -49 50 -49c14 0 30 1 45 4c4 1 8 2 12 2c3 0 5 -2 5 -10v-9c0 -6 -2 -10 -7 -12c-20 -7 -41 -10 -65 -10c-56 0 -85 24 -85 79c0 46 29 89 73 134c-17 -2 -36 -4 -56 -4c-134 0 -200 65 -200 165v514c0 6 4 10 10 10h28c6 0 10 -4 10 -10v-507
c0 -101 57 -130 153 -130s164 29 164 131v506c0 6 4 10 10 10h28c6 0 10 -4 10 -10v-514c0 -71 -35 -124 -106 -149l-3 -4c-54 -57 -76 -91 -76 -137z" />
    <glyph glyph-name="uogonek" unicode="&#x173;" horiz-adv-x="556" 
d="M357 -133c0 -35 19 -49 50 -49c14 0 30 1 45 4c4 1 8 2 12 2c3 0 5 -2 5 -10v-9c0 -6 -2 -10 -7 -12c-20 -7 -41 -10 -65 -10c-56 0 -85 24 -85 79c0 47 30 90 74 135c-36 -4 -73 -7 -103 -7c-137 0 -193 38 -193 162v373c0 6 4 10 10 10h26c6 0 10 -4 10 -10v-366
c0 -95 32 -130 149 -130c48 0 98 6 120 11c7 2 10 4 10 11v474c0 6 4 10 10 10h26c6 0 10 -4 10 -10v-507c0 -6 -4 -10 -10 -10c-6 -2 -12 -3 -18 -4c-54 -57 -76 -91 -76 -137z" />
    <glyph glyph-name="Wcircumflex" unicode="&#x174;" horiz-adv-x="821" 
d="M565 742h-13c-13 0 -20 1 -29 11l-103 115c-2 1 -4 2 -8 2c-5 0 -7 -1 -9 -2l-105 -115c-9 -9 -13 -11 -24 -11h-17c-6 0 -11 4 -8 8l124 146c4 5 9 8 15 8h49c6 0 11 -3 15 -8l121 -146c3 -4 -2 -8 -8 -8zM454 650c29 -155 109 -493 134 -593c3 -11 5 -15 11 -15
c7 0 8 3 11 15c27 101 100 486 119 613c1 8 7 10 14 10h27c6 0 7 -5 7 -10c-15 -91 -92 -492 -134 -658c-2 -9 -6 -12 -14 -12h-62c-7 0 -10 4 -12 10c-20 74 -103 431 -135 591c-2 8 -4 12 -9 12s-7 -4 -9 -12c-34 -160 -120 -517 -143 -590c-3 -9 -5 -11 -13 -11h-59
c-7 0 -11 4 -12 10c-38 168 -125 608 -131 661c0 7 2 9 9 9h31c6 0 7 -3 8 -10c18 -127 94 -514 117 -614c2 -9 3 -14 10 -14c6 0 7 2 11 15c26 97 109 438 141 593c1 6 4 10 10 10h63c6 0 9 -4 10 -10z" />
    <glyph glyph-name="wcircumflex" unicode="&#x175;" horiz-adv-x="798" 
d="M621 8c-2 -5 -4 -8 -8 -8h-63c-4 0 -7 2 -9 8c-29 90 -99 343 -133 477c-1 5 -4 6 -8 6c-5 0 -7 -1 -8 -6c-37 -134 -109 -377 -141 -477c-2 -7 -7 -8 -12 -8h-59c-4 0 -8 4 -9 8c-33 103 -121 448 -137 518c0 6 2 9 7 9h34c5 0 6 -4 7 -9c29 -127 94 -383 121 -481
c2 -5 5 -6 9 -6c5 0 7 1 9 6c32 100 106 354 140 481c2 6 5 9 10 9h59c5 0 8 -4 9 -9c34 -127 104 -383 133 -481c2 -5 3 -6 9 -6s7 1 9 6c30 98 100 354 127 481c2 7 5 9 10 9h30c4 0 6 -4 6 -9c-12 -65 -110 -415 -142 -518zM556 610h-13c-13 0 -20 1 -29 14l-104 145
c-2 2 -4 3 -8 3c-6 0 -8 -1 -10 -3l-106 -145c-9 -12 -13 -14 -24 -14h-17c-6 0 -11 1 -8 6l125 180c4 6 9 10 15 10h50c6 0 11 -4 15 -10l122 -180c3 -5 -2 -6 -8 -6z" />
    <glyph glyph-name="Ycircumflex" unicode="&#x176;" horiz-adv-x="450" 
d="M396 669c4 8 6 11 13 11h32c6 0 7 -4 5 -10c-41 -93 -118 -254 -164 -337c-28 -50 -35 -60 -35 -75v-248c0 -6 -4 -10 -10 -10h-28c-6 0 -10 4 -10 10v249c0 15 -8 29 -33 74c-45 80 -148 293 -162 337c-2 6 1 10 7 10h29c7 0 11 -3 14 -11c31 -74 121 -269 155 -330
c8 -14 9 -15 16 -15s8 1 16 15c36 66 123 252 155 330zM376 742h-13c-13 0 -20 1 -29 11l-103 115c-2 1 -4 2 -8 2c-5 0 -7 -1 -9 -2l-105 -115c-9 -9 -13 -11 -24 -11h-17c-6 0 -11 4 -8 8l124 146c4 5 9 8 15 8h49c6 0 11 -3 15 -8l121 -146c3 -4 -2 -8 -8 -8z" />
    <glyph glyph-name="ycircumflex" unicode="&#x177;" horiz-adv-x="455" 
d="M192 19c-41 108 -149 441 -165 507c0 6 2 9 9 9h30c6 0 8 -4 9 -9c35 -127 113 -373 148 -471c1 -5 4 -6 9 -6c7 0 8 1 10 6c34 98 111 344 141 471c2 6 6 9 13 9h25c6 0 8 -4 8 -9c-12 -65 -112 -376 -148 -479c-59 -171 -86 -227 -187 -227c-16 0 -40 2 -47 4
c-3 1 -4 2 -4 7v26c0 3 2 5 6 4c14 -2 30 -3 43 -3c64 0 87 27 128 133c1 3 3 9 3 13c0 2 -1 3 -3 3h-12c-8 0 -13 3 -16 12zM388 610h-13c-13 0 -20 1 -29 14l-104 145c-2 2 -4 3 -8 3c-6 0 -8 -1 -10 -3l-106 -145c-9 -12 -13 -14 -24 -14h-17c-6 0 -11 1 -8 6l125 180
c4 6 9 10 15 10h50c6 0 11 -4 15 -10l122 -180c3 -5 -2 -6 -8 -6z" />
    <glyph glyph-name="Ydieresis" unicode="&#x178;" horiz-adv-x="450" 
d="M396 669c4 8 6 11 13 11h32c6 0 7 -4 5 -10c-41 -93 -118 -254 -164 -337c-28 -50 -35 -60 -35 -75v-248c0 -6 -4 -10 -10 -10h-28c-6 0 -10 4 -10 10v249c0 15 -8 29 -33 74c-45 80 -148 293 -162 337c-2 6 1 10 7 10h29c7 0 11 -3 14 -11c31 -74 121 -269 155 -330
c8 -14 9 -15 16 -15s8 1 16 15c36 66 123 252 155 330zM149 772h-40c-6 0 -10 4 -10 10v45c0 6 4 10 10 10h40c6 0 10 -4 10 -10v-45c0 -6 -4 -10 -10 -10zM340 772h-40c-6 0 -10 4 -10 10v45c0 6 4 10 10 10h40c6 0 10 -4 10 -10v-45c0 -6 -4 -10 -10 -10z" />
    <glyph glyph-name="Zacute" unicode="&#x179;" horiz-adv-x="444" 
d="M390 0h-355c-6 0 -10 4 -10 10v40c0 6 2 12 14 34l298 522c7 12 8 18 8 23c0 7 -3 9 -10 9h-261c-6 0 -10 4 -10 10v22c0 6 4 10 10 10h316c6 0 10 -4 10 -10v-27c0 -6 0 -19 -9 -34l-308 -542c-2 -4 -3 -9 -3 -15s2 -8 5 -8h306c6 0 10 -4 10 -10v-24
c0 -6 -4 -10 -11 -10zM213 742h-19c-6 0 -7 6 -3 10l144 142c5 5 13 10 19 10h29c16 0 13 -13 8 -16l-152 -135c-12 -11 -17 -11 -26 -11z" />
    <glyph glyph-name="zacute" unicode="&#x17a;" horiz-adv-x="444" 
d="M383 0h-317c-6 0 -10 4 -10 10v23c0 10 3 20 9 29l258 408c8 13 8 16 8 21c0 4 -1 6 -8 6h-231c-6 0 -10 4 -10 10v18c0 6 4 10 10 10h282c6 0 10 -4 10 -10v-18c0 -10 -1 -17 -7 -28l-264 -421c-3 -4 -4 -8 -4 -12c0 -5 1 -6 4 -6h271c6 0 10 -4 10 -10v-20
c0 -6 -4 -10 -11 -10zM237 610h-17c-6 0 -9 3 -7 6l103 186c4 6 9 10 15 10h27c6 0 10 -4 10 -10l-110 -176c-9 -14 -12 -16 -21 -16z" />
    <glyph glyph-name="Zdotaccent" unicode="&#x17b;" horiz-adv-x="444" 
d="M390 0h-355c-6 0 -10 4 -10 10v40c0 6 2 12 14 34l298 522c7 12 8 18 8 23c0 7 -3 9 -10 9h-261c-6 0 -10 4 -10 10v22c0 6 4 10 10 10h316c6 0 10 -4 10 -10v-27c0 -6 0 -19 -9 -34l-308 -542c-2 -4 -3 -9 -3 -15s2 -8 5 -8h306c6 0 10 -4 10 -10v-24
c0 -6 -4 -10 -11 -10zM254 771h-40c-6 0 -10 4 -10 10v45c0 6 4 10 10 10h40c6 0 10 -4 10 -10v-45c0 -6 -4 -10 -10 -10z" />
    <glyph glyph-name="zdotaccent" unicode="&#x17c;" horiz-adv-x="444" 
d="M383 0h-317c-6 0 -10 4 -10 10v23c0 10 3 20 9 29l258 408c8 13 8 16 8 21c0 4 -1 6 -8 6h-231c-6 0 -10 4 -10 10v18c0 6 4 10 10 10h282c6 0 10 -4 10 -10v-18c0 -10 -1 -17 -7 -28l-264 -421c-3 -4 -4 -8 -4 -12c0 -5 1 -6 4 -6h271c6 0 10 -4 10 -10v-20
c0 -6 -4 -10 -11 -10zM264 659h-40c-6 0 -10 4 -10 10v45c0 6 4 10 10 10h40c6 0 10 -4 10 -10v-45c0 -6 -4 -10 -10 -10z" />
    <glyph glyph-name="Zcaron" unicode="&#x17d;" horiz-adv-x="444" 
d="M390 0h-355c-6 0 -10 4 -10 10v40c0 6 2 12 14 34l298 522c7 12 8 18 8 23c0 7 -3 9 -10 9h-261c-6 0 -10 4 -10 10v22c0 6 4 10 10 10h316c6 0 10 -4 10 -10v-27c0 -6 0 -19 -9 -34l-308 -542c-2 -4 -3 -9 -3 -15s2 -8 5 -8h306c6 0 10 -4 10 -10v-24
c0 -6 -4 -10 -11 -10zM96 892h13c13 0 20 -1 29 -11l103 -115c2 -1 4 -2 8 -2c5 0 7 1 9 2l105 115c9 9 13 11 24 11h17c6 0 11 -4 8 -8l-124 -146c-4 -5 -9 -8 -15 -8h-49c-6 0 -11 3 -15 8l-121 146c-3 4 2 8 8 8z" />
    <glyph glyph-name="zcaron" unicode="&#x17e;" horiz-adv-x="444" 
d="M383 0h-317c-6 0 -10 4 -10 10v23c0 10 3 20 9 29l258 408c8 13 8 16 8 21c0 4 -1 6 -8 6h-231c-6 0 -10 4 -10 10v18c0 6 4 10 10 10h282c6 0 10 -4 10 -10v-18c0 -10 -1 -17 -7 -28l-264 -421c-3 -4 -4 -8 -4 -12c0 -5 1 -6 4 -6h271c6 0 10 -4 10 -10v-20
c0 -6 -4 -10 -11 -10zM87 800h13c13 0 20 -1 29 -14l104 -145c2 -2 4 -3 8 -3c6 0 8 1 10 3l106 145c9 12 13 14 24 14h17c6 0 11 -1 8 -6l-125 -180c-4 -6 -9 -10 -15 -10h-50c-6 0 -11 4 -15 10l-122 180c-3 5 2 6 8 6z" />
    <glyph glyph-name="florin" unicode="&#x192;" 
d="M297 359l-64 -401c-9 -56 -30 -145 -133 -145c-31 0 -47 3 -54 5c-5 2 -8 3 -6 9l4 22c1 7 7 7 13 6c12 -2 30 -4 45 -4c50 0 77 31 89 110l63 398c0 4 -1 6 -5 6h-125c-6 0 -10 4 -9 10l4 18c1 6 5 10 11 10h125c4 0 7 2 7 6l28 181c12 80 38 145 142 145
c23 0 54 -5 61 -7c5 -2 6 -7 5 -13l-2 -18c-2 -7 -5 -7 -11 -6c-12 3 -28 6 -51 6c-68 0 -89 -25 -102 -110l-27 -178c0 -4 1 -6 5 -6h136c6 0 10 -4 9 -10l-4 -18c-1 -6 -5 -10 -11 -10h-136c-4 0 -7 -2 -7 -6z" />
    <glyph glyph-name="Scommaaccent" unicode="&#x218;" horiz-adv-x="423" 
d="M233 643c-86 0 -124 -33 -124 -109c0 -19 4 -51 16 -70c16 -25 59 -66 120 -109c56 -39 89 -72 111 -105c20 -30 25 -62 25 -94c0 -123 -82 -163 -187 -163c-47 0 -99 6 -148 18c-4 1 -5 3 -5 9l4 29c0 3 3 6 8 5c51 -11 90 -18 141 -18c81 0 140 30 140 120
c0 28 -2 47 -16 69c-15 24 -51 58 -112 101c-56 39 -105 83 -124 115c-18 31 -23 63 -23 90c0 126 84 155 178 155c47 0 89 -5 119 -14c4 -1 5 -3 5 -9l-4 -29c0 -3 -3 -7 -8 -5c-30 9 -78 14 -116 14zM155 -234h-17c-6 0 -9 3 -7 6l77 160c4 6 9 10 15 10h27
c6 0 10 -4 10 -10l-84 -150c-9 -14 -12 -16 -21 -16z" />
    <glyph glyph-name="scommaaccent" unicode="&#x219;" horiz-adv-x="392" 
d="M170 -10c-47 0 -80 4 -111 10c-3 1 -4 2 -4 7l4 30c0 3 2 5 6 4c35 -7 67 -11 100 -11c81 0 125 15 125 86c0 59 -17 77 -106 143c-88 65 -120 92 -120 166c0 79 55 120 152 120c47 0 78 -3 105 -8c3 -1 4 -2 4 -7l-4 -29c0 -3 -2 -5 -6 -4c-26 5 -56 9 -89 9
c-65 0 -116 -16 -116 -78c0 -61 27 -81 97 -132c85 -62 128 -92 128 -181c0 -85 -48 -125 -165 -125zM141 -234h-17c-6 0 -9 3 -7 6l77 160c4 6 9 10 15 10h27c6 0 10 -4 10 -10l-84 -150c-9 -14 -12 -16 -21 -16z" />
    <glyph glyph-name="dotlessj" unicode="&#x237;" horiz-adv-x="259" 
d="M154 525v-554c0 -119 -42 -151 -123 -151c-29 0 -60 5 -67 7c-6 2 -8 7 -7 13l2 19c2 7 6 7 12 6c12 -2 34 -5 50 -5c61 0 86 6 86 111v554c0 6 4 10 10 10h27c6 0 10 -4 10 -10z" />
    <glyph glyph-name="circumflex" unicode="&#x2c6;" horiz-adv-x="500" 
d="M405 610h-13c-13 0 -20 1 -29 14l-104 145c-2 2 -4 3 -8 3c-6 0 -8 -1 -10 -3l-106 -145c-9 -12 -13 -14 -24 -14h-17c-6 0 -11 1 -8 6l125 180c4 6 9 10 15 10h50c6 0 11 -4 15 -10l122 -180c3 -5 -2 -6 -8 -6z" />
    <glyph glyph-name="caron" unicode="&#x2c7;" horiz-adv-x="500" 
d="M94 800h13c13 0 20 -1 29 -14l104 -145c2 -2 4 -3 8 -3c6 0 8 1 10 3l106 145c9 12 13 14 24 14h17c6 0 11 -1 8 -6l-125 -180c-4 -6 -9 -10 -15 -10h-50c-6 0 -11 4 -15 10l-122 180c-3 5 2 6 8 6z" />
    <glyph glyph-name="uni02C9" unicode="&#x2c9;" horiz-adv-x="500" 
d="M357 665h-214c-6 0 -10 4 -10 10v19c0 6 4 10 10 10h214c6 0 10 -4 10 -10v-19c0 -6 -4 -10 -10 -10z" />
    <glyph glyph-name="breve" unicode="&#x2d8;" horiz-adv-x="500" 
d="M250 665c76 0 98 20 98 94c0 7 3 8 11 8h16c6 0 10 -2 10 -8c0 -89 -27 -129 -136 -129s-134 40 -134 129c0 6 4 8 10 8h17c8 0 10 -1 10 -8c0 -74 22 -94 98 -94z" />
    <glyph glyph-name="dotaccent" unicode="&#x2d9;" horiz-adv-x="500" 
d="M271 659h-40c-6 0 -10 4 -10 10v45c0 6 4 10 10 10h40c6 0 10 -4 10 -10v-45c0 -6 -4 -10 -10 -10z" />
    <glyph glyph-name="ring" unicode="&#x2da;" horiz-adv-x="500" 
d="M139 712c0 80 39 107 111 107c70 0 110 -28 110 -96c0 -88 -50 -109 -110 -109s-111 20 -111 98zM325 719c0 62 -27 71 -75 71c-56 0 -78 -10 -78 -71c0 -66 30 -76 78 -76c52 0 75 10 75 76z" />
    <glyph glyph-name="ogonek" unicode="&#x2db;" horiz-adv-x="500" 
d="M227 -133c0 -35 19 -49 50 -49c14 0 30 1 45 4c4 1 8 2 12 2c3 0 5 -2 5 -10v-9c0 -6 -2 -10 -7 -12c-20 -7 -41 -10 -65 -10c-56 0 -85 24 -85 79c0 53 39 101 94 154c8 8 13 9 22 9c5 0 11 -2 11 -7c0 -6 -2 -9 -6 -14c-54 -57 -76 -91 -76 -137z" />
    <glyph glyph-name="tilde" unicode="&#x2dc;" horiz-adv-x="500" 
d="M260 705c26 -19 45 -28 61 -28c26 0 41 23 45 55c1 6 2 7 6 7h24c5 0 5 -3 5 -8c0 -37 -25 -91 -80 -91c-28 0 -45 8 -81 34c-26 19 -45 28 -61 28c-26 0 -41 -23 -45 -55c-1 -6 -2 -7 -6 -7h-24c-5 0 -5 3 -5 8c0 37 25 91 80 91c28 0 45 -8 81 -34z" />
    <glyph glyph-name="hungarumlaut" unicode="&#x2dd;" horiz-adv-x="500" 
d="M143 610h-17c-6 0 -9 3 -7 6l103 186c4 6 9 10 15 10h27c6 0 10 -4 10 -10l-110 -176c-9 -14 -12 -16 -21 -16zM300 610h-17c-6 0 -9 3 -7 6l103 186c4 6 9 10 15 10h27c6 0 10 -4 10 -10l-110 -176c-9 -14 -12 -16 -21 -16z" />
    <glyph glyph-name="commaaccent" horiz-adv-x="500" 
d="M209 -234h-17c-6 0 -9 3 -7 6l77 160c4 6 9 10 15 10h27c6 0 10 -4 10 -10l-84 -150c-9 -14 -12 -16 -21 -16z" />
    <glyph glyph-name="uni0394" unicode="&#x394;" horiz-adv-x="499" 
d="M481 55c2 -6 4 -16 4 -25v-19c0 -7 -5 -11 -13 -11h-443c-9 0 -13 5 -13 11v16c0 6 2 21 4 29c35 120 142 480 186 614c2 6 6 10 12 10h75c7 0 10 -4 12 -10c44 -149 150 -527 176 -615zM76 41h346c7 0 9 2 9 8c-16 65 -130 477 -160 581c-2 6 -3 7 -17 7
c-13 0 -15 -1 -17 -7c-31 -102 -151 -512 -170 -581c0 -6 2 -8 9 -8z" />
    <glyph glyph-name="uni03A9" unicode="&#x3a9;" horiz-adv-x="637" 
d="M432 41h131c6 0 10 -4 10 -10v-21c0 -6 -4 -10 -10 -10h-172c-11 0 -12 6 -12 17v25c0 23 2 33 25 57c88 88 108 190 108 287c0 213 -77 264 -194 264c-116 0 -193 -51 -193 -264c0 -97 20 -199 108 -287c23 -24 25 -34 25 -57v-25c1 -11 -3 -17 -12 -17h-170
c-6 0 -10 4 -10 10v21c0 6 4 10 10 10h129c7 0 8 3 8 12c0 7 -5 18 -17 29c-66 64 -119 157 -119 307c0 212 75 300 243 300c165 0 240 -88 240 -300c0 -150 -53 -243 -119 -307c-12 -11 -17 -20 -17 -30c0 -9 1 -11 8 -11z" />
    <glyph glyph-name="uni03BC" unicode="&#x3bc;" horiz-adv-x="556" 
d="M92 -170v695c0 6 4 10 10 10h26c6 0 10 -4 10 -10v-366c0 -95 32 -130 149 -130c48 0 98 6 120 11c7 2 10 4 10 11v474c0 6 4 10 10 10h26c6 0 10 -4 10 -10v-507c0 -6 -4 -10 -10 -10c-54 -12 -119 -18 -166 -18c-37 0 -98 8 -121 19c-6 3 -13 7 -18 7
c-9 0 -10 -17 -10 -28v-158c0 -6 -4 -10 -10 -10h-26c-6 0 -10 4 -10 10z" />
    <glyph glyph-name="pi" unicode="&#x3c0;" horiz-adv-x="601" 
d="M554 -2c-13 -3 -36 -6 -58 -6c-78 0 -85 45 -85 98v401c0 4 -2 6 -6 6h-229c-3 0 -6 -3 -6 -6v-481c0 -6 -4 -10 -10 -10h-26c-6 0 -10 4 -10 10v481c0 3 -2 6 -5 6h-78c-6 0 -10 4 -10 10v18c0 6 4 10 10 10h511c6 0 10 -4 10 -10v-18c0 -6 -4 -10 -10 -10h-89
c-4 0 -6 -2 -6 -6v-387c0 -63 6 -75 57 -75h39c6 0 9 -1 9 -7v-14c0 -6 -2 -9 -8 -10z" />
    <glyph glyph-name="Wgrave" unicode="&#x1e80;" horiz-adv-x="821" 
d="M437 742h-19c-9 0 -14 0 -26 11l-152 135c-5 3 -8 16 8 16h29c6 0 14 -5 19 -10l144 -142c4 -4 3 -10 -3 -10zM454 650c29 -155 109 -493 134 -593c3 -11 5 -15 11 -15c7 0 8 3 11 15c27 101 100 486 119 613c1 8 7 10 14 10h27c6 0 7 -5 7 -10
c-15 -91 -92 -492 -134 -658c-2 -9 -6 -12 -14 -12h-62c-7 0 -10 4 -12 10c-20 74 -103 431 -135 591c-2 8 -4 12 -9 12s-7 -4 -9 -12c-34 -160 -120 -517 -143 -590c-3 -9 -5 -11 -13 -11h-59c-7 0 -11 4 -12 10c-38 168 -125 608 -131 661c0 7 2 9 9 9h31c6 0 7 -3 8 -10
c18 -127 94 -514 117 -614c2 -9 3 -14 10 -14c6 0 7 2 11 15c26 97 109 438 141 593c1 6 4 10 10 10h63c6 0 9 -4 10 -10z" />
    <glyph glyph-name="wgrave" unicode="&#x1e81;" horiz-adv-x="798" 
d="M621 8c-2 -5 -4 -8 -8 -8h-63c-4 0 -7 2 -9 8c-29 90 -99 343 -133 477c-1 5 -4 6 -8 6c-5 0 -7 -1 -8 -6c-37 -134 -109 -377 -141 -477c-2 -7 -7 -8 -12 -8h-59c-4 0 -8 4 -9 8c-33 103 -121 448 -137 518c0 6 2 9 7 9h34c5 0 6 -4 7 -9c29 -127 94 -383 121 -481
c2 -5 5 -6 9 -6c5 0 7 1 9 6c32 100 106 354 140 481c2 6 5 9 10 9h59c5 0 8 -4 9 -9c34 -127 104 -383 133 -481c2 -5 3 -6 9 -6s7 1 9 6c30 98 100 354 127 481c2 7 5 9 10 9h30c4 0 6 -4 6 -9c-12 -65 -110 -415 -142 -518zM420 610h-17c-9 0 -12 2 -21 16l-110 176
c0 6 4 10 10 10h27c6 0 11 -4 15 -10l103 -186c2 -3 -1 -6 -7 -6z" />
    <glyph glyph-name="Wacute" unicode="&#x1e82;" horiz-adv-x="821" 
d="M454 650c29 -155 109 -493 134 -593c3 -11 5 -15 11 -15c7 0 8 3 11 15c27 101 100 486 119 613c1 8 7 10 14 10h27c6 0 7 -5 7 -10c-15 -91 -92 -492 -134 -658c-2 -9 -6 -12 -14 -12h-62c-7 0 -10 4 -12 10c-20 74 -103 431 -135 591c-2 8 -4 12 -9 12s-7 -4 -9 -12
c-34 -160 -120 -517 -143 -590c-3 -9 -5 -11 -13 -11h-59c-7 0 -11 4 -12 10c-38 168 -125 608 -131 661c0 7 2 9 9 9h31c6 0 7 -3 8 -10c18 -127 94 -514 117 -614c2 -9 3 -14 10 -14c6 0 7 2 11 15c26 97 109 438 141 593c1 6 4 10 10 10h63c6 0 9 -4 10 -10zM401 742h-19
c-6 0 -7 6 -3 10l144 142c5 5 13 10 19 10h29c16 0 13 -13 8 -16l-152 -135c-12 -11 -17 -11 -26 -11z" />
    <glyph glyph-name="wacute" unicode="&#x1e83;" horiz-adv-x="798" 
d="M621 8c-2 -5 -4 -8 -8 -8h-63c-4 0 -7 2 -9 8c-29 90 -99 343 -133 477c-1 5 -4 6 -8 6c-5 0 -7 -1 -8 -6c-37 -134 -109 -377 -141 -477c-2 -7 -7 -8 -12 -8h-59c-4 0 -8 4 -9 8c-33 103 -121 448 -137 518c0 6 2 9 7 9h34c5 0 6 -4 7 -9c29 -127 94 -383 121 -481
c2 -5 5 -6 9 -6c5 0 7 1 9 6c32 100 106 354 140 481c2 6 5 9 10 9h59c5 0 8 -4 9 -9c34 -127 104 -383 133 -481c2 -5 3 -6 9 -6s7 1 9 6c30 98 100 354 127 481c2 7 5 9 10 9h30c4 0 6 -4 6 -9c-12 -65 -110 -415 -142 -518zM404 610h-17c-6 0 -9 3 -7 6l103 186
c4 6 9 10 15 10h27c6 0 10 -4 10 -10l-110 -176c-9 -14 -12 -16 -21 -16z" />
    <glyph glyph-name="Wdieresis" unicode="&#x1e84;" horiz-adv-x="821" 
d="M340 772h-40c-6 0 -10 4 -10 10v45c0 6 4 10 10 10h40c6 0 10 -4 10 -10v-45c0 -6 -4 -10 -10 -10zM531 772h-40c-6 0 -10 4 -10 10v45c0 6 4 10 10 10h40c6 0 10 -4 10 -10v-45c0 -6 -4 -10 -10 -10zM454 650c29 -155 109 -493 134 -593c3 -11 5 -15 11 -15
c7 0 8 3 11 15c27 101 100 486 119 613c1 8 7 10 14 10h27c6 0 7 -5 7 -10c-15 -91 -92 -492 -134 -658c-2 -9 -6 -12 -14 -12h-62c-7 0 -10 4 -12 10c-20 74 -103 431 -135 591c-2 8 -4 12 -9 12s-7 -4 -9 -12c-34 -160 -120 -517 -143 -590c-3 -9 -5 -11 -13 -11h-59
c-7 0 -11 4 -12 10c-38 168 -125 608 -131 661c0 7 2 9 9 9h31c6 0 7 -3 8 -10c18 -127 94 -514 117 -614c2 -9 3 -14 10 -14c6 0 7 2 11 15c26 97 109 438 141 593c1 6 4 10 10 10h63c6 0 9 -4 10 -10z" />
    <glyph glyph-name="wdieresis" unicode="&#x1e85;" horiz-adv-x="798" 
d="M621 8c-2 -5 -4 -8 -8 -8h-63c-4 0 -7 2 -9 8c-29 90 -99 343 -133 477c-1 5 -4 6 -8 6c-5 0 -7 -1 -8 -6c-37 -134 -109 -377 -141 -477c-2 -7 -7 -8 -12 -8h-59c-4 0 -8 4 -9 8c-33 103 -121 448 -137 518c0 6 2 9 7 9h34c5 0 6 -4 7 -9c29 -127 94 -383 121 -481
c2 -5 5 -6 9 -6c5 0 7 1 9 6c32 100 106 354 140 481c2 6 5 9 10 9h59c5 0 8 -4 9 -9c34 -127 104 -383 133 -481c2 -5 3 -6 9 -6s7 1 9 6c30 98 100 354 127 481c2 7 5 9 10 9h30c4 0 6 -4 6 -9c-12 -65 -110 -415 -142 -518zM325 659h-40c-6 0 -10 4 -10 10v45
c0 6 4 10 10 10h40c6 0 10 -4 10 -10v-45c0 -6 -4 -10 -10 -10zM516 659h-40c-6 0 -10 4 -10 10v45c0 6 4 10 10 10h40c6 0 10 -4 10 -10v-45c0 -6 -4 -10 -10 -10z" />
    <glyph glyph-name="Ygrave" unicode="&#x1ef2;" horiz-adv-x="450" 
d="M396 669c4 8 6 11 13 11h32c6 0 7 -4 5 -10c-41 -93 -118 -254 -164 -337c-28 -50 -35 -60 -35 -75v-248c0 -6 -4 -10 -10 -10h-28c-6 0 -10 4 -10 10v249c0 15 -8 29 -33 74c-45 80 -148 293 -162 337c-2 6 1 10 7 10h29c7 0 11 -3 14 -11c31 -74 121 -269 155 -330
c8 -14 9 -15 16 -15s8 1 16 15c36 66 123 252 155 330zM258 742h-19c-9 0 -14 0 -26 11l-152 135c-5 3 -8 16 8 16h29c6 0 14 -5 19 -10l144 -142c4 -4 3 -10 -3 -10z" />
    <glyph glyph-name="ygrave" unicode="&#x1ef3;" horiz-adv-x="455" 
d="M192 19c-41 108 -149 441 -165 507c0 6 2 9 9 9h30c6 0 8 -4 9 -9c35 -127 113 -373 148 -471c1 -5 4 -6 9 -6c7 0 8 1 10 6c34 98 111 344 141 471c2 6 6 9 13 9h25c6 0 8 -4 8 -9c-12 -65 -112 -376 -148 -479c-59 -171 -86 -227 -187 -227c-16 0 -40 2 -47 4
c-3 1 -4 2 -4 7v26c0 3 2 5 6 4c14 -2 30 -3 43 -3c64 0 87 27 128 133c1 3 3 9 3 13c0 2 -1 3 -3 3h-12c-8 0 -13 3 -16 12zM247 610h-17c-9 0 -12 2 -21 16l-110 176c0 6 4 10 10 10h27c6 0 11 -4 15 -10l103 -186c2 -3 -1 -6 -7 -6z" />
    <glyph glyph-name="endash" unicode="&#x2013;" horiz-adv-x="450" 
d="M385 283h-320c-6 0 -10 4 -10 10v15c0 6 4 10 10 10h320c6 0 10 -4 10 -10v-15c0 -6 -4 -10 -10 -10z" />
    <glyph glyph-name="emdash" unicode="&#x2014;" horiz-adv-x="650" 
d="M585 283h-520c-6 0 -10 4 -10 10v15c0 6 4 10 10 10h520c6 0 10 -4 10 -10v-15c0 -6 -4 -10 -10 -10z" />
    <glyph glyph-name="quoteleft" unicode="&#x2018;" horiz-adv-x="230" 
d="M136 741h14c6 0 10 -4 10 -10l-38 -250c0 -6 -4 -10 -10 -10h-31c-6 0 -12 4 -10 10l47 232c5 24 9 28 18 28z" />
    <glyph glyph-name="quoteright" unicode="&#x2019;" horiz-adv-x="230" 
d="M94 471h-14c-6 0 -10 4 -10 10l38 250c0 6 4 10 10 10h31c6 0 12 -4 10 -10l-47 -232c-5 -24 -9 -28 -18 -28z" />
    <glyph glyph-name="quotesinglbase" unicode="&#x201a;" horiz-adv-x="230" 
d="M94 -89h-14c-6 0 -10 4 -10 10l38 250c0 6 4 10 10 10h31c6 0 12 -4 10 -10l-47 -232c-5 -24 -9 -28 -18 -28z" />
    <glyph glyph-name="quotedblleft" unicode="&#x201c;" horiz-adv-x="370" 
d="M136 741h14c6 0 10 -4 10 -10l-38 -250c0 -6 -4 -10 -10 -10h-31c-6 0 -12 4 -10 10l47 232c5 24 9 28 18 28zM276 741h14c6 0 10 -4 10 -10l-38 -250c0 -6 -4 -10 -10 -10h-31c-6 0 -12 4 -10 10l47 232c5 24 9 28 18 28z" />
    <glyph glyph-name="quotedblright" unicode="&#x201d;" horiz-adv-x="370" 
d="M234 471h-14c-6 0 -10 4 -10 10l38 250c0 6 4 10 10 10h31c6 0 12 -4 10 -10l-47 -232c-5 -24 -9 -28 -18 -28zM94 471h-14c-6 0 -10 4 -10 10l38 250c0 6 4 10 10 10h31c6 0 12 -4 10 -10l-47 -232c-5 -24 -9 -28 -18 -28z" />
    <glyph glyph-name="quotedblbase" unicode="&#x201e;" horiz-adv-x="370" 
d="M234 -89h-14c-6 0 -10 4 -10 10l38 250c0 6 4 10 10 10h31c6 0 12 -4 10 -10l-47 -232c-5 -24 -9 -28 -18 -28zM94 -89h-14c-6 0 -10 4 -10 10l38 250c0 6 4 10 10 10h31c6 0 12 -4 10 -10l-47 -232c-5 -24 -9 -28 -18 -28z" />
    <glyph glyph-name="dagger" unicode="&#x2020;" 
d="M294 372v-501c0 -6 -4 -10 -10 -10h-26c-6 0 -10 4 -10 10v501c0 4 -2 6 -6 6h-187c-6 0 -10 4 -10 10v20c0 6 4 10 10 10h187c4 0 6 2 6 6v276c0 6 4 10 10 10h26c6 0 10 -4 10 -10v-276c0 -4 2 -6 6 -6h185c6 0 10 -4 10 -10v-20c0 -6 -4 -10 -10 -10h-185
c-4 0 -6 -2 -6 -6z" />
    <glyph glyph-name="daggerdbl" unicode="&#x2021;" 
d="M294 452v-337c0 -3 2 -4 6 -4h185c6 0 10 -4 10 -10v-20c0 -6 -4 -10 -10 -10h-185c-4 0 -6 -2 -6 -5v-195c0 -6 -4 -10 -10 -10h-26c-6 0 -10 4 -10 10v194c0 4 -2 6 -6 6h-187c-6 0 -10 4 -10 10v20c0 6 4 10 10 10h187c4 0 5 2 6 6v335c0 4 -2 6 -6 6h-187
c-6 0 -10 4 -10 10v20c0 6 4 10 10 10h187c4 0 6 2 6 6v196c0 6 4 10 10 10h26c6 0 10 -4 10 -10v-196c0 -4 2 -6 6 -6h185c6 0 10 -4 10 -10v-20c0 -6 -4 -10 -10 -10h-185c-4 0 -6 -2 -6 -6z" />
    <glyph glyph-name="bullet" unicode="&#x2022;" horiz-adv-x="498" 
d="M252 519c92 0 169 -79 169 -173c0 -96 -77 -172 -171 -172c-97 0 -174 76 -174 173c0 96 78 172 176 172z" />
    <glyph glyph-name="ellipsis" unicode="&#x2026;" horiz-adv-x="780" 
d="M154 0h-48c-6 0 -10 4 -10 10v57c0 6 4 10 10 10h48c6 0 10 -4 10 -10v-57c0 -6 -4 -10 -10 -10zM414 0h-48c-6 0 -10 4 -10 10v57c0 6 4 10 10 10h48c6 0 10 -4 10 -10v-57c0 -6 -4 -10 -10 -10zM674 0h-48c-6 0 -10 4 -10 10v57c0 6 4 10 10 10h48c6 0 10 -4 10 -10
v-57c0 -6 -4 -10 -10 -10z" />
    <glyph glyph-name="perthousand" unicode="&#x2030;" horiz-adv-x="1000" 
d="M143 10l388 660c3 5 8 10 14 10h21c6 0 10 -4 9 -10l-388 -660c-3 -5 -8 -10 -14 -10h-21c-6 0 -10 4 -9 10zM117 518c0 -48 8 -105 26 -124c10 -11 20 -12 43 -12s33 1 43 12c18 19 27 76 27 124c0 49 -9 108 -27 127c-10 11 -20 13 -43 13s-33 -2 -43 -13
c-18 -19 -26 -78 -26 -127zM299 518c0 -51 -12 -128 -41 -152c-17 -15 -37 -19 -72 -19s-55 5 -71 20c-30 25 -42 100 -42 151c0 52 12 128 42 154c16 14 36 18 71 18s55 -4 72 -18c29 -26 41 -102 41 -154zM460 161c0 -48 8 -105 26 -124c10 -11 20 -12 43 -12s33 1 43 12
c18 19 27 76 27 124c0 49 -9 108 -27 127c-10 11 -20 13 -43 13s-33 -2 -43 -13c-18 -19 -26 -78 -26 -127zM642 161c0 -51 -12 -128 -41 -152c-17 -15 -37 -19 -72 -19s-55 5 -71 20c-30 25 -42 100 -42 151c0 52 12 128 42 154c16 14 36 18 71 18s55 -4 72 -18
c29 -26 41 -102 41 -154zM760 161c0 -48 8 -105 26 -124c10 -11 20 -12 43 -12s33 1 43 12c18 19 27 76 27 124c0 49 -9 108 -27 127c-10 11 -20 13 -43 13s-33 -2 -43 -13c-18 -19 -26 -78 -26 -127zM942 161c0 -51 -12 -128 -41 -152c-17 -15 -37 -19 -72 -19
s-55 5 -71 20c-30 25 -42 100 -42 151c0 52 12 128 42 154c16 14 36 18 71 18s55 -4 72 -18c29 -26 41 -102 41 -154z" />
    <glyph glyph-name="guilsinglleft" unicode="&#x2039;" horiz-adv-x="330" 
d="M260 462v-14c0 -22 -1 -27 -14 -40l-117 -125c-2 -3 -3 -6 -3 -10c0 -6 1 -9 3 -12l117 -124c13 -13 14 -18 14 -40v-16c0 -6 -4 -10 -10 -10l-170 175c-5 5 -10 11 -10 17v17c0 6 5 12 10 17l170 175c6 0 10 -4 10 -10z" />
    <glyph glyph-name="guilsinglright" unicode="&#x203a;" horiz-adv-x="330" 
d="M70 80v14c0 22 1 27 14 40l117 125c2 3 3 6 3 10c0 6 -1 9 -3 12l-117 124c-13 13 -14 18 -14 40v16c0 6 4 10 10 10l170 -175c5 -5 10 -11 10 -17v-17c0 -6 -5 -12 -10 -17l-170 -175c-6 0 -10 4 -10 10z" />
    <glyph glyph-name="fraction" unicode="&#x2044;" horiz-adv-x="160" 
d="M-89 -40l286 731c2 5 6 10 10 10h27c4 0 7 -4 6 -10l-288 -731c-2 -5 -6 -10 -10 -10h-25c-4 0 -7 4 -6 10z" />
    <glyph glyph-name="Euro" unicode="&#x20ac;" 
d="M182 300h209c6 0 10 -4 10 -10v-18c0 -6 -4 -10 -10 -10h-212c-8 0 -8 -3 -8 -17c0 -152 52 -215 188 -215c35 0 92 9 119 19c5 2 12 2 13 -4l1 -23c1 -6 -1 -10 -4 -11c-34 -12 -81 -21 -134 -21c-178 0 -228 91 -228 255c0 14 -2 17 -11 17h-48c-6 0 -10 4 -10 10v18
c0 6 4 10 10 10h48c9 0 11 2 11 9v60c0 10 -5 11 -10 11h-49c-6 0 -10 4 -10 10v18c0 6 4 10 10 10h48c10 0 11 1 11 14c0 130 65 258 242 258c58 0 96 -8 121 -17c4 -2 5 -3 5 -9l-3 -26c0 -3 -3 -7 -8 -5c-24 9 -68 17 -120 17c-145 0 -192 -108 -192 -215
c0 -16 1 -17 9 -17h241c6 0 10 -4 10 -10v-18c0 -6 -4 -10 -10 -10h-239c-7 0 -11 -2 -11 -11v-60c0 -7 3 -9 11 -9z" />
    <glyph glyph-name="afii61289" unicode="&#x2113;" horiz-adv-x="545" 
d="M201 521v-261c0 -14 0 -20 5 -20c11 0 28 11 43 23c39 32 79 101 79 218c0 96 -12 156 -65 156c-46 0 -62 -50 -62 -116zM158 241v276c0 85 25 162 104 162c89 0 112 -75 112 -186c0 -140 -40 -229 -159 -297c-14 -8 -14 -18 -14 -60c0 -73 30 -103 77 -103h64
c7 0 10 -2 10 -17c0 -9 -2 -14 -11 -17c-15 -5 -44 -7 -64 -7c-105 0 -119 62 -119 160v11c0 7 -2 9 -12 4l-37 -20c-8 -4 -12 -3 -15 2l-10 18c-4 8 -2 12 5 16l58 29c9 5 11 12 11 29z" />
    <glyph glyph-name="trademark" unicode="&#x2122;" horiz-adv-x="703" 
d="M133 348v297c0 3 -1 4 -4 4h-65c-4 0 -6 2 -6 6v19c0 4 2 6 6 6h170c3 0 6 -2 6 -6v-19c0 -4 -3 -6 -6 -6h-62c-2 0 -3 -1 -3 -4v-297c0 -3 -3 -6 -6 -6h-24c-4 0 -6 3 -6 6zM439 465l55 209c0 3 4 6 8 6h56c4 0 6 -2 6 -6v-326c0 -3 -2 -6 -6 -6h-26c-3 0 -6 3 -6 6v293
c0 6 -1 6 -3 6c-3 0 -4 -2 -5 -6l-58 -206c-3 -9 -3 -11 -10 -11h-35c-7 0 -8 0 -11 10l-54 206c-2 6 -3 7 -5 7s-3 -2 -3 -8v-291c0 -3 -2 -6 -6 -6h-24c-3 0 -6 3 -6 6v326c0 4 3 6 6 6h56c4 0 6 -3 7 -6l54 -209c2 -6 3 -7 5 -7s4 1 5 7z" />
    <glyph glyph-name="Omega" unicode="&#x2126;" horiz-adv-x="637" 
d="M432 41h131c6 0 10 -4 10 -10v-21c0 -6 -4 -10 -10 -10h-172c-11 0 -12 6 -12 17v25c0 23 2 33 25 57c88 88 108 190 108 287c0 213 -77 264 -194 264c-116 0 -193 -51 -193 -264c0 -97 20 -199 108 -287c23 -24 25 -34 25 -57v-25c1 -11 -3 -17 -12 -17h-170
c-6 0 -10 4 -10 10v21c0 6 4 10 10 10h129c7 0 8 3 8 12c0 7 -5 18 -17 29c-66 64 -119 157 -119 307c0 212 75 300 243 300c165 0 240 -88 240 -300c0 -150 -53 -243 -119 -307c-12 -11 -17 -20 -17 -30c0 -9 1 -11 8 -11z" />
    <glyph glyph-name="estimated" unicode="&#x212e;" horiz-adv-x="853" 
d="M675 136h68c-69 -78 -162 -148 -330 -148c-197 0 -375 132 -375 356c0 214 186 366 399 366c255 0 380 -186 380 -360v-4h-613l-8 -10v-230c64 -58 141 -82 223 -82c116 0 199 48 256 112zM652 382l8 9v205c-70 65 -148 78 -223 78s-167 -17 -241 -87v-196l8 -9h448z" />
    <glyph glyph-name="partialdiff" unicode="&#x2202;" horiz-adv-x="583" 
d="M212 722c-7 7 -3 13 2 13h37c7 0 13 -3 26 -16c173 -164 215 -293 215 -463c0 -187 -45 -266 -206 -266c-162 0 -207 75 -207 262c0 188 33 268 196 268c67 0 90 -19 111 -19c7 0 6 4 6 7s-1 7 -2 9c-26 49 -88 131 -178 205zM128 251c0 -165 26 -222 158 -222
c117 0 158 36 158 219c0 162 -29 235 -168 235c-123 0 -148 -60 -148 -232z" />
    <glyph glyph-name="Delta" unicode="&#x2206;" horiz-adv-x="499" 
d="M481 55c2 -6 4 -16 4 -25v-19c0 -7 -5 -11 -13 -11h-443c-9 0 -13 5 -13 11v16c0 6 2 21 4 29c35 120 142 480 186 614c2 6 6 10 12 10h75c7 0 10 -4 12 -10c44 -149 150 -527 176 -615zM76 41h346c7 0 9 2 9 8c-16 65 -130 477 -160 581c-2 6 -3 7 -17 7
c-13 0 -15 -1 -17 -7c-31 -102 -151 -512 -170 -581c0 -6 2 -8 9 -8z" />
    <glyph glyph-name="product" unicode="&#x220f;" horiz-adv-x="732" 
d="M122 680h488c6 0 10 -4 10 -10v-840c0 -6 -4 -10 -10 -10h-28c-6 0 -10 4 -10 10v803c0 4 -2 6 -6 6h-400c-4 0 -6 -2 -6 -6v-803c0 -6 -4 -10 -10 -10h-28c-6 0 -10 4 -10 10v840c0 6 4 10 10 10z" />
    <glyph glyph-name="summation" unicode="&#x2211;" horiz-adv-x="554" 
d="M335 243c0 -11 -1 -18 -4 -22l-232 -346c-2 -4 -3 -9 -3 -15s2 -8 5 -8h392c6 0 10 -4 10 -10v-24c0 -6 -4 -10 -11 -10h-441c-6 0 -10 4 -10 10v40c0 6 2 12 14 34l225 328c6 8 7 13 7 25c0 11 -2 14 -7 23l-215 328c-12 22 -14 28 -14 34v40c0 6 4 10 10 10h411
c7 0 11 -4 11 -10v-22c0 -6 -4 -10 -10 -10h-362c-3 0 -5 -4 -5 -10s1 -11 3 -15l222 -346c4 -7 4 -12 4 -24z" />
    <glyph glyph-name="minus" unicode="&#x2212;" 
d="M80 270h380c6 0 10 -4 10 -10v-20c0 -6 -4 -10 -10 -10h-380c-6 0 -10 4 -10 10v20c0 6 4 10 10 10z" />
    <glyph glyph-name="uni2215" unicode="&#x2215;" horiz-adv-x="160" 
d="M-89 -40l286 731c2 5 6 10 10 10h27c4 0 7 -4 6 -10l-288 -731c-2 -5 -6 -10 -10 -10h-25c-4 0 -7 4 -6 10z" />
    <glyph glyph-name="uni2219" unicode="&#x2219;" horiz-adv-x="260" 
d="M154 262h-48c-6 0 -10 4 -10 10v57c0 6 4 10 10 10h48c6 0 10 -4 10 -10v-57c0 -6 -4 -10 -10 -10z" />
    <glyph glyph-name="radical" unicode="&#x221a;" horiz-adv-x="458" 
d="M144 321l58 -363c1 -5 5 -7 13 -7c9 0 12 2 14 7l178 711c2 9 8 11 15 11h25c6 0 8 -4 6 -10l-194 -745c0 -6 -4 -10 -10 -10h-68c-6 0 -10 4 -10 10l-68 378c0 4 -2 6 -6 6h-69c-6 0 -10 4 -10 10v18c0 6 4 10 10 10h99c6 0 13 -5 17 -26z" />
    <glyph glyph-name="infinity" unicode="&#x221e;" horiz-adv-x="888" 
d="M445 132c-5 0 -9 -4 -10 -6c-25 -69 -100 -128 -191 -128c-159 0 -211 89 -211 229s52 229 211 229c91 0 166 -59 191 -128c1 -2 5 -6 10 -6s7 4 8 6c25 69 100 128 191 128c159 0 211 -89 211 -229s-52 -229 -211 -229c-91 0 -166 59 -191 128c-1 2 -3 6 -8 6zM243 43
c104 0 176 77 176 185c0 107 -73 181 -176 181c-125 0 -159 -61 -159 -182c0 -123 34 -184 159 -184zM645 411c-104 0 -176 -77 -176 -185c0 -107 73 -181 176 -181c125 0 159 61 159 182c0 123 -34 184 -159 184z" />
    <glyph glyph-name="integral" unicode="&#x222b;" horiz-adv-x="310" 
d="M123 -71v681c0 100 32 150 109 150c23 0 39 -4 55 -9l-6 -38c-13 7 -29 10 -43 10c-48 0 -73 -28 -73 -103v-691c0 -101 -31 -149 -111 -149c-21 0 -35 2 -51 7l5 40c15 -5 28 -8 41 -8c55 0 74 32 74 110z" />
    <glyph glyph-name="approxequal" unicode="&#x2248;" 
d="M284 338c35 -26 59 -39 80 -39c41 0 56 25 63 63c2 9 3 9 8 9l27 -5c3 -1 4 -3 4 -6c0 -31 -27 -101 -100 -101c-39 0 -61 14 -108 49c-37 27 -60 37 -79 37c-41 0 -62 -24 -69 -62c-2 -9 -3 -9 -8 -9l-25 4c-3 1 -4 3 -4 6c0 31 29 101 103 101c38 0 60 -11 108 -47z
M284 192c35 -26 59 -39 80 -39c41 0 56 25 63 63c2 9 3 9 8 9l27 -5c3 -1 4 -3 4 -6c0 -31 -27 -101 -100 -101c-39 0 -61 14 -108 49c-37 27 -60 37 -79 37c-41 0 -62 -24 -69 -62c-2 -9 -3 -9 -8 -9l-25 4c-3 1 -4 3 -4 6c0 31 29 101 103 101c38 0 60 -11 108 -47z" />
    <glyph glyph-name="notequal" unicode="&#x2260;" 
d="M80 339h199c8 0 10 3 13 9l46 114c2 6 5 8 9 8c9 0 31 -7 31 -11c0 -2 -1 -6 -2 -8l-41 -101c-1 -2 -2 -5 -2 -7c0 -3 1 -4 6 -4h121c6 0 10 -4 10 -10v-20c0 -6 -4 -10 -10 -10h-129c-11 0 -16 -2 -18 -8l-35 -85c-1 -2 -2 -4 -2 -6s0 -3 3 -3h181c6 0 10 -4 10 -10v-20
c0 -6 -4 -10 -10 -10h-191c-8 0 -10 -3 -12 -9l-53 -128c-2 -4 -3 -6 -8 -6c-7 0 -32 6 -32 11c0 2 1 5 2 7l49 116c1 2 1 3 1 5c0 3 -1 4 -12 4h-124c-6 0 -10 4 -10 10v20c0 6 4 10 10 10h143c6 1 10 2 13 10l35 82c1 3 1 4 1 6s0 3 -3 4h-189c-6 0 -10 4 -10 10v20
c0 6 4 10 10 10z" />
    <glyph glyph-name="lessequal" unicode="&#x2264;" 
d="M461 485v-14c0 -12 -5 -17 -14 -20l-313 -129c-8 -3 -9 -5 -9 -12c0 -5 1 -7 9 -10l313 -129c8 -3 14 -8 14 -20v-14c0 -6 -4 -10 -10 -10l-360 152c-6 4 -10 9 -10 15v32c0 6 4 11 10 15l360 154c6 0 10 -4 10 -10zM80 63h380c6 0 10 -4 10 -10v-20c0 -6 -4 -10 -10 -10
h-380c-6 0 -10 4 -10 10v20c0 6 4 10 10 10z" />
    <glyph glyph-name="greaterequal" unicode="&#x2265;" 
d="M79 471v14c0 6 4 10 10 10l360 -154c6 -4 10 -9 10 -15v-32c0 -6 -4 -11 -10 -15l-360 -152c-6 0 -10 4 -10 10v14c0 12 6 17 14 20l313 129c8 3 9 5 9 10c0 7 -1 9 -9 12l-313 129c-9 3 -14 8 -14 20zM80 63h380c6 0 10 -4 10 -10v-20c0 -6 -4 -10 -10 -10h-380
c-6 0 -10 4 -10 10v20c0 6 4 10 10 10z" />
    <glyph glyph-name="lozenge" unicode="&#x25ca;" horiz-adv-x="470" 
d="M431 348l-172 -348h-50l-172 348l172 349h50zM80 348l82 -165c18 -36 59 -122 72 -156h2c15 35 55 120 73 157l79 163l-84 164c-19 36 -60 125 -70 154h-2c-14 -35 -53 -116 -72 -154z" />
    <glyph glyph-name="uniF8FF" unicode="&#xf8ff;" horiz-adv-x="485" 
d="M263 111h-53v63h53v-63zM257 222h-46v16c0 67 11 91 57 131c40 40 46 57 46 80c0 45 -33 80 -72 80c-38 0 -70 -25 -77 -90l-48 8c9 91 60 130 128 130c69 0 118 -49 118 -124c0 -41 -12 -69 -60 -113c-45 -41 -46 -50 -46 -101v-17zM47 47h391v585h-391v-585zM0 680h485
v-680h-485v680z" />
    <glyph glyph-name="f_i" unicode="&#xf001;" horiz-adv-x="541" 
d="M432 0h-27c-6 0 -10 4 -10 10v472c0 12 -2 15 -14 15h-205c-4 0 -6 -2 -6 -6v-481c0 -6 -4 -10 -10 -10h-26c-6 0 -10 4 -10 10v481c0 4 -2 6 -6 6h-83c-6 0 -10 4 -10 10v18c0 6 4 10 10 10h83c4 0 6 2 6 6v49c0 80 41 145 184 145c63 0 110 -5 127 -7c6 -1 8 -7 7 -13
l-2 -16c-2 -7 -6 -7 -12 -6c-38 5 -75 6 -120 6c-93 0 -138 -28 -138 -112v-46c0 -4 2 -6 6 -6h256c6 0 10 -4 10 -10v-515c0 -6 -4 -10 -10 -10z" />
    <glyph glyph-name="f_l" unicode="&#xf002;" horiz-adv-x="569" 
d="M441 715v-579c0 -93 6 -107 57 -107h39c6 0 8 -1 8 -6v-16c0 -6 -3 -9 -9 -10c-13 -3 -30 -5 -52 -5c-78 0 -89 38 -89 141v546c0 9 -4 11 -10 12c-37 5 -56 8 -97 8c-99 0 -118 -28 -118 -112v-46c0 -4 2 -6 6 -6h91c6 0 10 -4 10 -10v-18c0 -6 -4 -10 -10 -10h-91
c-4 0 -6 -2 -6 -6v-481c0 -6 -4 -10 -10 -10h-26c-6 0 -10 4 -10 10v481c0 4 -2 6 -6 6h-83c-6 0 -10 4 -10 10v18c0 6 4 10 10 10h83c4 0 6 2 6 6v49c0 80 15 145 164 145c33 0 110 -5 143 -10c6 0 10 -4 10 -10z" />
    <glyph glyph-name="zero.superior" unicode="&#x2070;" horiz-adv-x="330" 
d="M79 642c0 -62 10 -145 31 -169c12 -14 28 -16 55 -16c28 0 43 2 55 16c21 24 32 107 32 169c0 63 -11 146 -32 170c-12 14 -27 16 -55 16c-27 0 -43 -2 -55 -16c-21 -24 -31 -107 -31 -170zM296 642c0 -66 -14 -164 -49 -197c-19 -18 -40 -23 -82 -23c-41 0 -63 5 -82 23
c-35 33 -49 131 -49 197s14 163 49 197c19 18 41 24 82 24c42 0 63 -6 82 -24c35 -34 49 -131 49 -197z" />
    <glyph glyph-name="four.superior" unicode="&#x2074;" horiz-adv-x="330" 
d="M23 545v32c0 17 2 25 136 273c2 5 4 6 8 6h32c4 0 7 -1 7 -7c-101 -180 -141 -253 -141 -269c0 -5 2 -5 4 -5h131c2 0 4 1 4 4v142c0 4 2 6 6 6h31c4 0 6 -2 6 -6v-142c0 -3 1 -4 4 -4h59c3 0 6 -3 6 -7v-23c0 -4 -3 -6 -6 -6h-59c-3 0 -4 -1 -4 -4v-101
c0 -3 -2 -6 -6 -6h-31c-4 0 -6 3 -6 6v101c0 3 -2 4 -4 4h-170c-4 0 -7 2 -7 6z" />
    <glyph glyph-name="five.superior" unicode="&#x2075;" horiz-adv-x="330" 
d="M263 820h-152c-4 0 -6 -1 -6 -5l-6 -125c0 -3 1 -5 4 -5c123 0 179 -25 179 -122c0 -112 -60 -141 -156 -141c-32 0 -60 3 -85 9c-2 1 -3 2 -3 6l3 29c0 2 4 4 7 3c21 -5 49 -8 73 -8c83 0 118 19 118 99c0 75 -40 88 -151 88h-22c-7 0 -8 4 -8 11l7 189c0 7 1 8 7 8h191
c4 0 6 -2 6 -6v-24c0 -4 -2 -6 -6 -6z" />
    <glyph glyph-name="six.superior" unicode="&#x2076;" horiz-adv-x="330" 
d="M254 553c0 88 -25 99 -89 99c-72 0 -90 -15 -90 -101c0 -81 27 -91 90 -91c68 0 89 12 89 93zM221 849c-58 -61 -98 -117 -119 -162c-1 -2 -2 -5 -2 -7c0 -3 1 -4 5 -4c12 0 36 9 72 9c96 0 120 -35 120 -125c0 -112 -37 -138 -133 -138c-94 0 -132 31 -132 131
c0 87 25 165 138 298c4 4 7 6 13 6h32c7 0 9 -4 6 -8z" />
    <glyph glyph-name="seven.superior" unicode="&#x2077;" horiz-adv-x="330" 
d="M278 799c-34 -87 -84 -156 -112 -239c-15 -43 -18 -77 -18 -124c0 -8 -3 -8 -7 -8h-28c-5 0 -9 1 -9 6v15c0 157 135 311 135 368c0 2 -1 3 -4 3h-184c-4 0 -7 3 -7 7v23c0 4 3 6 7 6h224c4 0 7 -2 7 -6v-31c0 -4 -1 -11 -4 -20z" />
    <glyph glyph-name="eight.superior" unicode="&#x2078;" horiz-adv-x="330" 
d="M104 657c-35 15 -63 50 -63 101c0 78 40 105 124 105s124 -27 124 -105c0 -50 -27 -83 -61 -98c-3 -1 -5 -2 -5 -5s2 -4 5 -5c50 -27 73 -59 73 -118c0 -88 -51 -110 -136 -110s-136 20 -136 108c0 61 24 93 74 117c3 1 5 2 5 5c0 2 -1 4 -4 5zM259 531
c0 69 -46 105 -94 105s-93 -36 -93 -106c0 -58 27 -73 94 -73s93 16 93 74zM246 758c0 49 -19 69 -79 69c-64 0 -83 -18 -83 -69c0 -47 30 -90 81 -90s81 42 81 90z" />
    <glyph glyph-name="nine.superior" unicode="&#x2079;" horiz-adv-x="330" 
d="M75 732c0 -88 25 -99 89 -99c72 0 90 15 90 101c0 81 -27 91 -90 91c-68 0 -89 -12 -89 -93zM108 436c58 61 98 117 119 162c1 2 2 5 2 7c0 3 -1 4 -5 4c-12 0 -36 -9 -72 -9c-96 0 -120 35 -120 125c0 112 37 138 133 138c94 0 132 -31 132 -131
c0 -87 -25 -165 -138 -298c-4 -4 -7 -6 -13 -6h-32c-7 0 -9 4 -6 8z" />
    <glyph glyph-name="zero.denominator" horiz-adv-x="330" 
d="M79 214c0 -62 10 -145 31 -169c12 -14 28 -16 55 -16c28 0 43 2 55 16c21 24 32 107 32 169c0 63 -11 146 -32 170c-12 14 -27 16 -55 16c-27 0 -43 -2 -55 -16c-21 -24 -31 -107 -31 -170zM296 214c0 -66 -14 -164 -49 -197c-19 -18 -40 -23 -82 -23c-41 0 -63 5 -82 23
c-35 33 -49 131 -49 197s14 163 49 197c19 18 41 24 82 24c42 0 63 -6 82 -24c35 -34 49 -131 49 -197z" />
    <glyph glyph-name="one.denominator" horiz-adv-x="330" 
d="M154 42v344c-1 2 -2 3 -4 3l-90 -17c-4 0 -6 2 -6 6v24c0 2 0 6 5 8l86 17c5 1 10 1 18 1h29c4 0 7 -2 7 -6v-380c0 -3 1 -4 3 -4h77c4 0 7 -2 7 -6v-26c0 -3 -3 -6 -7 -6h-216c-4 0 -7 3 -7 6v26c0 4 3 6 7 6h87c3 0 4 1 4 4z" />
    <glyph glyph-name="two.denominator" horiz-adv-x="330" 
d="M37 6v31c0 70 38 116 123 176c74 52 83 71 83 116c0 52 -26 67 -88 67c-26 0 -67 -5 -88 -11c-4 0 -6 2 -6 6l-3 25c0 4 2 5 6 6c26 8 65 13 94 13c88 0 129 -26 129 -103c0 -67 -29 -98 -98 -145c-84 -58 -110 -96 -110 -144c0 -5 0 -5 4 -5h203c4 0 7 -2 7 -6v-26
c0 -3 -3 -6 -7 -6h-239c-5 0 -10 1 -10 6z" />
    <glyph glyph-name="three.denominator" horiz-adv-x="330" 
d="M139 251c-1 -1 -3 -3 -3 -6s2 -3 3 -3c98 -1 146 -36 146 -111c0 -109 -67 -137 -147 -137c-23 0 -60 3 -92 10c-4 1 -6 3 -6 7l2 24c0 3 3 6 7 6c27 -6 67 -8 85 -8c73 0 108 22 108 97c0 56 -35 79 -129 79h-30c-4 0 -7 3 -7 6v23c0 5 2 6 7 11c60 53 140 133 140 139
c0 3 -3 4 -5 4h-169c-4 0 -6 2 -6 6v24c0 4 3 6 6 6h222c3 0 6 0 6 -4v-33c0 -4 -2 -7 -8 -14c-28 -31 -83 -84 -130 -126z" />
    <glyph glyph-name="four.denominator" horiz-adv-x="330" 
d="M23 117v32c0 17 2 25 136 273c2 5 4 6 8 6h32c4 0 7 -1 7 -7c-101 -180 -141 -253 -141 -269c0 -5 2 -5 4 -5h131c2 0 4 1 4 4v142c0 4 2 6 6 6h31c4 0 6 -2 6 -6v-142c0 -3 1 -4 4 -4h59c3 0 6 -3 6 -7v-23c0 -4 -3 -6 -6 -6h-59c-3 0 -4 -1 -4 -4v-101
c0 -3 -2 -6 -6 -6h-31c-4 0 -6 3 -6 6v101c0 3 -2 4 -4 4h-170c-4 0 -7 2 -7 6z" />
    <glyph glyph-name="five.denominator" horiz-adv-x="330" 
d="M263 392h-152c-4 0 -6 -1 -6 -5l-6 -125c0 -3 1 -5 4 -5c123 0 179 -25 179 -122c0 -112 -60 -141 -156 -141c-32 0 -60 3 -85 9c-2 1 -3 2 -3 6l3 29c0 2 4 4 7 3c21 -5 49 -8 73 -8c83 0 118 19 118 99c0 75 -40 88 -151 88h-22c-7 0 -8 4 -8 11l7 189c0 7 1 8 7 8h191
c4 0 6 -2 6 -6v-24c0 -4 -2 -6 -6 -6z" />
    <glyph glyph-name="six.denominator" horiz-adv-x="330" 
d="M254 125c0 88 -25 99 -89 99c-72 0 -90 -15 -90 -101c0 -81 27 -91 90 -91c68 0 89 12 89 93zM221 421c-58 -61 -98 -117 -119 -162c-1 -2 -2 -5 -2 -7c0 -3 1 -4 5 -4c12 0 36 9 72 9c96 0 120 -35 120 -125c0 -112 -37 -138 -133 -138c-94 0 -132 31 -132 131
c0 87 25 165 138 298c4 4 7 6 13 6h32c7 0 9 -4 6 -8z" />
    <glyph glyph-name="seven.denominator" horiz-adv-x="330" 
d="M278 371c-34 -87 -84 -156 -112 -239c-15 -43 -18 -77 -18 -124c0 -8 -3 -8 -7 -8h-28c-5 0 -9 1 -9 6v15c0 157 135 311 135 368c0 2 -1 3 -4 3h-184c-4 0 -7 3 -7 7v23c0 4 3 6 7 6h224c4 0 7 -2 7 -6v-31c0 -4 -1 -11 -4 -20z" />
    <glyph glyph-name="eight.denominator" horiz-adv-x="330" 
d="M104 229c-35 15 -63 50 -63 101c0 78 40 105 124 105s124 -27 124 -105c0 -50 -27 -83 -61 -98c-3 -1 -5 -2 -5 -5s2 -4 5 -5c50 -27 73 -59 73 -118c0 -88 -51 -110 -136 -110s-136 20 -136 108c0 61 24 93 74 117c3 1 5 2 5 5c0 2 -1 4 -4 5zM259 103
c0 69 -46 105 -94 105s-93 -36 -93 -106c0 -58 27 -73 94 -73s93 16 93 74zM246 330c0 49 -19 69 -79 69c-64 0 -83 -18 -83 -69c0 -47 30 -90 81 -90s81 42 81 90z" />
    <glyph glyph-name="nine.denominator" horiz-adv-x="330" 
d="M75 304c0 -88 25 -99 89 -99c72 0 90 15 90 101c0 81 -27 91 -90 91c-68 0 -89 -12 -89 -93zM108 8c58 61 98 117 119 162c1 2 2 5 2 7c0 3 -1 4 -5 4c-12 0 -36 -9 -72 -9c-96 0 -120 35 -120 125c0 112 37 138 133 138c94 0 132 -31 132 -131c0 -87 -25 -165 -138 -298
c-4 -4 -7 -6 -13 -6h-32c-7 0 -9 4 -6 8z" />
    <glyph glyph-name="zero.numerator" horiz-adv-x="330" 
d="M79 466c0 -62 10 -145 31 -169c12 -14 28 -16 55 -16c28 0 43 2 55 16c21 24 32 107 32 169c0 63 -11 146 -32 170c-12 14 -27 16 -55 16c-27 0 -43 -2 -55 -16c-21 -24 -31 -107 -31 -170zM296 466c0 -66 -14 -164 -49 -197c-19 -18 -40 -23 -82 -23c-41 0 -63 5 -82 23
c-35 33 -49 131 -49 197s14 163 49 197c19 18 41 24 82 24c42 0 63 -6 82 -24c35 -34 49 -131 49 -197z" />
    <glyph glyph-name="one.numerator" horiz-adv-x="330" 
d="M154 294v344c-1 2 -2 3 -4 3l-90 -17c-4 0 -6 2 -6 6v24c0 2 0 6 5 8l86 17c5 1 10 1 18 1h29c4 0 7 -2 7 -6v-380c0 -3 1 -4 3 -4h77c4 0 7 -2 7 -6v-26c0 -3 -3 -6 -7 -6h-216c-4 0 -7 3 -7 6v26c0 4 3 6 7 6h87c3 0 4 1 4 4z" />
    <glyph glyph-name="two.numerator" horiz-adv-x="330" 
d="M37 258v31c0 70 38 116 123 176c74 52 83 71 83 116c0 52 -26 67 -88 67c-26 0 -67 -5 -88 -11c-4 0 -6 2 -6 6l-3 25c0 4 2 5 6 6c26 8 65 13 94 13c88 0 129 -26 129 -103c0 -67 -29 -98 -98 -145c-84 -58 -110 -96 -110 -144c0 -5 0 -5 4 -5h203c4 0 7 -2 7 -6v-26
c0 -3 -3 -6 -7 -6h-239c-5 0 -10 1 -10 6z" />
    <glyph glyph-name="three.numerator" horiz-adv-x="330" 
d="M139 503c-1 -1 -3 -3 -3 -6s2 -3 3 -3c98 -1 146 -36 146 -111c0 -109 -67 -137 -147 -137c-23 0 -60 3 -92 10c-4 1 -6 3 -6 7l2 24c0 3 3 6 7 6c27 -6 67 -8 85 -8c73 0 108 22 108 97c0 56 -35 79 -129 79h-30c-4 0 -7 3 -7 6v23c0 5 2 6 7 11c60 53 140 133 140 139
c0 3 -3 4 -5 4h-169c-4 0 -6 2 -6 6v24c0 4 3 6 6 6h222c3 0 6 0 6 -4v-33c0 -4 -2 -7 -8 -14c-28 -31 -83 -84 -130 -126z" />
    <glyph glyph-name="four.numerator" horiz-adv-x="330" 
d="M23 369v32c0 17 2 25 136 273c2 5 4 6 8 6h32c4 0 7 -1 7 -7c-101 -180 -141 -253 -141 -269c0 -5 2 -5 4 -5h131c2 0 4 1 4 4v142c0 4 2 6 6 6h31c4 0 6 -2 6 -6v-142c0 -3 1 -4 4 -4h59c3 0 6 -3 6 -7v-23c0 -4 -3 -6 -6 -6h-59c-3 0 -4 -1 -4 -4v-101
c0 -3 -2 -6 -6 -6h-31c-4 0 -6 3 -6 6v101c0 3 -2 4 -4 4h-170c-4 0 -7 2 -7 6z" />
    <glyph glyph-name="five.numerator" horiz-adv-x="330" 
d="M263 644h-152c-4 0 -6 -1 -6 -5l-6 -125c0 -3 1 -5 4 -5c123 0 179 -25 179 -122c0 -112 -60 -141 -156 -141c-32 0 -60 3 -85 9c-2 1 -3 2 -3 6l3 29c0 2 4 4 7 3c21 -5 49 -8 73 -8c83 0 118 19 118 99c0 75 -40 88 -151 88h-22c-7 0 -8 4 -8 11l7 189c0 7 1 8 7 8h191
c4 0 6 -2 6 -6v-24c0 -4 -2 -6 -6 -6z" />
    <glyph glyph-name="six.numerator" horiz-adv-x="330" 
d="M254 377c0 88 -25 99 -89 99c-72 0 -90 -15 -90 -101c0 -81 27 -91 90 -91c68 0 89 12 89 93zM221 673c-58 -61 -98 -117 -119 -162c-1 -2 -2 -5 -2 -7c0 -3 1 -4 5 -4c12 0 36 9 72 9c96 0 120 -35 120 -125c0 -112 -37 -138 -133 -138c-94 0 -132 31 -132 131
c0 87 25 165 138 298c4 4 7 6 13 6h32c7 0 9 -4 6 -8z" />
    <glyph glyph-name="seven.numerator" horiz-adv-x="330" 
d="M278 623c-34 -87 -84 -156 -112 -239c-15 -43 -18 -77 -18 -124c0 -8 -3 -8 -7 -8h-28c-5 0 -9 1 -9 6v15c0 157 135 311 135 368c0 2 -1 3 -4 3h-184c-4 0 -7 3 -7 7v23c0 4 3 6 7 6h224c4 0 7 -2 7 -6v-31c0 -4 -1 -11 -4 -20z" />
    <glyph glyph-name="eight.numerator" horiz-adv-x="330" 
d="M104 481c-35 15 -63 50 -63 101c0 78 40 105 124 105s124 -27 124 -105c0 -50 -27 -83 -61 -98c-3 -1 -5 -2 -5 -5s2 -4 5 -5c50 -27 73 -59 73 -118c0 -88 -51 -110 -136 -110s-136 20 -136 108c0 61 24 93 74 117c3 1 5 2 5 5c0 2 -1 4 -4 5zM259 355
c0 69 -46 105 -94 105s-93 -36 -93 -106c0 -58 27 -73 94 -73s93 16 93 74zM246 582c0 49 -19 69 -79 69c-64 0 -83 -18 -83 -69c0 -47 30 -90 81 -90s81 42 81 90z" />
    <glyph glyph-name="nine.numerator" horiz-adv-x="330" 
d="M75 556c0 -88 25 -99 89 -99c72 0 90 15 90 101c0 81 -27 91 -90 91c-68 0 -89 -12 -89 -93zM108 260c58 61 98 117 119 162c1 2 2 5 2 7c0 3 -1 4 -5 4c-12 0 -36 -9 -72 -9c-96 0 -120 35 -120 125c0 112 37 138 133 138c94 0 132 -31 132 -131
c0 -87 -25 -165 -138 -298c-4 -4 -7 -6 -13 -6h-32c-7 0 -9 4 -6 8z" />
    <glyph glyph-name="zero.inferior" unicode="&#x2080;" horiz-adv-x="330" 
d="M79 59c0 -62 10 -145 31 -169c12 -14 28 -16 55 -16c28 0 43 2 55 16c21 24 32 107 32 169c0 63 -11 146 -32 170c-12 14 -27 16 -55 16c-27 0 -43 -2 -55 -16c-21 -24 -31 -107 -31 -170zM296 59c0 -66 -14 -164 -49 -197c-19 -18 -40 -23 -82 -23c-41 0 -63 5 -82 23
c-35 33 -49 131 -49 197s14 163 49 197c19 18 41 24 82 24c42 0 63 -6 82 -24c35 -34 49 -131 49 -197z" />
    <glyph glyph-name="one.inferior" unicode="&#x2081;" horiz-adv-x="330" 
d="M154 -113v344c-1 2 -2 3 -4 3l-90 -17c-4 0 -6 2 -6 6v24c0 2 0 6 5 8l86 17c5 1 10 1 18 1h29c4 0 7 -2 7 -6v-380c0 -3 1 -4 3 -4h77c4 0 7 -2 7 -6v-26c0 -3 -3 -6 -7 -6h-216c-4 0 -7 3 -7 6v26c0 4 3 6 7 6h87c3 0 4 1 4 4z" />
    <glyph glyph-name="two.inferior" unicode="&#x2082;" horiz-adv-x="330" 
d="M37 -149v31c0 70 38 116 123 176c74 52 83 71 83 116c0 52 -26 67 -88 67c-26 0 -67 -5 -88 -11c-4 0 -6 2 -6 6l-3 25c0 4 2 5 6 6c26 8 65 13 94 13c88 0 129 -26 129 -103c0 -67 -29 -98 -98 -145c-84 -58 -110 -96 -110 -144c0 -5 0 -5 4 -5h203c4 0 7 -2 7 -6v-26
c0 -3 -3 -6 -7 -6h-239c-5 0 -10 1 -10 6z" />
    <glyph glyph-name="three.inferior" unicode="&#x2083;" horiz-adv-x="330" 
d="M139 96c-1 -1 -3 -3 -3 -6s2 -3 3 -3c98 -1 146 -36 146 -111c0 -109 -67 -137 -147 -137c-23 0 -60 3 -92 10c-4 1 -6 3 -6 7l2 24c0 3 3 6 7 6c27 -6 67 -8 85 -8c73 0 108 22 108 97c0 56 -35 79 -129 79h-30c-4 0 -7 3 -7 6v23c0 5 2 6 7 11c60 53 140 133 140 139
c0 3 -3 4 -5 4h-169c-4 0 -6 2 -6 6v24c0 4 3 6 6 6h222c3 0 6 0 6 -4v-33c0 -4 -2 -7 -8 -14c-28 -31 -83 -84 -130 -126z" />
    <glyph glyph-name="four.inferior" unicode="&#x2084;" horiz-adv-x="330" 
d="M23 -38v32c0 17 2 25 136 273c2 5 4 6 8 6h32c4 0 7 -1 7 -7c-101 -180 -141 -253 -141 -269c0 -5 2 -5 4 -5h131c2 0 4 1 4 4v142c0 4 2 6 6 6h31c4 0 6 -2 6 -6v-142c0 -3 1 -4 4 -4h59c3 0 6 -3 6 -7v-23c0 -4 -3 -6 -6 -6h-59c-3 0 -4 -1 -4 -4v-101
c0 -3 -2 -6 -6 -6h-31c-4 0 -6 3 -6 6v101c0 3 -2 4 -4 4h-170c-4 0 -7 2 -7 6z" />
    <glyph glyph-name="five.inferior" unicode="&#x2085;" horiz-adv-x="330" 
d="M263 237h-152c-4 0 -6 -1 -6 -5l-6 -125c0 -3 1 -5 4 -5c123 0 179 -25 179 -122c0 -112 -60 -141 -156 -141c-32 0 -60 3 -85 9c-2 1 -3 2 -3 6l3 29c0 2 4 4 7 3c21 -5 49 -8 73 -8c83 0 118 19 118 99c0 75 -40 88 -151 88h-22c-7 0 -8 4 -8 11l7 189c0 7 1 8 7 8h191
c4 0 6 -2 6 -6v-24c0 -4 -2 -6 -6 -6z" />
    <glyph glyph-name="six.inferior" unicode="&#x2086;" horiz-adv-x="330" 
d="M254 -30c0 88 -25 99 -89 99c-72 0 -90 -15 -90 -101c0 -81 27 -91 90 -91c68 0 89 12 89 93zM221 266c-58 -61 -98 -117 -119 -162c-1 -2 -2 -5 -2 -7c0 -3 1 -4 5 -4c12 0 36 9 72 9c96 0 120 -35 120 -125c0 -112 -37 -138 -133 -138c-94 0 -132 31 -132 131
c0 87 25 165 138 298c4 4 7 6 13 6h32c7 0 9 -4 6 -8z" />
    <glyph glyph-name="seven.inferior" unicode="&#x2087;" horiz-adv-x="330" 
d="M278 216c-34 -87 -84 -156 -112 -239c-15 -43 -18 -77 -18 -124c0 -8 -3 -8 -7 -8h-28c-5 0 -9 1 -9 6v15c0 157 135 311 135 368c0 2 -1 3 -4 3h-184c-4 0 -7 3 -7 7v23c0 4 3 6 7 6h224c4 0 7 -2 7 -6v-31c0 -4 -1 -11 -4 -20z" />
    <glyph glyph-name="eight.inferior" unicode="&#x2088;" horiz-adv-x="330" 
d="M104 74c-35 15 -63 50 -63 101c0 78 40 105 124 105s124 -27 124 -105c0 -50 -27 -83 -61 -98c-3 -1 -5 -2 -5 -5s2 -4 5 -5c50 -27 73 -59 73 -118c0 -88 -51 -110 -136 -110s-136 20 -136 108c0 61 24 93 74 117c3 1 5 2 5 5c0 2 -1 4 -4 5zM259 -52
c0 69 -46 105 -94 105s-93 -36 -93 -106c0 -58 27 -73 94 -73s93 16 93 74zM246 175c0 49 -19 69 -79 69c-64 0 -83 -18 -83 -69c0 -47 30 -90 81 -90s81 42 81 90z" />
    <glyph glyph-name="nine.inferior" unicode="&#x2089;" horiz-adv-x="330" 
d="M75 149c0 -88 25 -99 89 -99c72 0 90 15 90 101c0 81 -27 91 -90 91c-68 0 -89 -12 -89 -93zM108 -147c58 61 98 117 119 162c1 2 2 5 2 7c0 3 -1 4 -5 4c-12 0 -36 -9 -72 -9c-96 0 -120 35 -120 125c0 112 37 138 133 138c94 0 132 -31 132 -131
c0 -87 -25 -165 -138 -298c-4 -4 -7 -6 -13 -6h-32c-7 0 -9 4 -6 8z" />
    <glyph glyph-name="acute.cap" horiz-adv-x="500" 
d="M222 742h-19c-6 0 -7 6 -3 10l144 142c5 5 13 10 19 10h29c16 0 13 -13 8 -16l-152 -135c-12 -11 -17 -11 -26 -11z" />
    <glyph glyph-name="breve.cap" horiz-adv-x="500" 
d="M250 776c76 0 98 17 98 91c0 7 3 8 11 8h16c6 0 10 -2 10 -8c0 -89 -27 -126 -136 -126s-134 37 -134 126c0 6 4 8 10 8h17c8 0 10 -1 10 -8c0 -74 22 -91 98 -91z" />
    <glyph glyph-name="caron.alt" horiz-adv-x="500" 
d="M231 618h-17c-6 0 -8 4 -7 7l48 192c2 7 8 10 14 10h29c7 0 11 -5 9 -11l-58 -179c-5 -16 -9 -19 -18 -19z" />
    <glyph glyph-name="caron.cap" horiz-adv-x="500" 
d="M96 892h13c13 0 20 -1 29 -11l103 -115c2 -1 4 -2 8 -2c5 0 7 1 9 2l105 115c9 9 13 11 24 11h17c6 0 11 -4 8 -8l-124 -146c-4 -5 -9 -8 -15 -8h-49c-6 0 -11 3 -15 8l-121 146c-3 4 2 8 8 8z" />
    <glyph glyph-name="circumflex.cap" horiz-adv-x="500" 
d="M404 742h-13c-13 0 -20 1 -29 11l-103 115c-2 1 -4 2 -8 2c-5 0 -7 -1 -9 -2l-105 -115c-9 -9 -13 -11 -24 -11h-17c-6 0 -11 4 -8 8l124 146c4 5 9 8 15 8h49c6 0 11 -3 15 -8l121 -146c3 -4 -2 -8 -8 -8z" />
    <glyph glyph-name="commaaccent.alt" horiz-adv-x="500" 
d="M296 803h17c6 0 9 -3 7 -6l-82 -170c-4 -6 -9 -10 -15 -10h-27c-6 0 -10 4 -10 10l89 160c9 14 12 16 21 16z" />
    <glyph glyph-name="dieresis.cap" horiz-adv-x="500" 
d="M175 772h-40c-6 0 -10 4 -10 10v45c0 6 4 10 10 10h40c6 0 10 -4 10 -10v-45c0 -6 -4 -10 -10 -10zM366 772h-40c-6 0 -10 4 -10 10v45c0 6 4 10 10 10h40c6 0 10 -4 10 -10v-45c0 -6 -4 -10 -10 -10z" />
    <glyph glyph-name="dotaccent.cap" horiz-adv-x="500" 
d="M271 771h-40c-6 0 -10 4 -10 10v45c0 6 4 10 10 10h40c6 0 10 -4 10 -10v-45c0 -6 -4 -10 -10 -10z" />
    <glyph glyph-name="grave.cap" horiz-adv-x="500" 
d="M297 742h-19c-9 0 -14 0 -26 11l-152 135c-5 3 -8 16 8 16h29c6 0 14 -5 19 -10l144 -142c4 -4 3 -10 -3 -10z" />
    <glyph glyph-name="hungarumlaut.cap" horiz-adv-x="500" 
d="M144 742h-17c-6 0 -9 3 -7 6l103 146c4 6 9 10 15 10h27c6 0 10 -4 10 -10l-108 -136c-10 -13 -14 -16 -23 -16zM301 742h-17c-6 0 -9 3 -7 6l103 146c4 6 9 10 15 10h27c6 0 10 -4 10 -10l-108 -136c-10 -13 -14 -16 -23 -16z" />
    <glyph glyph-name="macron.cap" horiz-adv-x="500" 
d="M357 771h-214c-6 0 -10 4 -10 10v19c0 6 4 10 10 10h214c6 0 10 -4 10 -10v-19c0 -6 -4 -10 -10 -10z" />
    <glyph glyph-name="ring.cap" horiz-adv-x="500" 
d="M139 832c0 80 39 107 111 107c70 0 110 -28 110 -96c0 -88 -50 -109 -110 -109s-111 20 -111 98zM325 839c0 62 -27 71 -75 71c-56 0 -78 -10 -78 -71c0 -66 30 -76 78 -76c52 0 75 10 75 76z" />
    <glyph glyph-name="tilde.cap" horiz-adv-x="500" 
d="M260 805c26 -19 45 -28 61 -28c26 0 41 23 45 55c1 6 2 7 6 7h24c5 0 5 -3 5 -8c0 -37 -25 -91 -80 -91c-28 0 -45 8 -81 34c-26 19 -45 28 -61 28c-26 0 -41 -23 -45 -55c-1 -6 -2 -7 -6 -7h-24c-5 0 -5 3 -5 8c0 37 25 91 80 91c28 0 45 -8 81 -34z" />
    <glyph glyph-name="c_t" horiz-adv-x="725" 
d="M592 611v-70c0 -4 2 -6 6 -6h93c6 0 10 -4 10 -10v-18c0 -6 -4 -10 -10 -10h-93c-4 0 -6 -2 -6 -6v-387c0 -63 6 -75 57 -75h39c6 0 9 -1 9 -7v-14c0 -6 -2 -9 -8 -10c-13 -3 -36 -6 -58 -6c-78 0 -85 45 -85 98v401c0 4 -2 6 -6 6h-73c-6 0 -10 4 -10 10v18
c0 6 4 10 10 10h73c4 0 6 2 6 6v74c0 52 -27 75 -95 75c-82 0 -107 -28 -107 -118v-66c0 -3 -2 -5 -6 -4c-17 3 -39 4 -47 4c-126 0 -170 -86 -170 -243c0 -148 42 -233 166 -233c28 0 63 7 86 15c4 1 6 1 7 -4l4 -29c1 -4 0 -7 -3 -8c-26 -8 -56 -14 -95 -14
c-155 0 -213 96 -213 274c0 173 59 279 214 281h8c5 0 7 2 7 5c0 93 12 177 150 177c135 0 140 -66 140 -116z" />
    <glyph glyph-name="s_t" unicode="&#xfb06;" horiz-adv-x="680" 
d="M216 545h34c5 0 7 2 7 5c0 93 12 177 150 177c135 0 140 -66 140 -116v-70c0 -4 2 -6 6 -6h93c6 0 10 -4 10 -10v-18c0 -6 -4 -10 -10 -10h-93c-4 0 -6 -2 -6 -6v-387c0 -63 6 -75 57 -75h39c6 0 9 -1 9 -7v-14c0 -6 -2 -9 -8 -10c-13 -3 -36 -6 -58 -6
c-78 0 -85 45 -85 98v401c0 4 -2 6 -6 6h-73c-6 0 -10 4 -10 10v18c0 6 4 10 10 10h73c4 0 6 2 6 6v74c0 52 -27 75 -95 75c-82 0 -107 -28 -107 -118v-66c0 -3 -2 -5 -6 -4c-17 3 -59 4 -67 4c-65 0 -116 -16 -116 -78c0 -61 27 -81 97 -132c85 -62 128 -92 128 -181
c0 -85 -48 -125 -165 -125c-47 0 -80 4 -111 10c-3 1 -4 2 -4 7l4 30c0 3 2 5 6 4c35 -7 67 -11 100 -11c81 0 125 15 125 86c0 59 -17 77 -106 143c-88 65 -120 92 -120 166c0 79 55 120 152 120z" />
    <glyph glyph-name="c_h" horiz-adv-x="877" 
d="M462 484v-453c0 -6 -1 -9 -7 -11c-53 -20 -116 -30 -172 -30c-177 0 -210 96 -210 274c0 174 40 281 198 281c14 0 36 -1 55 -6c3 -1 4 -2 4 -7l-4 -27c0 -3 -2 -5 -6 -4c-18 4 -34 5 -48 5c-126 0 -151 -86 -151 -243c0 -148 19 -233 163 -233c51 0 94 7 127 18
c4 2 5 4 5 10v667c0 6 4 10 10 10h26c6 0 10 -4 10 -10v-181c0 -6 1 -9 7 -9c48 7 88 10 125 10c137 0 193 -38 193 -162v-373c0 -6 -4 -10 -10 -10h-26c-6 0 -10 4 -10 10v366c0 95 -32 130 -149 130c-48 0 -89 -4 -120 -11c-7 -2 -10 -4 -10 -11z" />
    <glyph glyph-name="c_k" horiz-adv-x="782" 
d="M462 262v-231c0 -6 -1 -9 -7 -11c-53 -20 -116 -30 -172 -30c-177 0 -210 96 -210 274c0 174 40 281 198 281c14 0 36 -1 55 -6c3 -1 4 -2 4 -7l-4 -27c0 -3 -2 -5 -6 -4c-18 4 -34 5 -48 5c-126 0 -151 -86 -151 -243c0 -148 19 -233 163 -233c51 0 94 7 127 18
c4 2 5 4 5 10v667c0 6 4 10 10 10h26c6 0 10 -4 10 -10v-403c0 -6 1 -10 19 -10c14 0 19 4 25 10c67 69 148 159 186 205c4 5 8 8 18 8h33c6 0 7 -2 7 -7c-39 -47 -145 -157 -200 -214c-9 -10 -14 -16 -14 -21s6 -13 13 -21c46 -52 194 -232 218 -264c0 -6 -3 -8 -8 -8h-34
c-9 0 -15 5 -16 7c-39 51 -168 214 -208 259c-3 3 -6 5 -20 5c-18 0 -19 -2 -19 -9z" />
    <glyph glyph-name="s_c_h" horiz-adv-x="1217" 
d="M159 -10c-44 0 -80 4 -109 10c-3 1 -5 2 -5 7l4 30c0 3 3 5 6 4c33 -7 68 -11 99 -11c76 0 119 15 119 86c0 59 -14 77 -97 143c-83 65 -109 92 -109 166c0 85 60 120 151 120c44 0 79 -4 104 -9c3 -1 4 -2 4 -7l-4 -29c0 -3 -2 -5 -6 -4c-24 5 -61 10 -92 10
c-61 0 -112 -12 -112 -78c0 -61 20 -81 85 -132c80 -62 120 -92 120 -181c0 -85 -49 -125 -158 -125zM802 484v-453c0 -6 -1 -9 -7 -11c-53 -20 -116 -30 -172 -30c-177 0 -210 96 -210 274c0 174 40 281 198 281c14 0 36 -1 55 -6c3 -1 4 -2 4 -7l-4 -27c0 -3 -2 -5 -6 -4
c-18 4 -34 5 -48 5c-126 0 -151 -86 -151 -243c0 -148 19 -233 163 -233c51 0 94 7 127 18c4 2 5 4 5 10v667c0 6 4 10 10 10h26c6 0 10 -4 10 -10v-181c0 -6 1 -9 7 -9c48 7 88 10 125 10c137 0 193 -38 193 -162v-373c0 -6 -4 -10 -10 -10h-26c-6 0 -10 4 -10 10v366
c0 95 -32 130 -149 130c-48 0 -89 -4 -120 -11c-7 -2 -10 -4 -10 -11z" />
    <glyph glyph-name="zero.prop" 
d="M120 340c0 -105 20 -236 58 -280c19 -22 40 -31 91 -31c53 0 74 9 93 31c38 44 58 175 58 280s-20 236 -58 280c-19 22 -40 31 -93 31c-51 0 -72 -9 -91 -31c-38 -44 -58 -175 -58 -280zM470 340c0 -105 -22 -253 -75 -310c-25 -27 -59 -40 -125 -40s-100 13 -125 40
c-53 57 -75 205 -75 310s22 253 75 310c25 27 59 40 125 40s100 -13 125 -40c53 -57 75 -205 75 -310z" />
    <glyph glyph-name="one.prop" horiz-adv-x="367" 
d="M181 10v623c-1 3 -3 5 -6 5l-141 -26c-6 0 -10 4 -10 10v22c0 6 4 8 10 10l125 23c6 2 14 3 20 3h40c6 0 10 -4 10 -10v-660c0 -6 -4 -10 -10 -10h-28c-6 0 -10 4 -10 10z" />
    <glyph glyph-name="two.prop" horiz-adv-x="520" 
d="M53 10v42c0 116 75 182 215 272c97 62 129 111 129 193c0 91 -44 130 -152 130c-41 0 -106 -8 -140 -17c-6 0 -9 1 -10 10l-3 21c0 6 4 9 10 10c41 12 104 19 150 19c138 0 195 -51 195 -173c0 -109 -43 -156 -155 -226c-142 -88 -190 -143 -190 -237c0 -7 1 -12 8 -12
h348c6 0 10 -4 10 -10v-22c0 -6 -4 -10 -10 -10h-390c-8 0 -15 2 -15 10z" />
    <glyph glyph-name="three.prop" horiz-adv-x="517" 
d="M222 32c122 0 161 44 161 163s-43 147 -199 147h-48c-6 0 -10 4 -10 10v20c0 7 2 11 11 19c77 73 194 197 223 232c5 6 6 8 6 11s-3 4 -6 4h-278c-6 0 -9 4 -9 10v22c0 6 4 10 10 10h327c5 0 10 -1 10 -7v-42c0 -6 -2 -10 -13 -22c-45 -50 -144 -153 -210 -217
c-2 -2 -3 -3 -3 -6s1 -4 5 -4c150 0 234 -24 234 -185c0 -179 -99 -207 -208 -207c-44 0 -113 6 -154 16c-4 1 -6 3 -6 8l4 28c0 3 3 7 8 6c33 -8 100 -16 145 -16z" />
    <glyph glyph-name="four.prop" 
d="M57 196v30c0 7 0 14 8 32c18 39 141 277 211 412c4 7 7 10 13 10h33c6 0 10 -3 7 -11c-135 -250 -207 -388 -222 -425c-2 -5 -2 -8 -2 -10c0 -7 2 -8 7 -8h218c4 0 6 2 6 6v233c0 6 4 10 10 10h25c6 0 10 -4 10 -10v-233c0 -4 2 -6 6 -6h107c6 0 10 -4 10 -10v-20
c0 -6 -4 -10 -10 -10h-107c-4 0 -6 -2 -6 -6v-170c0 -6 -4 -10 -10 -10h-25c-6 0 -10 4 -10 10v170c0 4 -2 6 -6 6h-263c-6 0 -10 4 -10 10z" />
    <glyph glyph-name="five.prop" horiz-adv-x="520" 
d="M391 638h-225c-7 0 -9 -2 -10 -8l-10 -224c0 -5 2 -8 6 -8c196 0 275 -36 275 -183c0 -179 -75 -225 -228 -225c-37 0 -84 3 -125 13c-4 1 -6 3 -6 8l4 28c0 3 3 7 8 6c33 -8 79 -13 114 -13c133 0 184 32 184 178c0 124 -53 147 -236 147h-29c-11 0 -14 6 -14 18l12 292
c0 11 2 13 11 13h269c6 0 10 -4 10 -10v-22c0 -6 -4 -10 -10 -10z" />
    <glyph glyph-name="six.prop" 
d="M417 196c0 148 -40 171 -148 171c-121 0 -149 -27 -149 -171s43 -166 149 -166c116 0 148 22 148 166zM160 398c0 -7 4 -7 8 -7c45 11 77 14 111 14c144 0 187 -53 187 -196c0 -178 -53 -219 -195 -219c-143 0 -200 46 -200 208c0 137 46 260 221 465c12 14 17 17 24 17
h37c5 0 9 -6 2 -13c-70 -69 -156 -185 -191 -257c-2 -4 -4 -9 -4 -12z" />
    <glyph glyph-name="seven.prop" horiz-adv-x="464" 
d="M398 603c-51 -137 -125 -240 -171 -379c-23 -68 -32 -127 -32 -212c0 -12 -4 -12 -11 -12h-22c-8 0 -15 2 -15 10v19c0 249 208 510 208 603c0 4 -2 6 -6 6h-293c-6 0 -10 4 -10 10v22c0 6 4 10 10 10h338c6 0 10 -4 10 -10v-34c0 -6 -1 -19 -6 -33z" />
    <glyph glyph-name="eight.prop" 
d="M184 364c-52 26 -98 81 -98 162c0 123 56 164 184 164s184 -41 184 -164c0 -79 -44 -131 -96 -157c-2 -1 -5 -3 -5 -9c0 -5 4 -7 6 -8c80 -42 114 -88 114 -182c0 -139 -73 -180 -203 -180s-203 35 -203 174c0 98 37 144 116 183c4 2 6 4 6 9c0 6 -3 7 -5 8zM424 167
c0 124 -77 172 -153 172s-155 -48 -155 -173c0 -105 43 -138 156 -138s152 38 152 139zM405 527c0 90 -32 122 -133 122c-109 0 -137 -31 -137 -122c0 -84 49 -153 135 -153c84 0 135 68 135 153z" />
    <glyph glyph-name="nine.prop" 
d="M119 484c0 -148 40 -171 148 -171c121 0 149 27 149 171s-43 166 -149 166c-116 0 -148 -22 -148 -166zM376 282c0 7 -4 7 -8 7c-45 -11 -77 -14 -111 -14c-144 0 -187 53 -187 196c0 178 53 219 195 219c143 0 200 -46 200 -208c0 -137 -46 -260 -221 -465
c-12 -14 -17 -17 -24 -17h-37c-5 0 -9 6 -2 13c70 69 156 185 191 257c2 4 4 9 4 12z" />
    <glyph glyph-name="zero.onum" 
d="M120 280c0 -90 20 -187 58 -225c19 -19 40 -27 91 -27c54 0 75 8 94 27c38 38 58 135 58 225c0 89 -20 187 -58 224c-19 19 -40 27 -94 27c-51 0 -72 -8 -91 -27c-38 -37 -58 -135 -58 -224zM471 280c0 -90 -22 -207 -75 -256c-25 -23 -59 -34 -126 -34
c-66 0 -100 11 -125 34c-53 49 -75 166 -75 256c0 89 22 206 75 255c25 23 59 35 125 35c67 0 101 -12 126 -35c53 -49 75 -166 75 -255z" />
    <glyph glyph-name="one.onum" 
d="M265 48v475c-1 3 -3 5 -6 5l-141 -26c-6 0 -10 4 -10 10v22c0 6 4 8 10 10l125 23c6 2 14 3 20 3h40c6 0 10 -4 10 -10v-512c0 -4 2 -6 6 -6h122c6 0 10 -4 10 -10v-22c0 -6 -4 -10 -10 -10h-324c-6 0 -10 4 -10 10v22c0 6 4 10 10 10h142c4 0 6 2 6 6z" />
    <glyph glyph-name="two.onum" 
d="M129 50c0 -7 1 -8 8 -8h333c6 0 10 -4 10 -10v-22c0 -6 -4 -10 -10 -10h-377c-8 0 -15 2 -15 10v31c0 77 71 148 200 216c72 38 132 80 131 158c0 85 -44 112 -152 112c-41 0 -111 -8 -145 -17c-6 0 -10 4 -10 10l-3 21c0 6 4 9 10 10c41 12 109 19 155 19
c121 0 195 -33 195 -155c0 -87 -57 -135 -146 -184c-142 -78 -184 -126 -184 -181z" />
    <glyph glyph-name="three.onum" 
d="M235 -88c122 0 161 44 161 163s-43 147 -199 147h-48c-6 0 -10 4 -10 10v20c0 7 2 11 11 19c77 73 194 197 223 232c5 6 6 8 6 11s-3 4 -6 4h-278c-6 0 -9 4 -9 10v22c0 6 4 10 10 10h327c5 0 10 -1 10 -7v-42c0 -6 -2 -10 -13 -22c-45 -50 -144 -153 -210 -217
c-2 -2 -3 -3 -3 -6s1 -4 5 -4c150 0 234 -24 234 -185c0 -179 -99 -207 -208 -207c-44 0 -113 6 -154 16c-4 1 -6 3 -6 8l4 28c0 3 3 7 8 6c33 -8 100 -16 145 -16z" />
    <glyph glyph-name="four.onum" 
d="M57 76v30c0 7 0 14 8 32c18 39 141 277 211 412c4 7 7 10 13 10h33c6 0 10 -3 7 -11c-135 -250 -207 -388 -222 -425c-2 -5 -2 -8 -2 -10c0 -7 2 -8 7 -8h218c4 0 6 2 6 6v233c0 6 4 10 10 10h25c6 0 10 -4 10 -10v-233c0 -4 2 -6 6 -6h107c6 0 10 -4 10 -10v-20
c0 -6 -4 -10 -10 -10h-107c-4 0 -6 -2 -6 -6v-170c0 -6 -4 -10 -10 -10h-25c-6 0 -10 4 -10 10v170c0 4 -2 6 -6 6h-263c-6 0 -10 4 -10 10z" />
    <glyph glyph-name="five.onum" 
d="M401 518h-225c-7 0 -9 -2 -10 -8l-10 -224c0 -5 2 -8 6 -8c196 0 275 -36 275 -183c0 -179 -75 -225 -228 -225c-37 0 -84 3 -125 13c-4 1 -6 3 -6 8l4 28c0 3 3 7 8 6c33 -8 79 -13 114 -13c133 0 184 32 184 178c0 124 -53 147 -236 147h-29c-11 0 -14 6 -14 18l12 292
c0 11 2 13 11 13h269c6 0 10 -4 10 -10v-22c0 -6 -4 -10 -10 -10z" />
    <glyph glyph-name="six.onum" 
d="M417 196c0 148 -40 171 -148 171c-121 0 -149 -27 -149 -171s43 -166 149 -166c116 0 148 22 148 166zM160 398c0 -7 4 -7 8 -7c45 11 77 14 111 14c144 0 187 -53 187 -196c0 -178 -53 -219 -195 -219c-143 0 -200 46 -200 208c0 137 46 260 221 465c12 14 17 17 24 17
h37c5 0 9 -6 2 -13c-70 -69 -156 -185 -191 -257c-2 -4 -4 -9 -4 -12z" />
    <glyph glyph-name="seven.onum" 
d="M435 483c-51 -137 -125 -240 -171 -379c-23 -68 -32 -127 -32 -212c0 -12 -4 -12 -11 -12h-22c-8 0 -15 2 -15 10v19c0 249 208 510 208 603c0 4 -2 6 -6 6h-293c-6 0 -10 4 -10 10v22c0 6 4 10 10 10h338c6 0 10 -4 10 -10v-34c0 -6 -1 -19 -6 -33z" />
    <glyph glyph-name="eight.onum" 
d="M184 364c-52 26 -98 81 -98 162c0 123 56 164 184 164s184 -41 184 -164c0 -79 -44 -131 -96 -157c-2 -1 -5 -3 -5 -9c0 -5 4 -7 6 -8c80 -42 114 -88 114 -182c0 -139 -73 -180 -203 -180s-203 35 -203 174c0 98 37 144 116 183c4 2 6 4 6 9c0 6 -3 7 -5 8zM424 167
c0 124 -77 172 -153 172s-155 -48 -155 -173c0 -105 43 -138 156 -138s152 38 152 139zM405 527c0 90 -32 122 -133 122c-109 0 -137 -31 -137 -122c0 -84 49 -153 135 -153c84 0 135 68 135 153z" />
    </font>
</defs>
</svg>
